<svg width="31" height="31" viewBox="0 0 31 31" fill="none" xmlns="http://www.w3.org/2000/svg">
<g>
<path d="M15.6133 30.7168C23.8976 30.7168 30.6133 24.0011 30.6133 15.7168C30.6133 7.43253 23.8976 0.716797 15.6133 0.716797C7.32901 0.716797 0.613281 7.43253 0.613281 15.7168C0.613281 24.0011 7.32901 30.7168 15.6133 30.7168Z" fill="#7AA5DA"/>
<path d="M30.6133 15.7168C30.6133 15.494 30.5208 15.2819 30.3632 15.1245L28.8318 13.5957C26.2163 10.9845 21.9192 11.1977 19.575 14.0551L17.1946 16.9566C14.8732 19.7862 15.0764 23.9151 17.6643 26.503C19.6423 28.481 22.7015 29.2306 24.8975 27.4979C28.3786 24.7513 30.6133 20.4952 30.6133 15.7168Z" fill="#5786B5"/>
<path d="M23.0968 8.54027C23.6948 8.30695 24.313 8.83019 24.1817 9.45844L21.4998 22.2776C21.3746 22.8786 20.6685 23.1493 20.1736 22.7857L18.5026 21.5592C17.1385 20.5578 15.2455 20.7121 14.0615 21.9211C13.6989 22.2908 13.0736 22.1403 12.918 21.6473L12.6795 20.8902C11.8979 18.4089 9.93309 16.4792 7.43823 15.7423C6.91399 15.5877 6.88369 14.8584 7.39176 14.6595L23.0968 8.54027ZM21.1281 11.3847C21.3029 11.2301 21.0998 10.9574 20.9018 11.0807L12.2877 16.4231C12.1362 16.517 12.0665 16.7019 12.12 16.8725L13.2947 22.0311C13.318 22.1099 13.4311 22.0988 13.4412 22.017L13.7038 18.0857C13.7139 17.9887 13.7604 17.8999 13.8331 17.8352L21.1281 11.3847Z" fill="white"/>
<path d="M20.9017 11.0806C21.0997 10.9574 21.3028 11.2301 21.128 11.3847L13.8331 17.8352C13.7604 17.8998 13.7139 17.9887 13.7038 18.0857L13.4412 22.017C13.4311 22.0988 13.318 22.1099 13.2947 22.0311L12.1199 16.8725C12.0664 16.7018 12.1361 16.517 12.2876 16.423L20.9017 11.0806Z" fill="#9EC2E5"/>
<path d="M13.3372 22.0846C13.3372 22.0846 13.3372 22.0846 13.3372 22.0846C13.1473 22.0169 12.9867 21.8654 12.918 21.6472L12.6795 20.89C11.8979 18.4088 9.93309 16.4791 7.43823 15.7422C6.91399 15.5876 6.88369 14.8583 7.39176 14.6593L23.0968 8.54021C23.4826 8.38969 23.8776 8.55434 24.0725 8.85943C24.0099 8.76378 23.8781 8.76092 23.7895 8.83323L13.3472 17.3579C13.3108 17.3876 13.2897 17.4321 13.2897 17.4791V17.75C13.2897 17.7649 13.2729 17.7735 13.2608 17.7648C13.2486 17.756 13.2316 17.7649 13.232 17.78L13.2897 20.1413V22.0409C13.2897 22.0553 13.298 22.0685 13.3114 22.0737C13.3196 22.0769 13.328 22.0798 13.3363 22.0824C13.3368 22.0825 13.3372 22.083 13.3372 22.0835V22.0846C13.3372 22.0846 13.3372 22.0846 13.3372 22.0846Z" fill="white"/>
<path d="M24.1986 9.24315C24.2017 9.31183 24.1966 9.38454 24.1815 9.45831L21.4996 22.2775C21.3744 22.8785 20.6683 23.1492 20.1734 22.7856L16.1249 19.8139L13.4506 17.9008C13.3495 17.8285 13.2896 17.7119 13.2896 17.5876C13.2896 17.4719 13.3415 17.3624 13.4311 17.2892L23.7894 8.83311C23.878 8.76079 24.0098 8.76361 24.0724 8.85931C24.0795 8.87144 24.0865 8.88251 24.0936 8.89364C24.0996 8.90577 24.1067 8.9179 24.1128 8.92898C24.1188 8.9411 24.1249 8.95323 24.13 8.96536C24.136 8.97849 24.1411 8.99062 24.1461 9.00374C24.1502 9.01487 24.1552 9.02694 24.1593 9.04013C24.1724 9.0795 24.1825 9.11993 24.1896 9.16235C24.1936 9.1886 24.1966 9.21491 24.1986 9.24315Z" fill="#D1D1D1"/>
<path d="M15.0614 19.0532C15.6203 19.4529 15.6908 20.2571 15.21 20.748L14.0612 21.921C14.0441 21.9381 14.0259 21.9553 14.0077 21.9705C13.9895 21.9856 13.9713 21.9988 13.9521 22.0119C13.9521 22.0119 13.9521 22.0119 13.9521 22.0119C13.952 22.012 13.9501 22.0136 13.95 22.0137C13.912 22.0386 13.873 22.0595 13.832 22.0765C13.8107 22.0846 13.7905 22.0927 13.7693 22.0977C13.6814 22.124 13.5915 22.1311 13.5027 22.122C13.4826 22.1203 13.4626 22.117 13.4432 22.1136C13.4371 22.1125 13.4308 22.1118 13.4249 22.1099C13.4027 22.1039 13.3804 22.0978 13.3582 22.0907C13.3446 22.0869 13.3368 22.074 13.3365 22.0599L13.2896 20.1412V19.9642C13.2896 19.0527 14.3201 18.5229 15.0614 19.0532Z" fill="#D1D1D1"/>
<path d="M14.0079 21.9705C13.99 21.9855 13.972 21.9994 13.953 22.0124C13.9528 22.0126 13.9524 22.0124 13.9524 22.0121C13.9524 22.012 13.9525 22.0118 13.9526 22.0118C13.9717 21.9987 13.9898 21.9856 14.0079 21.9705Z" fill="#DADDE0"/>
<path d="M13.9529 22.012C13.9529 22.012 13.9529 22.012 13.9529 22.012C13.9529 22.012 13.9519 22.013 13.9519 22.013C13.9518 22.0131 13.9516 22.0133 13.9514 22.0135C13.9514 22.0135 13.9514 22.0135 13.9514 22.0135C13.9514 22.0135 13.9514 22.0135 13.9529 22.012Z" fill="#DADDE0"/>
<path d="M13.8323 22.0766C13.8737 22.0594 13.9131 22.0382 13.9515 22.0129C13.9131 22.0381 13.8726 22.0593 13.8323 22.0766Z" fill="#DADDE0"/>
<path d="M13.5151 22.1239C13.5125 22.1239 13.5128 22.1229 13.5153 22.1231C13.6001 22.1303 13.6858 22.1227 13.7696 22.0977C13.706 22.1179 13.6403 22.127 13.5746 22.127C13.5544 22.127 13.5342 22.126 13.5151 22.1239Z" fill="#DADDE0"/>
<path d="M13.5745 22.1271C13.5543 22.1271 13.5341 22.1261 13.5149 22.124C13.5341 22.1261 13.5543 22.1271 13.5745 22.1271Z" fill="white"/>
<path d="M13.4904 22.1211C13.4986 22.1219 13.5067 22.1241 13.5149 22.1241C13.4937 22.1231 13.4745 22.12 13.4543 22.116C13.4663 22.1183 13.4784 22.12 13.4904 22.1211Z" fill="white"/>
<path d="M13.5028 22.1221C13.4866 22.1211 13.4704 22.1191 13.4543 22.1161C13.4525 22.1158 13.4526 22.1154 13.4544 22.1157C13.4703 22.1184 13.4865 22.1207 13.5028 22.1221Z" fill="#DADDE0"/>
<path d="M13.3584 22.0908C13.3806 22.0979 13.4029 22.1039 13.4251 22.11C13.416 22.108 13.4069 22.106 13.3978 22.104C13.3902 22.1021 13.3827 22.0992 13.3752 22.097C13.3695 22.0953 13.3638 22.0932 13.3584 22.0908Z" fill="#DADDE0"/>
<path d="M13.3977 22.1038C13.4068 22.1058 13.4159 22.1078 13.425 22.1098C13.4159 22.1088 13.4068 22.1068 13.3977 22.1038Z" fill="white"/>
<path d="M13.3413 22.0857C13.3526 22.0894 13.3639 22.0935 13.3753 22.0969C13.3792 22.098 13.3831 22.099 13.3868 22.0998C13.3716 22.0968 13.3565 22.0917 13.3413 22.0857Z" fill="white"/>
<path d="M13.3584 22.0908C13.3532 22.0899 13.3487 22.0883 13.3438 22.0866C13.3422 22.0861 13.3402 22.0865 13.3387 22.0858C13.3382 22.0856 13.3378 22.0853 13.3374 22.085C13.3373 22.0849 13.3372 22.0846 13.3372 22.0844C13.3372 22.0837 13.3379 22.0832 13.3386 22.0835C13.3451 22.087 13.3518 22.0889 13.3584 22.0908Z" fill="#DADDE0"/>
<path d="M13.2896 20.1414L13.3362 22.0479C13.3366 22.065 13.3199 22.0774 13.3041 22.0709C13.2951 22.0672 13.2896 22.0584 13.2896 22.0486V20.1414Z" fill="#D1D1D1"/>
<path d="M13.2777 17.777C13.2852 17.7824 13.2896 17.791 13.2896 17.8002V20.1412L13.2324 17.8009C13.2318 17.7772 13.2586 17.7631 13.2777 17.777Z" fill="#DADDE0"/>
<path d="M21.128 11.3846L13.8331 17.8352C13.7604 17.8998 13.7139 17.9887 13.7038 18.0857L13.4416 22.0173C13.4316 22.0991 13.3184 22.1102 13.2942 22.0314L12.1199 16.8725C12.0664 16.7019 12.1361 16.517 12.2876 16.4231L20.9018 11.0807C21.0998 10.9574 21.3028 11.2301 21.128 11.3846Z" fill="#ADBCC9"/>
</g>
</svg>
