<svg width="98" height="98" viewBox="0 0 98 98" fill="none" xmlns="http://www.w3.org/2000/svg">
<g>
<path d="M89.8269 8.88013H8.99352C5.42233 8.88013 2.52686 11.7756 2.52686 15.3468V25.0468H96.2935V15.3468C96.2935 11.7756 93.3981 8.88013 89.8269 8.88013Z" fill="#7DB8FE" fill-opacity="0.7"/>
<path d="M49.4102 47.6802C39.7694 47.6676 31.0388 53.3725 27.1795 62.2065C23.3202 71.0413 25.0671 81.3231 31.6269 88.3882C32.0445 88.8539 32.4865 89.296 32.9523 89.7135C40.9204 97.088 52.8204 98.2658 62.0791 92.5956C71.3379 86.9254 75.6977 75.7903 72.7501 65.3412C69.8033 54.892 60.2675 47.6762 49.4102 47.6802ZM49.7449 72.7385L56.6047 79.5983L49.7449 72.7385Z" fill="#7DB8FE" fill-opacity="0.7"/>
<path d="M89.8268 7.26354H83.3602V2.41354C83.3602 1.52074 82.6363 0.796875 81.7435 0.796875C80.8507 0.796875 80.1268 1.52074 80.1268 2.41354V7.26354H67.1935V2.41354C67.1935 1.52074 66.4696 0.796875 65.5768 0.796875C64.684 0.796875 63.9602 1.52074 63.9602 2.41354V7.26354H51.0268V2.41354C51.0268 1.52074 50.303 0.796875 49.4102 0.796875C48.5174 0.796875 47.7935 1.52074 47.7935 2.41354V7.26354H34.8602V2.41354C34.8602 1.52074 34.1363 0.796875 33.2435 0.796875C32.3507 0.796875 31.6268 1.52074 31.6268 2.41354V7.26354H18.6935V2.41354C18.6935 1.52074 17.9696 0.796875 17.0768 0.796875C16.184 0.796875 15.4602 1.52074 15.4602 2.41354V7.26354H8.99349C4.53108 7.26907 0.915682 10.8845 0.910156 15.3469V76.7802C0.915682 81.2426 4.53108 84.858 8.99349 84.8635H27.0342C27.9909 86.5197 29.1292 88.0629 30.4285 89.4664C30.8785 89.9685 31.3553 90.4461 31.8581 90.8952C37.6191 96.2386 45.5003 98.6675 53.2695 97.4937C61.0386 96.3199 67.8503 91.6704 71.7751 84.8635H89.8268C94.2892 84.858 97.9046 81.2426 97.9102 76.7802V15.3469C97.9046 10.8845 94.2892 7.26907 89.8268 7.26354ZM4.14349 15.3469C4.14349 12.6685 6.3151 10.4969 8.99349 10.4969H15.4602V15.3469C15.4602 16.2397 16.184 16.9635 17.0768 16.9635C17.9696 16.9635 18.6935 16.2397 18.6935 15.3469V10.4969H31.6268V15.3469C31.6268 16.2397 32.3507 16.9635 33.2435 16.9635C34.1363 16.9635 34.8602 16.2397 34.8602 15.3469V10.4969H47.7935V15.3469C47.7935 16.2397 48.5174 16.9635 49.4102 16.9635C50.303 16.9635 51.0268 16.2397 51.0268 15.3469V10.4969H63.9602V15.3469C63.9602 16.2397 64.684 16.9635 65.5768 16.9635C66.4696 16.9635 67.1935 16.2397 67.1935 15.3469V10.4969H80.1268V15.3469C80.1268 16.2397 80.8507 16.9635 81.7435 16.9635C82.6363 16.9635 83.3602 16.2397 83.3602 15.3469V10.4969H89.8268C92.5052 10.4969 94.6768 12.6685 94.6768 15.3469V23.4302H4.14349V15.3469ZM64.7685 88.5318C56.1018 96.5828 42.6885 96.5733 34.0337 88.5089C33.6058 88.1245 33.1985 87.7172 32.8149 87.2885C25.9306 79.8517 24.831 68.745 30.123 60.1028C35.4159 51.4606 45.809 47.3913 55.5619 50.1431C65.3147 52.8949 72.049 61.796 72.0435 71.9302C72.0545 74.6875 71.5525 77.422 70.5626 79.9954C70.2342 80.8471 69.8529 81.6776 69.4211 82.4819C68.23 84.7514 66.6559 86.7983 64.7685 88.5318ZM94.6768 76.7802C94.6768 79.4586 92.5052 81.6302 89.8268 81.6302H73.3886C73.4083 81.5805 73.4226 81.5284 73.4423 81.4778C73.7083 80.8092 73.9499 80.1264 74.1598 79.4349C74.2001 79.3023 74.234 79.1681 74.2727 79.0339C74.4527 78.4032 74.609 77.7661 74.7416 77.1212C74.7645 77.0131 74.7906 76.9065 74.8111 76.7983C74.9469 76.0879 75.0487 75.3703 75.1245 74.6496C75.1411 74.4878 75.1553 74.326 75.1703 74.1642C75.2334 73.4174 75.2768 72.6754 75.2768 71.9302C75.2768 57.6446 63.6957 46.0635 49.4102 46.0635C35.1246 46.0635 23.5435 57.6446 23.5435 71.9302C23.5435 72.6722 23.5869 73.4127 23.6516 74.1499C23.6666 74.3118 23.6793 74.4736 23.6958 74.6346C23.7732 75.3593 23.875 76.0768 24.0187 76.7912C24.0384 76.8931 24.0637 76.9933 24.085 77.0952C24.2192 77.7535 24.381 78.4047 24.5697 79.0497C24.606 79.1712 24.636 79.2928 24.6723 79.4136C24.8839 80.1122 25.1278 80.8021 25.3978 81.4802C25.4175 81.5299 25.4301 81.5836 25.4514 81.6333H8.99349C6.3151 81.6333 4.14349 79.4617 4.14349 76.7833V26.6635H94.6768V76.7802Z" fill="#2696FE"/>
<path d="M51.0268 71.7345V55.7636C51.0268 54.8708 50.3029 54.147 49.4101 54.147C48.5173 54.147 47.7935 54.8708 47.7935 55.7636V71.9303C47.7998 72.2934 47.9308 72.6431 48.1637 72.921C48.196 73.2817 48.3508 73.6212 48.6018 73.8817L55.4616 80.7399C55.8673 81.1598 56.468 81.328 57.0332 81.1804C57.5984 81.0327 58.0405 80.5907 58.1881 80.0255C58.3357 79.4603 58.1676 78.8596 57.7476 78.4538L51.0268 71.7345Z" fill="#2696FE"/>
</g>
</svg>
