<svg width="21" height="21" viewBox="0 0 21 21" fill="none" xmlns="http://www.w3.org/2000/svg">
<g clip-path="url(#clip0)">
<path d="M20.3843 7.52057L13.9062 6.91975L11.3329 0.944413C11.1528 0.526016 10.5596 0.526016 10.3794 0.944413L7.80616 6.91979L1.32809 7.52057C0.874493 7.56264 0.691173 8.12682 1.0334 8.42744L5.92112 12.7213L4.49074 19.068C4.39058 19.5123 4.8705 19.861 5.26218 19.6284L10.8562 16.3068L16.4502 19.6284C16.8419 19.861 17.3218 19.5123 17.2217 19.068L15.7913 12.7213L20.679 8.42744C21.0212 8.12682 20.8379 7.56264 20.3843 7.52057Z" fill="#FFDC64"/>
<path d="M11.3329 0.944413C11.1528 0.526016 10.5596 0.526016 10.3794 0.944413L7.80616 6.91979L1.32809 7.52057C0.874493 7.56264 0.691173 8.12682 1.0334 8.42744L5.92112 12.7213L4.49074 19.068C4.39058 19.5123 4.8705 19.861 5.26218 19.6284L6.51073 18.8871C6.68355 11.7738 9.98862 6.76452 12.6053 3.89894L11.3329 0.944413Z" fill="#FFC850"/>
</g>
<defs>
<clipPath id="clip0">
<rect width="20" height="20" fill="white" transform="translate(0.856201 0.166992)"/>
</clipPath>
</defs>
</svg>
