<svg width="31" height="31" viewBox="0 0 31 31" fill="none" xmlns="http://www.w3.org/2000/svg">
<g>
<path d="M15.6133 30.6194C23.8976 30.6194 30.6133 23.9037 30.6133 15.6194C30.6133 7.33511 23.8976 0.619385 15.6133 0.619385C7.32901 0.619385 0.613281 7.33511 0.613281 15.6194C0.613281 23.9037 7.32901 30.6194 15.6133 30.6194Z" fill="#75B73B"/>
<path d="M24.0118 11.8063C22.5128 10.3073 20.7367 8.97024 18.7444 8.24561C15.5528 7.24824 11.2779 8.0235 10.0038 11.6411C9.97183 11.7319 9.91723 11.8259 9.82496 11.8534C9.65447 11.9041 9.48377 11.9593 9.37462 12.0997C7.2095 14.8854 8.73922 18.2245 8.54234 21.2759C8.42757 23.113 8.16871 25.2031 9.47092 26.504L11.8836 28.9141C12.889 29.9185 14.192 30.6193 15.6131 30.6193C20.2683 30.6193 24.4279 28.4986 27.1789 25.1706C30.2847 21.4136 28.3433 16.138 24.8965 12.6911L24.0118 11.8063Z" fill="#52891D"/>
<path d="M15.1935 6.97364C10.6215 7.19114 7.01361 10.9988 7.02738 15.5758C7.03526 18.1785 7.6758 20.8376 7.15065 23.3867L7.05041 23.8732C7.00113 24.1127 7.21699 24.3223 7.45477 24.2659L8.06532 24.1212C10.4722 23.551 13.0063 24.0965 15.4796 24.1343C20.1526 24.2057 24.049 20.4953 24.1948 15.824C24.3508 10.8167 20.2182 6.73428 15.1935 6.97364ZM20.367 20.3031C19.0973 21.5727 17.409 22.2721 15.6132 22.2721C14.5618 22.2721 13.5551 22.0361 12.6211 21.5709L12.4761 21.4987C12.1798 21.351 11.841 21.3119 11.5188 21.3882C10.5121 21.6267 9.59812 20.7393 9.80687 19.7259L9.81628 19.6803C9.88249 19.3588 9.83728 19.0244 9.68807 18.732L9.62121 18.601C9.13629 17.6515 8.89043 16.6248 8.89043 15.5492C8.89043 13.7535 9.58975 12.0653 10.8594 10.7955C12.1178 9.53706 13.8336 8.82655 15.6134 8.82655C17.4089 8.82655 19.0972 9.52587 20.3669 10.7955C21.6366 12.0652 22.3359 13.7535 22.3359 15.5491C22.336 17.3289 21.6254 19.0447 20.367 20.3031Z" fill="white"/>
<path d="M19.7801 17.4113L18.1169 16.9338C17.8984 16.8711 17.6629 16.9332 17.5036 17.0955L17.0968 17.5098C16.9254 17.6846 16.6652 17.7407 16.4382 17.6489C15.6515 17.3305 13.9965 15.8589 13.5741 15.1231C13.452 14.9108 13.4722 14.6455 13.622 14.4515L13.9769 13.9922C14.116 13.8123 14.1453 13.5705 14.0534 13.3625L13.3537 11.78C13.1862 11.401 12.7018 11.2906 12.3854 11.5583C11.9212 11.9509 11.3705 12.5473 11.3037 13.2083C11.1856 14.3735 11.6854 15.8423 13.5749 17.606C15.7579 19.6438 17.5062 19.9128 18.6446 19.6371C19.2902 19.4808 19.8062 18.854 20.1316 18.3407C20.3538 17.9905 20.1782 17.5257 19.7801 17.4113Z" fill="white"/>
<path d="M22.1035 9.92887C21.7724 9.5469 21.1906 9.56338 20.8376 9.92519L20.3599 10.4147C20.2562 10.5211 20.2619 10.6907 20.3669 10.7958C21.6367 12.0655 22.3359 13.7538 22.3359 15.5493C22.3359 17.3291 21.6253 19.0448 20.3669 20.3033C19.0973 21.5729 17.4089 22.2723 15.6132 22.2723C14.5618 22.2723 13.5551 22.0363 12.6211 21.5711L12.4761 21.4989C12.1797 21.3512 11.841 21.3121 11.5188 21.3884L9.4425 21.8802C9.40359 21.8895 9.36828 21.8552 9.37635 21.816C9.38737 21.7625 9.32181 21.7277 9.28367 21.7668L7.40652 23.6906C7.19373 23.9087 7.15814 24.336 7.45463 24.2659L8.06519 24.1212C10.4721 23.551 13.0062 24.0965 15.4795 24.1342C20.1525 24.2057 24.049 20.4953 24.1947 15.824C24.265 13.5674 23.4643 11.4988 22.1035 9.92887Z" fill="#D1D1D1"/>
<path d="M19.7801 17.4113L18.117 16.9338C17.8985 16.8712 17.6629 16.9332 17.5036 17.0956L17.0968 17.5098C16.9254 17.6847 16.6652 17.7407 16.4382 17.6489C16.1264 17.5227 15.6781 17.2152 15.2243 16.8442C14.8736 16.5575 14.3579 16.5664 14.0415 16.8906L13.5705 17.3733C13.5068 17.4387 13.5083 17.5437 13.575 17.6061C15.758 19.6438 17.5062 19.9129 18.6447 19.6372C19.2903 19.4809 19.8063 18.8541 20.1317 18.3407C20.3538 17.9905 20.1782 17.5257 19.7801 17.4113Z" fill="#D1D1D1"/>
</g>
</svg>
