<svg width="26" height="26" viewBox="0 0 26 26" fill="none" xmlns="http://www.w3.org/2000/svg">
<g>
<path d="M25.0681 2.76331C24.5779 2.65812 24.0956 2.97043 23.9906 3.46045L23.3312 6.53788C21.2315 2.95598 17.3777 0.708252 13.1538 0.708252C6.64896 0.708252 1.3569 6.00023 1.3569 12.5052C1.3569 13.0063 1.76315 13.4126 2.26436 13.4126C2.76549 13.4126 3.17181 13.0063 3.17181 12.5052C3.17181 7.00105 7.6497 2.52316 13.1538 2.52316C16.7422 2.52316 20.0153 4.43992 21.7873 7.49187L18.7619 6.84351C18.2718 6.73847 17.7894 7.0507 17.6845 7.54073C17.5796 8.03075 17.8917 8.51323 18.3818 8.6182L23.575 9.7311C23.6632 9.75005 23.7528 9.7555 23.8412 9.74809C23.9883 9.73568 24.1318 9.6874 24.2581 9.60566C24.4602 9.47491 24.602 9.26925 24.6525 9.03396L25.7655 3.84071C25.8703 3.35076 25.5581 2.86843 25.0681 2.76331Z" fill="black"/>
<path d="M24.155 11.3158C23.6541 11.3323 23.2614 11.7518 23.2779 12.2526C23.3659 14.9175 22.411 17.457 20.5888 19.4037C18.7667 21.3501 16.2957 22.4707 13.6309 22.5587C13.5198 22.5623 13.4093 22.5641 13.2987 22.5641C9.82163 22.564 6.61853 20.7582 4.80958 17.8323L7.96367 18.6781C8.44774 18.8078 8.94539 18.5207 9.07519 18.0365C9.205 17.5524 8.9178 17.0549 8.43373 16.9249L3.30379 15.5495C3.07133 15.4873 2.82356 15.5198 2.61521 15.64C2.40671 15.7603 2.25462 15.9585 2.19226 16.191L0.816926 21.3211C0.687123 21.8051 0.974314 22.3027 1.45839 22.4326C1.53715 22.4537 1.61614 22.4639 1.69396 22.4639C2.09455 22.4639 2.46123 22.1964 2.56991 21.7911L3.34299 18.9078C5.49358 22.2942 9.23701 24.3792 13.2983 24.379C13.4287 24.379 13.5599 24.3769 13.6909 24.3726C16.8402 24.2685 19.7605 22.9443 21.9139 20.6439C24.0674 18.3435 25.1959 15.3421 25.0919 12.1927C25.0754 11.692 24.6557 11.298 24.155 11.3158Z" fill="black"/>
</g>
</svg>
