<svg width="101" height="101" viewBox="0 0 101 101" fill="none" xmlns="http://www.w3.org/2000/svg">
<g>
<path d="M37.2092 85.305C37.2546 82.9854 37.9204 80.7195 39.1382 78.7441H61.8761C62.8593 80.3346 63.4836 82.12 63.7053 83.9768C63.7808 84.5224 63.8206 85.072 63.823 85.6233C63.81 92.6932 58.2794 98.5226 51.2192 98.9083C50.9967 98.9196 50.7491 98.9318 50.5145 98.9318C50.2798 98.9318 50.0322 98.9196 49.7959 98.8969C23.7196 98.5502 2.66316 77.4971 2.31323 51.4199C2.28969 51.1836 2.27832 50.9376 2.27832 50.7014C2.27832 50.4659 2.28969 50.2215 2.30105 49.9966C2.68833 42.9372 8.51852 37.4074 15.5885 37.3928C16.1389 37.3961 16.6878 37.435 17.2326 37.5114C18.642 37.6762 20.0141 38.0781 21.2896 38.6983V62.7068C19.6073 63.5171 17.7708 63.9579 15.9043 64.0002C19.4344 73.9491 27.2611 81.7757 37.2092 85.305Z" fill="#7DB8FE" fill-opacity="0.7"/>
<path d="M64.5213 68.7678H31.2662V35.5127C31.2662 17.146 46.1554 2.25757 64.5213 2.25757C82.8879 2.25757 97.7764 17.146 97.7764 35.5127C97.7764 53.8793 82.8879 68.7678 64.5213 68.7678ZM64.5213 18.8851C55.3388 18.8851 47.8937 26.3294 47.8937 35.5127C47.8937 44.696 55.3388 52.1402 64.5213 52.1402C73.7046 52.1402 81.1488 44.696 81.1488 35.5127C81.1391 26.3334 73.7005 18.8949 64.5213 18.8851Z" fill="#7DB8FE" fill-opacity="0.7"/>
<path d="M50.5063 100.595C50.7686 100.595 51.0462 100.581 51.2979 100.568C59.2374 100.131 65.4581 93.5768 65.4792 85.6251C65.476 84.987 65.4305 84.3505 65.3412 83.7196C65.092 81.642 64.3913 79.6447 63.2896 77.8667C62.9859 77.3779 62.4509 77.0808 61.8761 77.0816H39.1382C38.5618 77.0816 38.0275 77.3804 37.7247 77.8699C36.761 79.4304 36.1001 81.1581 35.7762 82.9629C27.883 79.6074 21.5989 73.3225 18.2458 65.4293C19.5513 65.1931 20.8187 64.7814 22.013 64.205C22.5878 63.9281 22.9523 63.3468 22.9523 62.7087V38.6986C22.954 38.0629 22.5927 37.4815 22.0219 37.2023C20.5792 36.5008 19.0285 36.0453 17.4355 35.857C16.8355 35.7741 16.2307 35.7311 15.625 35.7271C7.66196 35.7327 1.08807 41.9518 0.641533 49.9019V49.9108C0.62854 50.1601 0.617172 50.4361 0.617172 50.6983C0.617172 50.9882 0.63179 51.2886 0.660202 51.5768C0.937057 78.5625 22.7818 100.352 49.7683 100.56C50.0135 100.585 50.2595 100.596 50.5063 100.595ZM60.9067 80.4071C61.7096 82.0414 62.1359 83.8357 62.1537 85.6568C62.1204 91.8304 57.2848 96.9104 51.1201 97.2474C50.732 97.2758 50.3431 97.2758 49.9559 97.2474C24.6768 97.0915 4.2033 76.6748 3.97597 51.3974C3.94918 51.0775 3.94106 50.8851 3.94106 50.7016C3.94106 50.5189 3.95081 50.2794 3.96217 50.0837C4.30641 43.9085 9.40591 39.0729 15.5901 39.0558C16.0545 39.0591 16.5181 39.0915 16.9784 39.154C17.8837 39.2596 18.7727 39.4731 19.6268 39.7914V61.6183C18.4228 62.0705 17.1505 62.3157 15.8645 62.3449C15.3319 62.3579 14.8383 62.625 14.5363 63.0635C14.2342 63.5027 14.1604 64.0588 14.3382 64.5614C18.0095 74.9975 26.2169 83.2041 36.6538 86.8738C37.158 87.0524 37.7166 86.9777 38.1566 86.6733C38.5959 86.3688 38.8622 85.8719 38.8719 85.3369C38.906 83.6214 39.3282 81.9359 40.1076 80.4071H60.9067Z" fill="#2696FE"/>
<path d="M31.266 70.4305H64.5211C83.806 70.4305 99.439 54.7975 99.439 35.5126C99.439 16.2277 83.806 0.594727 64.5211 0.594727C45.237 0.594727 29.6033 16.2277 29.6033 35.5126V68.7677C29.6033 69.6859 30.3478 70.4305 31.266 70.4305ZM64.5211 3.92024C81.9695 3.92024 96.1135 18.0642 96.1135 35.5126C96.1135 52.961 81.9695 67.1049 64.5211 67.1049H32.9288V35.5126C32.9482 18.0723 47.0817 3.93972 64.5211 3.92024Z" fill="#2696FE"/>
<path d="M64.5212 53.803C74.6228 53.803 82.8115 45.6143 82.8115 35.5127C82.8115 25.4112 74.6228 17.2224 64.5212 17.2224C54.4205 17.2224 46.2309 25.4112 46.2309 35.5127C46.2431 45.6094 54.4253 53.7909 64.5212 53.803ZM64.5212 20.5479C72.7863 20.5479 79.486 27.2477 79.486 35.5127C79.486 43.7778 72.7863 50.4775 64.5212 50.4775C56.257 50.4775 49.5564 43.7778 49.5564 35.5127C49.5662 27.2517 56.2602 20.5569 64.5212 20.5479Z" fill="#2696FE"/>
<path d="M54.5446 33.8498H62.8584V25.536C62.8584 24.6178 63.6029 23.8733 64.5211 23.8733C65.4402 23.8733 66.1839 24.6178 66.1839 25.536V33.8498H74.4976C75.4167 33.8498 76.1604 34.5943 76.1604 35.5126C76.1604 36.4308 75.4167 37.1753 74.4976 37.1753H66.1839V45.4891C66.1839 46.4074 65.4402 47.1519 64.5211 47.1519C63.6029 47.1519 62.8584 46.4074 62.8584 45.4891V37.1753H54.5446C53.6263 37.1753 52.8818 36.4308 52.8818 35.5126C52.8818 34.5943 53.6263 33.8498 54.5446 33.8498Z" fill="#2696FE"/>
</g>
</svg>
