<svg width="100" height="101" viewBox="0 0 100 101" fill="none" xmlns="http://www.w3.org/2000/svg">
<path d="M89.0625 11.5322H82.8125V17.7822H89.0625V64.6572H10.9375V17.7822H17.1875V11.5322H10.9375C9.2799 11.5322 7.69018 12.1907 6.51808 13.3628C5.34598 14.5349 4.6875 16.1246 4.6875 17.7822V67.7822C4.6875 69.4398 5.34598 71.0295 6.51808 72.2016C7.69018 73.3737 9.2799 74.0322 10.9375 74.0322H89.0625C90.7201 74.0322 92.3098 73.3737 93.4819 72.2016C94.654 71.0295 95.3125 69.4398 95.3125 67.7822V17.7822C95.3125 16.1246 94.654 14.5349 93.4819 13.3628C92.3098 12.1907 90.7201 11.5322 89.0625 11.5322Z" fill="#7DB8FE" fill-opacity="0.7"/>
<path d="M79.6875 5.28223H20.3125C19.4837 5.28223 18.6888 5.61147 18.1028 6.19752C17.5167 6.78357 17.1875 7.57842 17.1875 8.40723V14.6572H82.8125V8.40723C82.8125 7.57842 82.4833 6.78357 81.8972 6.19752C81.3112 5.61147 80.5163 5.28223 79.6875 5.28223Z" fill="#7DB8FE" fill-opacity="0.7"/>
<path d="M39.0625 74.0322H60.9375V86.5322H39.0625V74.0322Z" fill="#7DB8FE" fill-opacity="0.7"/>
<path d="M21.875 86.5322C20.6318 86.5322 19.4395 87.0261 18.5604 87.9052C17.6814 88.7842 17.1875 89.9765 17.1875 91.2197C17.1875 92.4629 17.6814 93.6552 18.5604 94.5343C19.4395 95.4134 20.6318 95.9072 21.875 95.9072H78.125C79.3682 95.9072 80.5605 95.4134 81.4396 94.5343C82.3186 93.6552 82.8125 92.4629 82.8125 91.2197C82.8125 89.9765 82.3186 88.7842 81.4396 87.9052C80.5605 87.0261 79.3682 86.5322 78.125 86.5322H21.875Z" fill="#7DB8FE" fill-opacity="0.7"/>
<path d="M21.875 9.96973C21.875 9.10678 22.5746 8.40723 23.4375 8.40723C24.3004 8.40723 25 9.10678 25 9.96973C25 10.8327 24.3004 11.5322 23.4375 11.5322C22.5746 11.5322 21.875 10.8327 21.875 9.96973Z" fill="#2696FE"/>
<path d="M28.125 9.96973C28.125 9.10678 28.8246 8.40723 29.6875 8.40723C30.5504 8.40723 31.25 9.10678 31.25 9.96973C31.25 10.8327 30.5504 11.5322 29.6875 11.5322C28.8246 11.5322 28.125 10.8327 28.125 9.96973Z" fill="#2696FE"/>
<path d="M34.375 9.96973C34.375 9.10678 35.0746 8.40723 35.9375 8.40723C36.8004 8.40723 37.5 9.10678 37.5 9.96973C37.5 10.8327 36.8004 11.5322 35.9375 11.5322C35.0746 11.5322 34.375 10.8327 34.375 9.96973Z" fill="#2696FE"/>
<path d="M89.0625 9.96973H84.375V8.40723C84.375 7.16402 83.8811 5.97174 83.0021 5.09266C82.123 4.21359 80.9307 3.71973 79.6875 3.71973H20.3125C19.0693 3.71973 17.877 4.21359 16.9979 5.09266C16.1189 5.97174 15.625 7.16402 15.625 8.40723V9.96973H10.9375C8.86626 9.97221 6.88056 10.7961 5.41597 12.2607C3.95138 13.7253 3.12748 15.711 3.125 17.7822V67.7822C3.12748 69.8535 3.95138 71.8392 5.41597 73.3038C6.88056 74.7683 8.86626 75.5922 10.9375 75.5947H37.5V84.9697H21.875C20.2174 84.9697 18.6277 85.6282 17.4556 86.8003C16.2835 87.9724 15.625 89.5621 15.625 91.2197C15.625 92.8773 16.2835 94.467 17.4556 95.6391C18.6277 96.8112 20.2174 97.4697 21.875 97.4697H78.125C79.7826 97.4697 81.3723 96.8112 82.5444 95.6391C83.7165 94.467 84.375 92.8773 84.375 91.2197C84.375 89.5621 83.7165 87.9724 82.5444 86.8003C81.3723 85.6282 79.7826 84.9697 78.125 84.9697H62.5V75.5947H89.0625C91.1337 75.5922 93.1194 74.7683 94.584 73.3038C96.0486 71.8392 96.8725 69.8535 96.875 67.7822V17.7822C96.8725 15.711 96.0486 13.7253 94.584 12.2607C93.1194 10.7961 91.1337 9.97221 89.0625 9.96973ZM84.375 19.3447H87.5V63.0947H84.375V19.3447ZM18.75 8.40723C18.75 7.99283 18.9146 7.5954 19.2076 7.30237C19.5007 7.00935 19.8981 6.84473 20.3125 6.84473H79.6875C80.1019 6.84473 80.4993 7.00935 80.7924 7.30237C81.0854 7.5954 81.25 7.99283 81.25 8.40723V13.0947H18.75V8.40723ZM18.75 16.2197H81.25V63.0947H18.75V16.2197ZM81.25 91.2197C81.25 92.0485 80.9208 92.8434 80.3347 93.4294C79.7487 94.0155 78.9538 94.3447 78.125 94.3447H21.875C21.0462 94.3447 20.2513 94.0155 19.6653 93.4294C19.0792 92.8434 18.75 92.0485 18.75 91.2197C18.75 90.3909 19.0792 89.5961 19.6653 89.01C20.2513 88.424 21.0462 88.0947 21.875 88.0947H78.125C78.9538 88.0947 79.7487 88.424 80.3347 89.01C80.9208 89.5961 81.25 90.3909 81.25 91.2197ZM59.375 84.9697H40.625V75.5947H59.375V84.9697ZM93.75 67.7822C93.75 69.0254 93.2561 70.2177 92.3771 71.0968C91.498 71.9759 90.3057 72.4697 89.0625 72.4697H10.9375C9.6943 72.4697 8.50201 71.9759 7.62294 71.0968C6.74386 70.2177 6.25 69.0254 6.25 67.7822V17.7822C6.25 16.539 6.74386 15.3467 7.62294 14.4677C8.50201 13.5886 9.6943 13.0947 10.9375 13.0947H15.625V16.2197H10.9375C10.5231 16.2197 10.1257 16.3843 9.83265 16.6774C9.53962 16.9704 9.375 17.3678 9.375 17.7822V64.6572C9.375 65.0716 9.53962 65.4691 9.83265 65.7621C10.1257 66.0551 10.5231 66.2197 10.9375 66.2197H89.0625C89.4769 66.2197 89.8743 66.0551 90.1674 65.7621C90.4604 65.4691 90.625 65.0716 90.625 64.6572V17.7822C90.625 17.3678 90.4604 16.9704 90.1674 16.6774C89.8743 16.3843 89.4769 16.2197 89.0625 16.2197H84.375V13.0947H89.0625C90.3057 13.0947 91.498 13.5886 92.3771 14.4677C93.2561 15.3467 93.75 16.539 93.75 17.7822V67.7822ZM15.625 19.3447V63.0947H12.5V19.3447H15.625Z" fill="#2696FE"/>
<g>
<path d="M35.875 52.1635C36.9058 52.1635 37.7417 51.3576 37.7417 50.3635H34.0083C34.0083 51.3576 34.8439 52.1635 35.875 52.1635Z" fill="#7DB8FE" fill-opacity="0.7"/>
<path d="M35.875 35.9633V44.9634H38.675C39.1897 44.9619 39.6067 44.5598 39.6083 44.0634V43.0599C39.6008 42.5196 39.8464 42.005 40.2764 41.6585C41.9337 40.3711 42.8905 38.4245 42.875 36.3725C42.8632 32.6443 39.7197 29.6314 35.8535 29.6429C31.9876 29.6541 28.8631 32.6854 28.8749 36.4133C28.8719 38.4355 29.813 40.3515 31.4373 41.6308C31.875 41.9643 32.1334 42.4701 32.1416 43.008V44.0634C32.143 44.5598 32.56 44.9619 33.0749 44.9634H35.875V35.9633Z" fill="#7DB8FE" fill-opacity="0.7"/>
<path d="M35.875 28.3133C35.6171 28.3133 35.4083 28.1118 35.4083 27.8633V26.0633C35.4083 25.8148 35.6171 25.6133 35.875 25.6133C36.1327 25.6133 36.3417 25.8148 36.3417 26.0633V27.8633C36.3417 28.1118 36.1327 28.3133 35.875 28.3133Z" fill="#2696FE"/>
<path d="M31.4416 29.4585C31.2745 29.4587 31.1203 29.3728 31.0369 29.2335L30.1035 27.6752C30.0188 27.5359 30.0181 27.3634 30.1015 27.2234C30.1849 27.0835 30.3396 26.9973 30.5071 26.9976C30.6746 26.998 30.829 27.0848 30.9118 27.2252L31.8451 28.7835C31.9285 28.9226 31.9285 29.0942 31.8453 29.2333C31.7619 29.3726 31.6081 29.4583 31.4416 29.4585Z" fill="#2696FE"/>
<path d="M28.196 32.5884C28.1139 32.5886 28.0335 32.5678 27.9626 32.5282L26.3455 31.6282C26.1242 31.503 26.0492 31.2292 26.1775 31.0149C26.3056 30.8007 26.5893 30.7264 26.8121 30.8486L28.4293 31.7486C28.612 31.8506 28.7014 32.0582 28.6467 32.2549C28.592 32.4515 28.4072 32.5884 28.196 32.5884Z" fill="#2696FE"/>
<path d="M27.0083 36.8634H25.1416C24.8837 36.8634 24.6749 36.6619 24.6749 36.4134C24.6749 36.1649 24.8837 35.9634 25.1416 35.9634H27.0083C27.266 35.9634 27.4749 36.1649 27.4749 36.4134C27.4749 36.6619 27.266 36.8634 27.0083 36.8634Z" fill="#2696FE"/>
<path d="M26.5797 42.0384C26.3687 42.0384 26.1837 41.9015 26.129 41.7048C26.0743 41.5081 26.1636 41.3005 26.3464 41.1985L27.9635 40.2985C28.108 40.217 28.2866 40.2161 28.432 40.2966C28.5772 40.377 28.6665 40.5264 28.6663 40.6879C28.6658 40.8494 28.5758 40.9982 28.4302 41.0781L26.813 41.9781C26.7422 42.0177 26.6617 42.0386 26.5797 42.0384Z" fill="#2696FE"/>
<path d="M45.1702 42.0384C45.0882 42.0386 45.0077 42.0177 44.9369 41.9781L43.3197 41.0781C43.1741 40.9982 43.0841 40.8494 43.0839 40.6879C43.0834 40.5264 43.1727 40.377 43.3179 40.2966C43.4633 40.2161 43.6419 40.217 43.7864 40.2985L45.4035 41.1985C45.5863 41.3005 45.6756 41.5081 45.6209 41.7048C45.5662 41.9015 45.3812 42.0384 45.1702 42.0384Z" fill="#2696FE"/>
<path d="M46.6084 36.8634H44.7417C44.4838 36.8634 44.275 36.6619 44.275 36.4134C44.275 36.1649 44.4838 35.9634 44.7417 35.9634H46.6084C46.8661 35.9634 47.075 36.1649 47.075 36.4134C47.075 36.6619 46.8661 36.8634 46.6084 36.8634Z" fill="#2696FE"/>
<path d="M43.5539 32.5884C43.3427 32.5884 43.1579 32.4515 43.1032 32.2549C43.0485 32.0582 43.1379 31.8506 43.3206 31.7486L44.9378 30.8486C45.1606 30.7264 45.4443 30.8007 45.5726 31.0149C45.7007 31.2292 45.6257 31.503 45.4045 31.6282L43.7873 32.5282C43.7164 32.5678 43.636 32.5886 43.5539 32.5884Z" fill="#2696FE"/>
<path d="M40.3084 29.4585C40.1416 29.4583 39.9878 29.3726 39.9044 29.2333C39.8212 29.0942 39.8212 28.9226 39.9046 28.7835L40.838 27.2252C40.9207 27.0848 41.0752 26.998 41.2426 26.9976C41.4101 26.9973 41.5649 27.0835 41.6483 27.2234C41.7316 27.3634 41.731 27.5359 41.6462 27.6752L40.7129 29.2335C40.6295 29.3728 40.4752 29.4587 40.3084 29.4585Z" fill="#2696FE"/>
<path d="M35.875 34.6135C35.6171 34.6135 35.4083 34.412 35.4083 34.1635V33.2635C35.4083 33.015 35.6171 32.8135 35.875 32.8135C36.1327 32.8135 36.3417 33.015 36.3417 33.2635V34.1635C36.3417 34.412 36.1327 34.6135 35.875 34.6135Z" fill="#2696FE"/>
<path d="M36.2376 29.222C33.0215 29.073 30.0688 30.9286 28.9114 33.8259C27.7543 36.7231 28.6533 40.0093 31.142 41.9792C31.471 42.2275 31.6668 42.6054 31.675 43.0082V44.0635C31.6773 44.6335 32.051 45.1406 32.6083 45.3307V45.8635C32.6095 46.1966 32.7391 46.5174 32.9722 46.7635C32.4869 47.2722 32.4869 48.0549 32.9722 48.5636C32.6519 48.9006 32.5322 49.3722 32.6553 49.8136C32.7781 50.2552 33.1265 50.6055 33.5788 50.7424C33.7673 51.8226 34.7368 52.6134 35.8725 52.6134C37.0082 52.6134 37.978 51.8226 38.1662 50.7424C38.6194 50.6066 38.969 50.2568 39.0929 49.8149C39.2167 49.3733 39.0977 48.9013 38.7776 48.5636C39.2629 48.0549 39.2629 47.2722 38.7776 46.7635C39.0107 46.5174 39.1403 46.1966 39.1417 45.8635V45.3307C39.6991 45.1406 40.0725 44.6335 40.075 44.0635V43.0605C40.0687 42.6562 40.2503 42.2703 40.57 42.0088C42.34 40.6364 43.3611 38.5584 43.3417 36.3684C43.2741 32.5623 40.1783 29.4481 36.2376 29.222ZM38.2084 45.4135V45.8635C38.2084 46.112 37.9994 46.3135 37.7417 46.3135H34.0083C33.7504 46.3135 33.5417 46.112 33.5417 45.8635V45.4135H38.2084ZM38.2084 47.6635C38.2084 47.9121 37.9994 48.1136 37.7417 48.1136H34.0083C33.7504 48.1136 33.5417 47.9121 33.5417 47.6635C33.5417 47.415 33.7504 47.2135 34.0083 47.2135H37.7417C37.9994 47.2135 38.2084 47.415 38.2084 47.6635ZM35.875 51.7136C35.2819 51.7129 34.7532 51.3526 34.5548 50.8136H37.195C36.9966 51.3526 36.4682 51.7129 35.875 51.7136ZM37.7417 49.9136H34.0083C33.7504 49.9136 33.5417 49.7121 33.5417 49.4636C33.5417 49.215 33.7504 49.0136 34.0083 49.0136H37.7417C37.9994 49.0136 38.2084 49.215 38.2084 49.4636C38.2084 49.7121 37.9994 49.9136 37.7417 49.9136ZM39.9839 41.3086C39.442 41.739 39.1321 42.3835 39.1417 43.0605V44.0635C39.1417 44.312 38.9328 44.5135 38.675 44.5135H36.3417V35.9635C36.3417 35.7149 36.1327 35.5135 35.875 35.5135C35.6171 35.5135 35.4083 35.7149 35.4083 35.9635V44.5135H33.075C32.8171 44.5135 32.6083 44.312 32.6083 44.0635V43.0082C32.6006 42.3354 32.2793 41.7017 31.7333 41.2824C29.6016 39.5949 28.7986 36.7982 29.7267 34.2937C30.6546 31.7893 33.1137 30.1165 35.8716 30.1134C35.9785 30.1134 36.0858 30.1156 36.1931 30.1211C39.6416 30.3189 42.3503 33.0446 42.4084 36.3752C42.425 38.2906 41.5318 40.1082 39.9839 41.3086Z" fill="#2696FE"/>
</g>
<rect x="52.0494" y="27.9333" width="22.3048" height="5.71266" rx="1" fill="#7DB8FE" fill-opacity="0.7"/>
<rect x="52.5494" y="28.4333" width="21.3048" height="4.71266" rx="0.5" stroke="#2696FE"/>
<rect x="56.0494" y="36.7991" width="18.3048" height="2.13203" rx="1.06601" fill="#2696FE"/>
<rect x="56.0494" y="41.3413" width="18.3048" height="2.13203" rx="1.06601" fill="#2696FE"/>
<rect x="56.0494" y="46.165" width="18.3048" height="2.13203" rx="1.06601" fill="#2696FE"/>
<rect x="56.0494" y="50.4812" width="18.3048" height="2.13203" rx="1.06601" fill="#2696FE"/>
<rect x="52.0494" y="36.7991" width="2.28293" height="2.13203" rx="1.06601" fill="#2696FE"/>
<rect x="52.0494" y="41.3413" width="2.28293" height="2.13203" rx="1.06601" fill="#2696FE"/>
<rect x="52.0494" y="46.165" width="2.28293" height="2.13203" rx="1.06601" fill="#2696FE"/>
<rect x="52.0494" y="50.4812" width="2.28293" height="2.13203" rx="1.06601" fill="#2696FE"/>
</svg>
