<svg width="100" height="92" viewBox="0 0 100 92" xmlns="http://www.w3.org/2000/svg">
  <g>
    <path
      d="M5.39179 44.4624H10.7904C11.6362 44.4624 12.322 45.1481 12.322 45.9939V88.8777C12.322 89.7235 13.0077 90.4092 13.8535 90.4092H35.2954C36.1412 90.4092 36.8269 89.7235 36.8269 88.8777V64.3727C36.8269 63.5269 37.5127 62.8411 38.3585 62.8411H53.6741C54.5199 62.8411 55.2057 63.5269 55.2057 64.3727V88.8777C55.2057 89.7235 55.8914 90.4092 56.7372 90.4092H78.1791C79.0249 90.4092 79.7107 89.7235 79.7107 88.8777V45.9939C79.7107 45.1481 80.3964 44.4624 81.2422 44.4624H86.6408C87.2668 44.4661 87.8314 44.0885 88.0669 43.5089C88.3033 42.9293 88.1627 42.2645 87.7132 41.83L47.0887 2.60543C46.4949 2.0311 45.5534 2.0311 44.9596 2.60543L4.32688 41.83C3.87818 42.2638 3.73759 42.9263 3.97166 43.5052C4.20573 44.084 4.76735 44.4624 5.39179 44.4624Z"
      fill="#7DB8FE" fill-opacity="0.7"/>
    <path
      d="M78.1791 91.9409H56.7373C55.0457 91.9409 53.6742 90.5701 53.6742 88.8778V64.3728H38.3585V88.8778C38.3585 90.5701 36.987 91.9409 35.2954 91.9409H13.8536C12.162 91.9409 10.7904 90.5701 10.7904 88.8778V45.994H5.39184C4.14296 45.994 3.01897 45.2365 2.55157 44.0781C2.08343 42.9205 2.36611 41.5945 3.26426 40.7271L43.8888 1.50398C45.0726 0.350073 46.9601 0.350073 48.1439 1.50398L88.77 40.7286C89.6673 41.5968 89.9485 42.922 89.4804 44.0796C89.013 45.2365 87.889 45.994 86.6409 45.994H81.2423V88.8778C81.2423 90.5701 79.8707 91.9409 78.1791 91.9409ZM38.3585 61.3097H53.6742C55.3658 61.3097 56.7373 62.6812 56.7373 64.3728V88.8778H78.1791V45.994C78.1791 44.3025 79.5507 42.9309 81.2423 42.9309H86.6566L46.0164 3.70784L5.39184 42.9309H10.7904C12.482 42.9309 13.8536 44.3025 13.8536 45.994V88.8778H35.2954V64.3728C35.2954 62.6812 36.6669 61.3097 38.3585 61.3097Z"
      fill="#2696FE"/>
  </g>
  <g>
    <circle cx="76.0955" cy="26.2591" r="21.7462" stroke="#2696FE" stroke-width="3"/>
    <path
      d="M75.9553 3.71716C63.5283 3.71716 53.4492 13.7962 53.4492 26.2232C53.4492 38.6502 63.5283 48.7293 75.9553 48.7293C88.3823 48.7293 98.4613 38.6502 98.4613 26.2232C98.4613 13.7962 88.3823 3.71716 75.9553 3.71716Z"
      fill="white"/>
    <path
      d="M75.9554 16.1343C70.3967 16.1245 65.0612 18.3269 61.1422 22.275C60.8319 22.5755 60.822 23.0606 61.1229 23.3713C61.4234 23.6817 61.9084 23.6911 62.2188 23.3906C62.2286 23.3808 62.2286 23.3808 62.2385 23.3713C69.8146 15.7948 82.0863 15.7948 89.6628 23.3615C89.6628 23.3615 89.6628 23.3615 89.6723 23.3713C89.983 23.6718 90.468 23.6623 90.7685 23.3516C91.0596 23.0511 91.0596 22.5755 90.7685 22.275C86.8495 18.3269 81.5141 16.1245 75.9554 16.1343Z"
      fill="#2696FE"/>
    <path
      d="M75.9551 20.7907C71.6283 20.7808 67.4861 22.4982 64.4303 25.5634C64.1298 25.8738 64.1393 26.3588 64.4497 26.6597C64.7506 26.9507 65.2257 26.9507 65.5266 26.6597C71.2793 20.8976 80.6115 20.8976 86.3642 26.6498L86.3737 26.6597C86.6844 26.9606 87.1694 26.9507 87.4699 26.6404C87.761 26.3395 87.761 25.8643 87.4699 25.5634C84.424 22.4982 80.2818 20.7808 75.9551 20.7907Z"
      fill="#2696FE"/>
    <path
      d="M75.9555 30.1035C74.1025 30.1035 72.3275 30.8311 71.0179 32.1407C70.717 32.4511 70.7269 32.9361 71.0372 33.237C71.3377 33.528 71.8133 33.528 72.1138 33.237C74.2385 31.1123 77.6823 31.1123 79.8067 33.237C80.1075 33.5474 80.5926 33.5474 80.9029 33.2563C81.2133 32.9554 81.2133 32.4704 80.9223 32.16C80.9128 32.1506 80.9128 32.1506 80.9029 32.1407C79.5835 30.8311 77.8085 30.1035 75.9555 30.1035Z"
      fill="#2696FE"/>
    <path
      d="M82.0666 27.1933C78.322 24.8651 73.5784 24.8651 69.8337 27.1933C69.0675 27.6685 68.3592 28.2217 67.7192 28.8523C67.4183 29.1528 67.4183 29.6477 67.7192 29.9482C68.0197 30.2491 68.5146 30.2491 68.8151 29.9482C69.3198 29.4438 69.8822 28.9978 70.4839 28.6098C73.811 26.4559 78.0893 26.4559 81.4168 28.6098C82.0181 28.9978 82.5809 29.4438 83.0852 29.9581C83.3861 30.2589 83.8806 30.2589 84.1815 29.9581C84.482 29.6572 84.482 29.1627 84.1815 28.8618C83.5411 28.2217 82.8329 27.6685 82.0666 27.1933Z"
      fill="#2696FE"/>
    <path
      d="M75.9552 35.536C75.1015 35.536 74.4031 36.2344 74.4031 37.0882C74.4031 37.9419 75.1015 38.6403 75.9552 38.6403C76.809 38.6403 77.5074 37.9419 77.5074 37.0882C77.5074 36.2344 76.809 35.536 75.9552 35.536Z"
      fill="#2696FE"/>
    <path
      d="M75.9552 2.94104C63.1015 2.94104 52.6731 13.3695 52.6731 26.2232C52.6731 39.0768 63.1015 49.5053 75.9552 49.5053C88.8089 49.5053 99.2373 39.0768 99.2373 26.2232C99.2275 13.3695 88.8089 2.95089 75.9552 2.94104ZM75.9552 47.9531C63.9553 47.9531 54.2252 38.2231 54.2252 26.2232C54.2252 14.2232 63.9553 4.49318 75.9552 4.49318C87.9551 4.49318 97.6852 14.2232 97.6852 26.2232C97.6753 38.2231 87.9551 47.9433 75.9552 47.9531Z"
      fill="#1E81CE"/>
  </g>
</svg>
