<svg width="31" height="31" viewBox="0 0 31 31" fill="none" xmlns="http://www.w3.org/2000/svg">
<g>
<path d="M15.6133 30.6194C23.8976 30.6194 30.6133 23.9037 30.6133 15.6194C30.6133 7.33511 23.8976 0.619385 15.6133 0.619385C7.32901 0.619385 0.613281 7.33511 0.613281 15.6194C0.613281 23.9037 7.32901 30.6194 15.6133 30.6194Z" fill="#CF4C3C"/>
<path fill-rule="evenodd" clip-rule="evenodd" d="M30.5968 16.3323L23.4461 9.28784L7.32227 21.6452L16.4428 30.5968C24.1055 30.1793 30.2375 24.0104 30.5968 16.3323Z" fill="#AD3228"/>
<rect x="6.74902" y="8.65918" width="17.5246" height="13.9157" rx="2" fill="#AD3228"/>
<path d="M21.9023 8.86938H9.15234V22.3694H21.9023V8.86938Z" fill="#ECEFF1"/>
<path d="M15.5273 17.0392L21.9023 22.3694V11.8462L15.5273 17.0392Z" fill="#CFD8DC"/>
<path d="M22.4336 8.86938H21.9023L15.5273 14.1996L9.15234 8.86938H8.62109C7.74134 8.86938 7.02734 9.62538 7.02734 10.5569V20.6819C7.02734 21.6134 7.74134 22.3694 8.62109 22.3694H9.15234V11.8461L15.5273 17.038L21.9023 11.845V22.3694H22.4336C23.3133 22.3694 24.0273 21.6134 24.0273 20.6819V10.5569C24.0273 9.62538 23.3133 8.86938 22.4336 8.86938Z" fill="#CF4C3C"/>
</g>
</svg>
