<svg width="101" height="101" viewBox="0 0 101 101" fill="none" xmlns="http://www.w3.org/2000/svg">
<g>
<path d="M58.5729 34.5884C58.5729 48.3953 47.3807 59.5884 33.5729 59.5884C19.7659 59.5884 8.57288 48.3953 8.57288 34.5884C8.57288 20.7806 19.7659 9.58838 33.5729 9.58838C47.3807 9.58838 58.5729 20.7806 58.5729 34.5884Z" fill="#7DB8FE" fill-opacity="0.7"/>
<path d="M58.5729 37.9218C58.5729 30.5577 64.543 24.5884 71.9063 24.5884C79.2704 24.5884 85.2396 30.5577 85.2396 37.9218V47.9218H91.9063V37.9218C91.9063 26.876 82.952 17.9218 71.9063 17.9218C60.8613 17.9218 51.9062 26.876 51.9062 37.9218V47.9218H58.5729V37.9218Z" fill="#7DB8FE" fill-opacity="0.7"/>
<path d="M91.9062 47.9218H51.9062C48.2245 47.9218 45.2395 50.906 45.2395 54.5884V91.2551C45.2395 94.9367 48.2245 97.9218 51.9062 97.9218H91.9062C95.5886 97.9218 98.5728 94.9367 98.5728 91.2551V54.5884C98.5728 50.906 95.5886 47.9218 91.9062 47.9218ZM75.2395 72.0217V82.9218C75.2395 84.7626 73.7478 86.2551 71.9062 86.2551C70.0653 86.2551 68.5728 84.7626 68.5728 82.9218V72.0217C65.9597 70.5129 64.6861 67.4367 65.4674 64.5225C66.2478 61.6083 68.8894 59.5811 71.9062 59.5811C74.9237 59.5811 77.5653 61.6083 78.3458 64.5225C79.127 67.4367 77.8526 70.5129 75.2395 72.0217Z" fill="#7DB8FE" fill-opacity="0.7"/>
<path d="M33.5727 22.9217C38.0901 22.9217 41.906 25.2118 41.906 27.9217H45.2393C45.2393 23.6549 40.9612 20.241 35.2393 19.6779V14.5884H31.906V19.6779C26.185 20.241 21.906 23.6549 21.906 27.9217C21.906 32.5881 27.0313 36.255 33.5727 36.255C38.0901 36.255 41.906 38.5451 41.906 41.255C41.906 43.965 38.0901 46.255 33.5727 46.255C29.0561 46.255 25.2393 43.965 25.2393 41.255H21.906C21.906 45.521 26.185 48.9349 31.906 49.498V54.5884H35.2393V49.498C40.9612 48.9349 45.2393 45.521 45.2393 41.255C45.2393 36.5879 40.1148 32.9217 33.5727 32.9217C29.0561 32.9217 25.2393 30.6317 25.2393 27.9217C25.2393 25.2118 29.0561 22.9217 33.5727 22.9217Z" fill="#2696FE"/>
<path d="M93.5725 46.4209V37.9216C93.5913 30.4932 89.7933 23.5759 83.5156 19.6038C77.2388 15.6316 69.362 15.1612 62.6563 18.3578C54.7438 4.1839 37.7695 -2.22639 22.4628 3.18049C7.15686 8.58656 -2.02605 24.2367 0.719712 40.2352C3.46547 56.2345 17.3399 67.9271 33.5728 67.9215C36.9671 67.919 40.3403 67.3917 43.5727 66.3598V91.2547C43.5784 95.8543 47.3064 99.5823 51.906 99.588H91.9059C96.5063 99.5823 100.234 95.8543 100.239 91.2547V54.5882C100.234 50.629 97.4503 47.2184 93.5725 46.4209ZM90.2392 37.9216V46.2549H86.9059V37.9216C86.9059 29.6371 80.1904 22.9216 71.906 22.9216C63.6223 22.9216 56.906 29.6371 56.906 37.9216V46.2549H53.5727V37.9216C53.5727 27.7963 61.7815 19.5883 71.906 19.5883C82.0312 19.5883 90.2392 27.7963 90.2392 37.9216ZM63.23 30.1498C63.4547 31.6187 63.5694 33.1022 63.5727 34.5882C63.5751 38.6011 62.7515 42.5724 61.1549 46.2549H60.2393V37.9216C60.241 35.0497 61.3062 32.2811 63.23 30.1498ZM66.1833 27.7662C69.7925 25.7227 74.2163 25.752 77.7979 27.8435C81.3794 29.9349 83.5791 33.7736 83.5726 37.9216V46.2549H64.7795C67.0118 40.354 67.4992 33.9356 66.1833 27.7662ZM33.5728 64.5881C18.9521 64.602 6.44967 54.0738 3.97572 39.6631C1.50259 25.2523 9.77811 11.1582 23.5671 6.29571C37.3561 1.43326 52.6425 7.22019 59.7551 19.9944C58.8282 20.6324 57.9534 21.3412 57.1363 22.1143C50.4176 9.39303 34.822 4.2897 21.8826 10.5779C8.94315 16.867 3.3198 32.2828 9.17101 45.4256C15.023 58.5693 30.2411 64.7053 43.5727 59.2976V62.8377C40.3656 63.9924 36.9826 64.5841 33.5728 64.5881ZM43.5727 54.5882V55.6331C40.4534 57.1345 37.0355 57.9166 33.5728 57.9215C21.9851 57.9272 12.1487 49.4279 10.4731 37.9623C8.79748 26.4958 15.7905 15.5372 26.8956 12.2267C38.0007 8.91696 49.852 14.2579 54.7283 24.7698C51.8198 28.5368 50.2418 33.1617 50.2394 37.9216V46.4209C46.3624 47.2184 43.5784 50.629 43.5727 54.5882ZM96.9059 91.2547C96.9059 94.0159 94.6679 96.2547 91.9059 96.2547H51.906C49.1448 96.2547 46.9061 94.0159 46.9061 91.2547V54.5882C46.9061 51.8261 49.1448 49.5882 51.906 49.5882H91.9059C94.6679 49.5882 96.9059 51.8261 96.9059 54.5882V91.2547Z" fill="#2696FE"/>
<path d="M73.9298 58.1632C71.4225 57.5472 68.7719 58.1185 66.7415 59.7127C64.7111 61.3159 63.54 63.7711 63.5726 66.3574C63.6043 68.9445 64.8364 71.3696 66.9059 72.9215V82.9215C66.9059 85.6827 69.1447 87.9215 71.9059 87.9215C74.6679 87.9215 76.9059 85.6827 76.9059 82.9215V72.9215C79.6037 70.8984 80.8187 67.4519 79.9878 64.1845C79.248 61.2052 76.9132 58.8842 73.9298 58.1632ZM74.41 70.5761C73.8932 70.874 73.5758 71.4249 73.5766 72.0214V82.9215C73.5766 83.8419 72.8304 84.5882 71.91 84.5882C70.9887 84.5882 70.2433 83.8419 70.2433 82.9215V72.0214C70.2433 71.4249 69.9259 70.874 69.41 70.5761C67.9777 69.7461 67.0491 68.2609 66.9303 66.6105C66.8107 64.9593 67.5171 63.3569 68.8143 62.3299C69.6891 61.6308 70.7755 61.2516 71.8945 61.2548C72.3209 61.2557 72.7449 61.3061 73.16 61.4062C74.9186 61.8457 76.2955 63.212 76.748 64.9682C77.3136 67.1508 76.3558 69.4433 74.4059 70.5761H74.41Z" fill="#2696FE"/>
</g>
</svg>
