<svg width="31" height="31" viewBox="0 0 31 31" fill="none" xmlns="http://www.w3.org/2000/svg">
<g clip-path="url(#clip0)">
<path d="M15.6133 30.1777C23.8976 30.1777 30.6133 23.462 30.6133 15.1777C30.6133 6.89346 23.8976 0.177734 15.6133 0.177734C7.32901 0.177734 0.613281 6.89346 0.613281 15.1777C0.613281 23.462 7.32901 30.1777 15.6133 30.1777Z" fill="#6F3FAA"/>
<path d="M25.1044 11.3905C23.1533 9.43931 20.7226 7.95968 18.0047 7.48282C15.7133 7.08076 13.4075 6.98524 11.0679 7.80411C8.64366 8.71319 8.64366 11.3395 8.74468 13.5617C8.74468 14.1677 8.03763 14.9759 8.34062 15.6829C8.94351 17.6926 9.44649 19.7024 11.5401 20.7176C11.5617 20.7281 11.5834 20.7396 11.602 20.7549C11.7556 20.8808 11.7152 21.0721 11.7026 21.2685C11.6919 21.4341 11.4719 21.6785 11.4719 21.8445C11.4719 22.8994 12.0106 24.0122 12.7566 24.7579L15.0262 27.0265C16.8884 28.8879 19.6007 29.8804 21.9837 28.7609C24.4696 27.593 26.5825 25.763 28.0952 23.498C30.6179 19.7209 28.6568 14.9428 25.4451 11.7311L25.1044 11.3905Z" fill="#512D84"/>
<path d="M23.5484 10.72L23.5435 10.7002C23.1427 9.07995 21.3358 7.34136 19.6764 6.97966L19.6577 6.97579C16.9738 6.4638 14.2524 6.4638 11.569 6.97579L11.5498 6.97966C9.89098 7.34136 8.084 9.08007 7.6827 10.7002L7.67824 10.72C7.18277 12.9828 7.18277 15.2775 7.67824 17.5402L7.6827 17.56C7.9367 18.5853 8.7535 19.6577 9.73947 20.3987C10.5953 21.0418 11.3367 21.9642 11.3367 23.0348C11.3367 23.6894 12.1345 24.0109 12.5881 23.5385L13.5933 22.4937C14.1185 21.9477 14.8558 21.6683 15.6134 21.6683C16.9644 21.6683 18.316 21.5405 19.6577 21.2846L19.6764 21.2807C21.3357 20.919 23.1427 19.1803 23.5434 17.5601L23.5484 17.5403C24.0438 15.2775 24.0438 12.9829 23.5484 10.72ZM22.0982 17.2122C21.8306 18.2693 20.4587 19.5834 19.3686 19.8262C17.9415 20.0976 16.5031 20.2136 15.0662 20.1738C15.0376 20.173 15.0101 20.1841 14.9902 20.2046C14.7878 20.4123 13.6693 21.5606 13.6524 21.578C13.6519 21.5785 13.652 21.5784 13.6514 21.579L12.2291 23.0388C12.125 23.1473 11.9422 23.0734 11.9422 22.9237V19.9275C11.9422 19.8782 11.9073 19.8364 11.8591 19.8265C11.8585 19.8264 11.858 19.8263 11.8574 19.8262C10.7674 19.5833 9.39592 18.2692 9.12785 17.2121C8.68189 15.1668 8.68189 13.0934 9.12785 11.0482C9.39592 9.99108 10.7674 8.67694 11.8574 8.43413C14.3498 7.96011 16.8768 7.96011 19.3686 8.43413C20.4592 8.67694 21.8306 9.99108 22.0982 11.0482C22.5447 13.0935 22.5447 15.1669 22.0982 17.2122Z" fill="white"/>
<path d="M17.9844 18.5953C17.8168 18.5444 17.6572 18.5103 17.5088 18.4488C15.9718 17.8111 14.5573 16.9885 13.437 15.7275C12.7998 15.0104 12.3011 14.2008 11.8796 13.344C11.6797 12.9378 11.5112 12.5156 11.3395 12.0961C11.1829 11.7136 11.4135 11.3184 11.6564 11.0301C11.8842 10.7596 12.1775 10.5526 12.4951 10.4C12.7429 10.2809 12.9874 10.3496 13.1684 10.5597C13.5597 11.0139 13.9192 11.4913 14.2102 12.0178C14.3892 12.3417 14.3401 12.7375 14.0157 12.9579C13.9368 13.0115 13.865 13.0744 13.7916 13.1349C13.7271 13.1879 13.6665 13.2414 13.6224 13.3132C13.5417 13.4445 13.5378 13.5995 13.5897 13.7423C13.9897 14.8416 14.664 15.6965 15.7705 16.157C15.9476 16.2306 16.1254 16.3163 16.3294 16.2926C16.671 16.2527 16.7816 15.8779 17.021 15.6822C17.255 15.4909 17.5541 15.4883 17.8061 15.6478C18.0582 15.8074 18.3025 15.9787 18.5455 16.1518C18.7839 16.3217 19.0213 16.4878 19.2412 16.6816C19.4527 16.8679 19.5256 17.1122 19.4064 17.3649C19.1885 17.8279 18.8712 18.2129 18.4136 18.4588C18.2844 18.528 18.1301 18.5505 17.9844 18.5953C17.8168 18.5444 18.1301 18.5505 17.9844 18.5953Z" fill="white"/>
<path d="M15.6174 9.87067C17.6277 9.92703 19.2789 11.2612 19.6328 13.2487C19.6931 13.5873 19.7145 13.9335 19.7414 14.2773C19.7527 14.4218 19.6708 14.5592 19.5148 14.5611C19.3537 14.563 19.2812 14.4282 19.2706 14.2837C19.2499 13.9977 19.2356 13.7103 19.1962 13.4267C18.9881 11.9291 17.7939 10.6901 16.3033 10.4243C16.079 10.3842 15.8495 10.3738 15.6222 10.3499C15.4786 10.3348 15.2905 10.3262 15.2587 10.1476C15.232 9.99787 15.3584 9.8787 15.5009 9.87102C15.5395 9.86873 15.5785 9.87055 15.6174 9.87067C17.6278 9.92703 15.5785 9.87055 15.6174 9.87067Z" fill="white"/>
<path d="M18.6726 13.831C18.6692 13.8562 18.6675 13.9152 18.6528 13.9707C18.5994 14.1725 18.2933 14.1978 18.223 13.9942C18.202 13.9337 18.1989 13.865 18.1988 13.7999C18.1981 13.3742 18.1056 12.9488 17.8909 12.5783C17.6701 12.1975 17.3329 11.8775 16.9374 11.6837C16.6982 11.5667 16.4397 11.4938 16.1775 11.4505C16.063 11.4316 15.9472 11.4201 15.832 11.4041C15.6925 11.3847 15.618 11.2958 15.6247 11.1583C15.6308 11.0295 15.725 10.9368 15.8654 10.9448C16.3267 10.971 16.7724 11.0708 17.1826 11.2879C18.0166 11.7297 18.4931 12.4268 18.6322 13.3578C18.6385 13.4001 18.6485 13.4418 18.6518 13.4841C18.6596 13.5885 18.6646 13.6931 18.6726 13.831C18.6692 13.856 18.6646 13.6931 18.6726 13.831Z" fill="white"/>
<path d="M17.4222 13.7824C17.254 13.7855 17.164 13.6923 17.1466 13.5382C17.1346 13.4307 17.125 13.3218 17.0993 13.2171C17.0488 13.011 16.9393 12.8201 16.766 12.6939C16.6842 12.6343 16.5914 12.5909 16.4943 12.5627C16.371 12.5271 16.2428 12.5369 16.1198 12.5068C15.9861 12.474 15.9122 12.3657 15.9332 12.2404C15.9523 12.1263 16.0633 12.0372 16.1881 12.0463C16.9675 12.1025 17.5245 12.5055 17.604 13.4231C17.6097 13.4878 17.6163 13.5562 17.6019 13.6182C17.5772 13.7241 17.4987 13.7773 17.4222 13.7824C17.2539 13.7854 17.4987 13.7773 17.4222 13.7824Z" fill="white"/>
<path d="M23.5485 10.7202L23.5436 10.7004C23.3623 9.96739 22.8931 9.21027 22.2801 8.56729C22.0277 8.3026 21.6133 8.3084 21.3397 8.55095C21 8.85193 21.0178 9.38556 21.3202 9.72393C21.6996 10.1485 21.9898 10.6194 22.0984 11.0482C22.5449 13.0936 22.5449 15.1669 22.0984 17.2123C21.8308 18.2694 20.4588 19.5835 19.3688 19.8263C17.9417 20.0977 16.5033 20.2137 15.0664 20.1739C15.0378 20.1731 15.0103 20.1842 14.9904 20.2047C14.788 20.4124 13.6695 21.5608 13.6526 21.5781C13.6521 21.5786 13.6522 21.5785 13.6516 21.5791L12.2293 23.0389C12.1252 23.1474 11.9424 23.0737 11.9424 22.9238V19.9276C11.9424 19.8782 11.9073 19.8363 11.8589 19.8265C11.8586 19.8265 11.8583 19.8264 11.8581 19.8264C11.8578 19.8263 11.8575 19.8263 11.8572 19.8262C11.4248 19.7298 10.9482 19.4647 10.5138 19.1141C10.1984 18.8595 9.73915 18.8324 9.43577 19.1012C9.12277 19.3786 9.0958 19.8625 9.41278 20.1353C9.65717 20.3456 9.9159 20.5365 10.1821 20.7015C10.8223 21.0981 11.3367 21.7455 11.3367 22.4986V23.035C11.3367 23.6896 12.1345 24.0111 12.5881 23.5387L13.5933 22.4939C14.1185 21.9479 14.8558 21.6685 15.6134 21.6685C16.9644 21.6685 18.316 21.5407 19.6577 21.2848L19.6764 21.281C21.3358 20.9193 23.1427 19.1807 23.5435 17.5604L23.5484 17.5406C24.0439 15.2776 24.0439 12.983 23.5485 10.7202Z" fill="#D1D1D1"/>
<path d="M19.2414 16.6814C19.0215 16.4878 18.784 16.3215 18.5457 16.1516C18.3027 15.9785 18.0584 15.8073 17.8063 15.6477C17.5543 15.4882 17.2553 15.4907 17.0212 15.682C16.7818 15.8778 16.6713 16.2525 16.3296 16.2924C16.1256 16.3162 15.9478 16.2304 15.7707 16.1568C15.2892 15.9564 14.8898 15.6811 14.5591 15.3435C14.3395 15.1194 13.9784 15.0748 13.7436 15.2829L13.45 15.5432C13.3964 15.5907 13.3894 15.6738 13.437 15.7273C14.5574 16.9883 15.9719 17.8109 17.5088 18.4486C17.6571 18.5101 17.8169 18.5444 17.9845 18.5952C17.8169 18.5442 18.1302 18.5503 17.9845 18.5952C18.1302 18.5503 18.2845 18.5278 18.4138 18.4585C18.8715 18.2127 19.1886 17.8276 19.4066 17.3647C19.5258 17.112 19.4529 16.8677 19.2414 16.6814Z" fill="#D1D1D1"/>
<path d="M15.6235 9.87085C15.6216 9.87085 15.6197 9.87066 15.6178 9.87066C15.616 9.87053 15.6183 9.87066 15.6235 9.87085Z" fill="white"/>
<path d="M15.6179 9.87061C15.6196 9.87061 15.6213 9.87078 15.623 9.87078C15.7345 9.87477 17.5491 9.92474 15.6179 9.87061Z" fill="white"/>
<path d="M18.6529 11.2255C18.5699 11.1338 18.429 11.1304 18.3364 11.2125C18.2343 11.303 18.2312 11.4609 18.3222 11.5626C18.7832 12.0776 19.0983 12.7235 19.196 13.4266C19.2354 13.7103 19.2498 13.9976 19.2705 14.2836C19.281 14.4282 19.3534 14.563 19.5147 14.5611C19.6707 14.5592 19.7526 14.4219 19.7413 14.2773C19.7144 13.9336 19.693 13.5873 19.6327 13.2487C19.4919 12.4577 19.1455 11.7702 18.6529 11.2255Z" fill="#D1D1D1"/>
<path d="M18.6321 13.3579C18.5421 12.7549 18.3098 12.2506 17.931 11.8497C17.8495 11.7635 17.7148 11.7636 17.6259 11.8424C17.5213 11.9351 17.5221 12.0979 17.6157 12.2017C17.7203 12.3177 17.8131 12.4441 17.8909 12.5784C18.1057 12.9489 18.1982 13.3743 18.1989 13.8001C18.199 13.8651 18.2021 13.9339 18.223 13.9944C18.2935 14.1981 18.5995 14.1729 18.6528 13.971C18.6676 13.9153 18.6693 13.8563 18.6726 13.8313C18.6693 13.8564 18.6645 13.6934 18.6726 13.8313C18.6645 13.6934 18.6596 13.5888 18.6517 13.4842C18.6486 13.4418 18.6385 13.4 18.6321 13.3579Z" fill="#D1D1D1"/>
<path d="M17.4221 13.7826C17.4248 13.7824 17.4273 13.7811 17.4298 13.7808C17.4227 13.7808 17.4118 13.7809 17.4006 13.7814C17.4079 13.7815 17.4145 13.7826 17.4221 13.7826Z" fill="white"/>
<path d="M17.4222 13.7825C17.4146 13.7826 17.408 13.7815 17.4007 13.7812C17.3643 13.7822 17.3267 13.7842 17.4222 13.7825Z" fill="white"/>
<path d="M17.4298 13.7808C17.4272 13.7811 17.4246 13.7824 17.4221 13.7826C17.4418 13.7812 17.4401 13.7808 17.4298 13.7808Z" fill="white"/>
<path d="M17.2032 12.4543C17.1292 12.3804 17.0113 12.387 16.933 12.4564L16.7602 12.6096C16.7344 12.6325 16.7383 12.6736 16.7663 12.6939C16.9396 12.8202 17.0491 13.0111 17.0996 13.2171C17.1253 13.3218 17.1348 13.4306 17.1469 13.5382C17.1635 13.6855 17.2471 13.776 17.401 13.7813C17.4121 13.781 17.4232 13.7807 17.4301 13.7807C17.5042 13.7725 17.5784 13.7206 17.6022 13.6181C17.6165 13.5562 17.61 13.4877 17.6043 13.423C17.5668 12.9926 17.4243 12.6756 17.2032 12.4543Z" fill="#D1D1D1"/>
</g>
<defs>
<clipPath id="clip0">
<rect width="30" height="30" fill="white" transform="translate(0.613281 0.177734)"/>
</clipPath>
</defs>
</svg>
