<svg width="101" height="101" viewBox="0 0 101 101" fill="none" xmlns="http://www.w3.org/2000/svg">
<g clip-path="url(#clip0)">
<path d="M79.3175 62.1922C76.1869 57.9994 71.2608 55.5331 66.0286 55.5396H59.3759L51.0602 62.1922H79.3175Z" fill="#7DB8FE" fill-opacity="0.7"/>
<path d="M42.7444 55.5396H36.0918C31.6805 55.5347 27.4487 57.288 24.3336 60.4121C23.7797 60.9667 23.2681 61.5612 22.8036 62.1922H51.0602L42.7444 55.5396Z" fill="#7DB8FE" fill-opacity="0.7"/>
<path d="M66.8438 28.679L68.7393 28.0472C70.1011 27.5957 71.0196 26.3215 71.018 24.8874V15.991L51.1316 22.3009L31.1023 15.9747V24.8874C31.1015 26.3215 32.02 27.5957 33.381 28.0472L34.4286 28.3964L35.2772 28.679C45.5201 32.1052 56.6002 32.1052 66.8438 28.679Z" fill="#7DB8FE" fill-opacity="0.7"/>
<path d="M22.8036 62.1921H9.48132L19.4602 98.7815H82.6601L92.639 62.1921H22.8036ZM57.7128 80.4868C57.7128 84.1607 54.7348 87.1394 51.0602 87.1394C47.3863 87.1394 44.4075 84.1607 44.4075 80.4868C44.4075 76.8121 47.3863 73.8342 51.0602 73.8342C54.7348 73.8342 57.7128 76.8121 57.7128 80.4868Z" fill="#7DB8FE" fill-opacity="0.7"/>
<path d="M71.018 15.9909V15.9893V15.9909L82.66 12.2976L51.1316 2.10669L19.4602 12.2976L31.1023 15.9747V15.9731V15.9747L51.1316 22.3008L71.018 15.9909Z" fill="#7DB8FE" fill-opacity="0.7"/>
<path d="M80.9968 43.8974L76.0074 35.5817L71.0179 43.8974H80.9968Z" fill="#7DB8FE" fill-opacity="0.7"/>
<path d="M51.0602 88.8025C46.4678 88.8025 42.7444 85.0791 42.7444 80.4868C42.7444 75.8936 46.4678 72.171 51.0602 72.171C55.6533 72.171 59.3759 75.8936 59.3759 80.4868C59.3702 85.0767 55.6509 88.7969 51.0602 88.8025ZM51.0602 75.4973C48.3047 75.4973 46.0707 77.7306 46.0707 80.4868C46.0707 83.2422 48.3047 85.4762 51.0602 85.4762C53.8156 85.4762 56.0496 83.2422 56.0496 80.4868C56.0496 77.7306 53.8156 75.4973 51.0602 75.4973Z" fill="#1E81CE"/>
<path d="M93.97 61.1819C93.6533 60.7677 93.1603 60.5257 92.639 60.529H80.0873C76.6433 56.3061 71.4776 53.8617 66.0285 53.8764H61.039V47.5397C66.2055 44.1679 69.3304 38.424 69.3548 32.2554V29.5942C71.3509 28.8941 72.6852 27.0085 72.6811 24.8938V17.2082L74.3443 16.6796V35.1204L69.5928 43.0407C69.2842 43.5539 69.276 44.1947 69.5708 44.716C69.8656 45.2374 70.4186 45.5598 71.018 45.5606H80.9969C81.5962 45.5598 82.1492 45.2374 82.444 44.716C82.7396 44.1947 82.7307 43.5539 82.4221 43.0407L77.6706 35.1204V15.6238L83.1595 13.8819C83.8424 13.6602 84.3053 13.0243 84.3078 12.3057C84.3102 11.587 83.8506 10.9487 83.1692 10.7221L51.644 0.525525C51.3119 0.417517 50.9546 0.417517 50.6232 0.525525L18.9518 10.714C18.2689 10.9381 17.8076 11.5756 17.8076 12.2935C17.8076 13.0122 18.2689 13.6497 18.9518 13.8738L29.4294 17.1839V24.8873C29.4221 27.0077 30.7628 28.8982 32.7654 29.5942V32.2554C32.789 38.4248 35.9139 44.1695 41.0812 47.5413V53.8764H36.0917C31.2379 53.8642 26.5806 55.7945 23.1576 59.2361C22.7581 59.6357 22.4073 60.088 22.0467 60.529H9.48129C8.96318 60.5282 8.47431 60.7702 8.15922 61.1819C7.84494 61.5936 7.74018 62.1288 7.87661 62.629L17.8555 99.2184C18.0529 99.942 18.7098 100.445 19.4602 100.445H82.66C83.4104 100.445 84.0682 99.942 84.2655 99.2184L94.2445 62.629C94.3825 62.1304 94.281 61.5952 93.97 61.1819ZM78.0596 42.2343H73.9553L76.0074 38.813L78.0596 42.2343ZM66.0285 57.2027C69.4498 57.1921 72.7696 58.3672 75.4219 60.529H55.797L59.9549 57.2027H66.0285ZM51.0601 60.0628L44.4075 54.7412V49.2759C48.6799 50.974 53.4403 50.974 57.7127 49.2759V54.7412L51.0601 60.0628ZM51.13 3.84858L77.2069 12.2821L51.13 20.5565L24.9353 12.2821L51.13 3.84858ZM33.8999 26.4676C33.221 26.2394 32.7646 25.6028 32.7654 24.8873V18.2347L50.6313 23.8779C50.9562 23.981 51.3046 23.981 51.6294 23.8779L69.3548 18.2631V24.8873C69.3556 25.606 68.8952 26.2443 68.2122 26.4693L66.3168 27.1011C56.4118 30.3924 45.7077 30.3924 35.8026 27.1011L33.8999 26.4676ZM36.0917 32.2554V30.6434C40.9431 32.1271 45.987 32.8856 51.0601 32.8953C56.1332 32.8856 61.1771 32.1271 66.0285 30.6434V32.2554C66.0163 37.5997 63.1667 42.5348 58.5443 45.2179C53.9 47.8409 48.2211 47.8409 43.5759 45.2179C38.9543 42.5348 36.1047 37.5989 36.0917 32.2554ZM36.0917 57.2027H42.1605L46.3184 60.529H26.6935C29.3498 58.3704 32.6696 57.1954 36.0917 57.2027ZM81.3899 97.1183H20.7311L11.6585 63.8553H90.4618L81.3899 97.1183Z" fill="#2696FE"/>
</g>
<defs>
<clipPath id="clip0">
<rect width="100" height="100" fill="white" transform="translate(0.95459 0.444336)"/>
</clipPath>
</defs>
</svg>
