<svg width="101" height="101" viewBox="0 0 101 101" fill="none" xmlns="http://www.w3.org/2000/svg">
<g clip-path="url(#clip0)">
<path d="M29.142 13.7198C29.142 18.3219 25.4107 22.0531 20.8087 22.0531C16.2066 22.0531 12.4753 18.3219 12.4753 13.7198C12.4753 9.11776 16.2066 5.38647 20.8087 5.38647C25.4107 5.38647 29.142 9.11776 29.142 13.7198Z" fill="#7DB8FE" fill-opacity="0.7"/>
<path d="M29.142 25.3865H12.4753C6.95288 25.3865 2.47534 29.864 2.47534 35.3865V42.0531L6.00073 43.3349C7.57463 43.8948 9.18026 44.3627 10.8087 44.7362C17.3842 46.2979 24.2332 46.2979 30.8087 44.7362C32.4371 44.3627 34.0427 43.8948 35.6166 43.3349L39.142 42.0531V35.3865C39.142 29.864 34.6645 25.3865 29.142 25.3865Z" fill="#7DB8FE" fill-opacity="0.7"/>
<path d="M89.142 13.7198C89.142 18.3219 85.4107 22.0531 80.8087 22.0531C76.2066 22.0531 72.4753 18.3219 72.4753 13.7198C72.4753 9.11776 76.2066 5.38647 80.8087 5.38647C85.4107 5.38647 89.142 9.11776 89.142 13.7198Z" fill="#7DB8FE" fill-opacity="0.7"/>
<path d="M89.142 25.3865H72.4753C66.9529 25.3865 62.4753 29.864 62.4753 35.3865V42.0531L66.0007 43.3349C75.5816 46.7252 86.0357 46.7252 95.6166 43.3349L99.142 42.0531V35.3865C99.142 29.864 94.6645 25.3865 89.142 25.3865Z" fill="#7DB8FE" fill-opacity="0.7"/>
<path d="M50.8086 73.7197C45.2861 73.7197 40.8086 69.2422 40.8086 63.7197C40.8086 58.1973 45.2861 53.7197 50.8086 53.7197C56.3311 53.7197 60.8086 58.1973 60.8086 63.7197C60.8029 69.2406 56.3294 73.714 50.8086 73.7197ZM50.8086 57.0531C47.127 57.0531 44.1419 60.0381 44.1419 63.7197C44.1419 67.4014 47.127 70.3864 50.8086 70.3864C54.4902 70.3864 57.4753 67.4014 57.4753 63.7197C57.4753 60.0381 54.4902 57.0531 50.8086 57.0531Z" fill="#2696FE"/>
<path d="M20.8086 23.7197C15.2861 23.7197 10.8086 19.2422 10.8086 13.7197C10.8086 8.19727 15.2861 3.71973 20.8086 3.71973C26.3311 3.71973 30.8086 8.19727 30.8086 13.7197C30.8029 19.2406 26.3294 23.714 20.8086 23.7197ZM20.8086 7.05306C17.127 7.05306 14.1419 10.0381 14.1419 13.7197C14.1419 17.4014 17.127 20.3864 20.8086 20.3864C24.4902 20.3864 27.4753 17.4014 27.4753 13.7197C27.4753 10.0381 24.4902 7.05306 20.8086 7.05306Z" fill="#2696FE"/>
<path d="M80.8086 23.7197C75.2861 23.7197 70.8086 19.2422 70.8086 13.7197C70.8086 8.19727 75.2861 3.71973 80.8086 3.71973C86.3311 3.71973 90.8086 8.19727 90.8086 13.7197C90.8029 19.2406 86.3294 23.714 80.8086 23.7197ZM80.8086 7.05306C77.127 7.05306 74.1419 10.0381 74.1419 13.7197C74.1419 17.4014 77.127 20.3864 80.8086 20.3864C84.4902 20.3864 87.4753 17.4014 87.4753 13.7197C87.4753 10.0381 84.4902 7.05306 80.8086 7.05306Z" fill="#2696FE"/>
<path d="M26.5785 82.9847C15.6344 75.6442 8.64876 63.7008 7.61523 50.5628L10.9388 50.2959C11.8934 62.4224 18.3411 73.4453 28.4437 80.2194L26.5785 82.9847Z" fill="#2696FE"/>
<path d="M74.2722 83.4893L72.4656 80.6898C82.8839 73.9377 89.6018 62.7552 90.6703 50.3862L93.9939 50.6613C92.8359 64.0605 85.558 76.1748 74.2722 83.4893Z" fill="#2696FE"/>
<path d="M34.8238 10.3748L33.49 7.31983C44.3811 2.58757 56.7346 2.51758 67.6786 7.12615L66.3798 10.1966C56.2789 5.94369 44.8775 6.0088 34.8254 10.3748H34.8238Z" fill="#2696FE"/>
<path d="M29.1419 23.7197H12.4753C6.03483 23.7271 0.815918 28.946 0.808594 35.3864V43.2201L5.42855 44.9014C15.3651 48.5081 26.2521 48.5081 36.1886 44.9014L40.8086 43.2201V35.3864C40.8013 28.946 35.5824 23.7271 29.1419 23.7197ZM37.4753 40.8861L35.0485 41.7682C34.2005 42.0767 33.3371 42.3265 32.4753 42.578V32.0531H29.1419V43.3983C23.6431 44.5189 17.9741 44.5189 12.4753 43.3983V32.0531H9.14193V42.578C8.28011 42.3265 7.41667 42.0783 6.56868 41.7682L4.14193 40.8861V35.3864C4.14762 30.786 7.87484 27.0588 12.4753 27.0531H29.1419C33.7423 27.0588 37.4696 30.786 37.4753 35.3864V40.8861Z" fill="#2696FE"/>
<path d="M89.1419 23.7197H72.4753C66.0348 23.7271 60.8159 28.946 60.8086 35.3864V43.2201L65.4285 44.9014C75.3651 48.5081 86.2521 48.5081 96.1886 44.9014L100.809 43.2201V35.3864C100.801 28.946 95.5824 23.7271 89.1419 23.7197ZM97.4753 40.8861L95.0485 41.7682C94.2005 42.0767 93.3371 42.3265 92.4753 42.578V32.0531H89.1419V43.3983C83.6431 44.5189 77.9741 44.5189 72.4753 43.3983V32.0531H69.1419V42.578C68.2801 42.3265 67.4167 42.0783 66.5687 41.7682L64.1419 40.8861V35.3864C64.1476 30.786 67.8748 27.0588 72.4753 27.0531H89.1419C93.7423 27.0588 97.4696 30.786 97.4753 35.3864V40.8861Z" fill="#2696FE"/>
<path d="M59.1419 73.7197H42.4753C36.0348 73.7271 30.8159 78.946 30.8086 85.3864V93.2201L35.4285 94.9014C45.3651 98.5081 56.2521 98.5081 66.1886 94.9014L70.8086 93.2201V85.3864C70.8013 78.946 65.5824 73.7271 59.1419 73.7197ZM67.4753 90.8861L65.0485 91.7682C64.2005 92.0767 63.3371 92.3265 62.4753 92.578V82.0531H59.1419V93.3983C53.6431 94.5189 47.9741 94.5189 42.4753 93.3983V82.0531H39.1419V92.578C38.2801 92.3265 37.4167 92.0783 36.5687 91.7682L34.1419 90.8861V85.3864C34.1476 80.786 37.8748 77.0588 42.4753 77.0531H59.1419C63.7423 77.0588 67.4696 80.786 67.4753 85.3864V90.8861Z" fill="#2696FE"/>
</g>
<defs>
<clipPath id="clip0">
<rect width="100" height="100" fill="white" transform="translate(0.808594 0.594727)"/>
</clipPath>
</defs>
</svg>
