<svg width="31" height="31" viewBox="0 0 31 31" fill="none" xmlns="http://www.w3.org/2000/svg">
<g>
<path d="M15.6133 30.6194C23.8976 30.6194 30.6133 23.9037 30.6133 15.6194C30.6133 7.33511 23.8976 0.619385 15.6133 0.619385C7.32901 0.619385 0.613281 7.33511 0.613281 15.6194C0.613281 23.9037 7.32901 30.6194 15.6133 30.6194Z" fill="#CF4C3C"/>
<path d="M22.467 13.2468L20.3271 15.8214L16.298 11.6309H10.7311L8.47803 14.0705V19.3388L19.2959 30.1633C24.194 28.9269 28.1328 25.2814 29.7793 20.5605L22.467 13.2468Z" fill="#AD3228"/>
<path d="M13.0519 16.7529H15.7349C15.264 18.0842 13.9884 19.0388 12.4954 19.0279C10.6837 19.0145 9.18538 17.5651 9.11518 15.7547C9.03983 13.814 10.5967 12.211 12.5208 12.211C13.4007 12.211 14.2036 12.5464 14.8089 13.0957C14.9524 13.2257 15.1704 13.2267 15.3115 13.0939L16.297 12.1666C16.4511 12.0215 16.4516 11.7765 16.2979 11.6311C15.338 10.7215 14.0503 10.1546 12.6302 10.127C9.60151 10.0677 7.04852 12.551 7.02748 15.5803C7.00609 18.6325 9.47377 21.1133 12.5208 21.1133C15.4513 21.1133 17.8452 18.8188 18.0055 15.9286C18.0097 15.8923 18.0126 14.6677 18.0126 14.6677H13.052C12.8487 14.6677 12.6839 14.8325 12.6839 15.0358V16.3848C12.6838 16.5881 12.8487 16.7529 13.0519 16.7529Z" fill="white"/>
<path d="M22.5586 14.7901V13.4719C22.5586 13.2937 22.4143 13.1494 22.2361 13.1494H21.1267C20.9485 13.1494 20.8041 13.2937 20.8041 13.4719V14.7901H19.4862C19.308 14.7901 19.1633 14.9344 19.1633 15.1127V16.222C19.1633 16.4001 19.3079 16.5446 19.4862 16.5446H20.8041V17.8626C20.8041 18.0408 20.9484 18.1852 21.1267 18.1852H22.2361C22.4143 18.1852 22.5586 18.0408 22.5586 17.8626V16.5446H23.8768C24.0549 16.5446 24.1994 16.4001 24.1994 16.222V15.1127C24.1994 14.9345 24.0549 14.7901 23.8768 14.7901H22.5586Z" fill="#D1D1D1"/>
</g>
<defs>
<clipPath>
<rect width="30" height="30" fill="white"/>
</clipPath>
</defs>
</svg>
