<svg width="101" height="101" viewBox="0 0 101 101" fill="none" xmlns="http://www.w3.org/2000/svg">
<g clip-path="url(#clip0)">
<path d="M41.5763 86.4797L50.9545 91.1697L60.3336 86.4797C75.0537 79.1832 84.344 64.1506 84.2879 47.7216V8.62329H17.6212V47.7216C17.5659 64.1506 26.8562 79.1832 41.5763 86.4797ZM34.1699 39.0766L45.9545 50.8612L69.5247 27.2903L74.2399 32.003L45.9545 60.29L29.4547 43.7901L34.1699 39.0766Z" fill="#7DB8FE" fill-opacity="0.7"/>
<path d="M50.9546 100.29C50.6974 100.293 50.4419 100.236 50.21 100.123L37.8499 93.9432C20.2962 85.2412 9.21875 67.314 9.28792 47.7217V1.95671C9.28792 1.0363 10.0342 0.290039 10.9546 0.290039H90.9546C91.8758 0.290039 92.6213 1.0363 92.6213 1.95671V47.7217C92.688 67.3107 81.6105 85.2339 64.0601 93.9351L51.7 100.123C51.4681 100.236 51.2126 100.293 50.9546 100.29ZM12.6213 3.62337V47.7217C12.5578 66.0485 22.9207 82.8169 39.34 90.9566L50.9546 96.7598L62.57 90.9566C78.9893 82.8169 89.3522 66.0485 89.2879 47.7217V3.62337H12.6213Z" fill="#2696FE"/>
<path d="M50.9546 92.8364C50.6958 92.8372 50.4411 92.7762 50.21 92.6598L40.8317 87.9715C25.5461 80.3933 15.8976 64.783 15.9546 47.7216V8.62333C15.9546 7.70292 16.7009 6.95667 17.6213 6.95667H84.2879C85.2092 6.95667 85.9546 7.70292 85.9546 8.62333V47.7216C86.0124 64.783 76.3639 80.3933 61.0783 87.9715L51.7 92.6598C51.4689 92.7762 51.2134 92.8372 50.9546 92.8364ZM19.2879 10.29V47.7216C19.235 63.5192 28.1681 77.9731 42.3218 84.9897L50.9546 89.3069L59.5882 84.9897C73.7419 77.9731 82.675 63.5192 82.6213 47.7216V10.29H19.2879Z" fill="#2696FE"/>
<path d="M45.9546 61.9567C45.5127 61.9567 45.0895 61.781 44.777 61.4685L28.2764 44.9686C27.6261 44.3176 27.6261 43.2629 28.2764 42.6119L32.9899 37.8967C33.6507 37.2717 34.6859 37.2717 35.3467 37.8967L45.9546 48.5054L68.348 26.1136C68.999 25.4626 70.0545 25.4626 70.7048 26.1136L75.4183 30.8264C76.0693 31.4774 76.0693 32.5329 75.4183 33.1831L47.133 61.4685C46.8205 61.781 46.3973 61.9567 45.9546 61.9567ZM31.8132 43.7902L45.9546 57.9333L71.8831 32.0048L69.5264 29.6488L47.133 52.0397C46.4827 52.6908 45.4272 52.6908 44.777 52.0397L34.1699 41.4335L31.8132 43.7902Z" fill="#2696FE"/>
</g>
<defs>
<clipPath id="clip0">
<rect width="100" height="100" fill="white" transform="translate(0.95459 0.290039)"/>
</clipPath>
</defs>
</svg>
