<svg width="481" height="240" viewBox="0 0 481 240" fill="none" xmlns="http://www.w3.org/2000/svg">
<path d="M10.193 168.305C20.2105 144.437 53.987 104.78 108.953 137.09C163.919 169.401 198.675 148.695 206.945 142.972C212.491 139.133 229.893 123.231 242.961 98.8302C250.532 84.6949 266.85 48.9675 328.802 62.8271C390.754 76.6868 410.865 135.164 477.868 92.8303" stroke="#2696FE" stroke-width="3" stroke-linecap="round" stroke-linejoin="round"/>
<g filter="url(#filter0_d)">
<circle cx="87.1431" cy="127.95" r="10.0898" transform="rotate(9.10388 87.1431 127.95)" fill="white"/>
</g>
<circle cx="87.1431" cy="127.95" r="6.00727" transform="rotate(9.10388 87.1431 127.95)" fill="#2696FE"/>
<g filter="url(#filter1_d)">
<circle cx="198.241" cy="146.392" r="10.0898" transform="rotate(9.10388 198.241 146.392)" fill="white"/>
</g>
<circle cx="198.241" cy="146.392" r="6.00727" transform="rotate(9.10388 198.241 146.392)" fill="#2696FE"/>
<g filter="url(#filter2_d)">
<circle cx="342.483" cy="67.8043" r="10.0898" transform="rotate(9.10388 342.483 67.8043)" fill="white"/>
</g>
<circle cx="342.483" cy="67.8042" r="6.00727" transform="rotate(9.10388 342.483 67.8042)" fill="#2696FE"/>
<defs>
<filter id="filter0_d" x="68.584" y="109.391" width="37.1184" height="37.1184" filterUnits="userSpaceOnUse" color-interpolation-filters="sRGB">
<feFlood flood-opacity="0" result="BackgroundImageFix"/>
<feColorMatrix in="SourceAlpha" type="matrix" values="0 0 0 0 0 0 0 0 0 0 0 0 0 0 0 0 0 0 127 0"/>
<feOffset/>
<feGaussianBlur stdDeviation="3.5"/>
<feColorMatrix type="matrix" values="0 0 0 0 0.14902 0 0 0 0 0.588235 0 0 0 0 0.996078 0 0 0 0.3 0"/>
<feBlend mode="normal" in2="BackgroundImageFix" result="effect1_dropShadow"/>
<feBlend mode="normal" in="SourceGraphic" in2="effect1_dropShadow" result="shape"/>
</filter>
<filter id="filter1_d" x="179.682" y="127.833" width="37.1184" height="37.1184" filterUnits="userSpaceOnUse" color-interpolation-filters="sRGB">
<feFlood flood-opacity="0" result="BackgroundImageFix"/>
<feColorMatrix in="SourceAlpha" type="matrix" values="0 0 0 0 0 0 0 0 0 0 0 0 0 0 0 0 0 0 127 0"/>
<feOffset/>
<feGaussianBlur stdDeviation="3.5"/>
<feColorMatrix type="matrix" values="0 0 0 0 0.14902 0 0 0 0 0.588235 0 0 0 0 0.996078 0 0 0 0.3 0"/>
<feBlend mode="normal" in2="BackgroundImageFix" result="effect1_dropShadow"/>
<feBlend mode="normal" in="SourceGraphic" in2="effect1_dropShadow" result="shape"/>
</filter>
<filter id="filter2_d" x="323.924" y="49.2451" width="37.1184" height="37.1184" filterUnits="userSpaceOnUse" color-interpolation-filters="sRGB">
<feFlood flood-opacity="0" result="BackgroundImageFix"/>
<feColorMatrix in="SourceAlpha" type="matrix" values="0 0 0 0 0 0 0 0 0 0 0 0 0 0 0 0 0 0 127 0"/>
<feOffset/>
<feGaussianBlur stdDeviation="3.5"/>
<feColorMatrix type="matrix" values="0 0 0 0 0.14902 0 0 0 0 0.588235 0 0 0 0 0.996078 0 0 0 0.3 0"/>
<feBlend mode="normal" in2="BackgroundImageFix" result="effect1_dropShadow"/>
<feBlend mode="normal" in="SourceGraphic" in2="effect1_dropShadow" result="shape"/>
</filter>
</defs>
</svg>
