<svg width="33" height="34" viewBox="0 0 33 34" fill="none" xmlns="http://www.w3.org/2000/svg">
<g clip-path="url(#clip0)" filter="url(#filter0_d)">
<path d="M16.6203 29.952C9.94554 29.952 4.48438 24.4908 4.48438 17.8161C4.48438 11.1413 9.94554 5.68015 16.6203 5.68015C23.2951 5.68015 28.7562 11.1413 28.7562 17.8161C28.7562 24.4908 23.2951 29.952 16.6203 29.952Z" fill="#90AEAF"/>
<path d="M16.6205 28.4552C22.8985 28.4552 27.9878 23.3659 27.9878 17.0879C27.9878 10.8099 22.8985 5.72055 16.6205 5.72055C10.3425 5.72055 5.25317 10.8099 5.25317 17.0879C5.25317 23.3659 10.3425 28.4552 16.6205 28.4552Z" fill="#7D979E"/>
<path d="M6.58813 18.4633C6.58813 12.193 11.6852 7.09596 17.9554 7.09596C20.7467 7.09596 23.2952 8.10728 25.2774 9.76586C23.2143 7.29822 20.0995 5.72055 16.6205 5.72055C10.3503 5.72055 5.25317 10.8176 5.25317 17.0879C5.25317 20.5668 6.83084 23.6817 9.29848 25.7853C7.59945 23.8031 6.58813 21.2545 6.58813 18.4633Z" fill="#688389"/>
<path d="M24.6706 9.07822C29.1205 13.5281 29.1205 20.7287 24.6706 25.1785C20.2208 29.6284 13.0202 29.6284 8.57031 25.1785" fill="#688389"/>
<path d="M16.6203 29.2237C9.94554 29.2237 4.48438 23.7626 4.48438 17.0878C4.48438 10.4131 9.94554 4.9519 16.6203 4.9519C23.2951 4.9519 28.7562 10.4131 28.7562 17.0878C28.7562 23.7626 23.2951 29.2237 16.6203 29.2237ZM16.6203 6.48912C10.7546 6.48912 6.02159 11.2626 6.02159 17.0878C6.02159 22.9535 10.7951 27.6865 16.6203 27.6865C22.4455 27.6865 27.219 22.9131 27.219 17.0878C27.219 11.2626 22.486 6.48912 16.6203 6.48912Z" fill="#B6CBCE"/>
<path d="M28.756 17.0879C28.756 14.0134 27.6233 11.2222 25.7625 9.11863C23.6185 7.25779 20.8272 6.1251 17.7528 6.1251C15.6897 6.1251 13.7884 6.65099 12.0894 7.54096C13.4648 6.85325 15.002 6.48918 16.6201 6.48918C19.8159 6.48918 22.7285 7.94549 24.6703 10.2109C26.9356 12.1526 28.3515 15.0248 28.3515 18.261C28.3515 19.8791 27.9874 21.4164 27.3402 22.7918C28.2301 21.0927 28.756 19.151 28.756 17.0879Z" fill="#A3BFC1"/>
<path d="M5.61694 18.2611C5.61694 21.3356 6.74963 24.1268 8.61047 26.2304C10.7545 28.0912 13.5457 29.2239 16.5797 29.2239C18.6428 29.2239 20.5441 28.698 22.2432 27.808C20.8678 28.4553 19.3305 28.8194 17.7124 28.8194C14.5166 28.8194 11.604 27.3631 9.66225 25.0977C7.39688 23.1559 5.94057 20.2838 5.94057 17.0475C5.94057 15.4294 6.30465 13.8922 6.95189 12.5168C6.14283 14.2563 5.61694 16.198 5.61694 18.2611Z" fill="#A3BFC1"/>
<path d="M16.7011 6.08453C16.7011 6.12498 16.6607 6.16544 16.6202 6.16544C16.5798 6.16544 16.5393 6.12498 16.5393 6.08453V5.31592C16.5393 5.27547 16.5798 5.23502 16.6202 5.23502C16.6607 5.23502 16.7011 5.27547 16.7011 5.31592V6.08453Z" fill="#C7E0E2"/>
<path d="M16.7011 28.9001C16.7011 28.9405 16.6607 28.981 16.6202 28.981C16.5798 28.981 16.5393 28.9405 16.5393 28.9001V28.1315C16.5393 28.091 16.5798 28.0506 16.6202 28.0506C16.6607 28.0506 16.7011 28.091 16.7011 28.1315V28.9001Z" fill="#C7E0E2"/>
<path d="M24.4681 9.40172C24.4277 9.44217 24.3872 9.44217 24.3467 9.40172C24.3063 9.36126 24.3063 9.32081 24.3467 9.28036L24.9131 8.71402C24.9535 8.67356 24.994 8.67356 25.0344 8.71402C25.0749 8.75447 25.0749 8.79492 25.0344 8.83538L24.4681 9.40172Z" fill="#C7E0E2"/>
<path d="M8.36801 25.5019C8.32755 25.5423 8.2871 25.5423 8.24665 25.5019C8.2062 25.4614 8.2062 25.421 8.24665 25.3805L8.81299 24.8142C8.85344 24.7737 8.89389 24.7737 8.93435 24.8142C8.9748 24.8546 8.9748 24.8951 8.93435 24.9355L8.36801 25.5019Z" fill="#C7E0E2"/>
<path d="M27.6234 17.2091C27.5829 17.2091 27.5425 17.1686 27.5425 17.1281C27.5425 17.0877 27.5829 17.0472 27.6234 17.0472H28.392C28.4324 17.0472 28.4729 17.0877 28.4729 17.1281C28.4729 17.1686 28.4324 17.2091 28.392 17.2091H27.6234Z" fill="#C7E0E2"/>
<path d="M4.84848 17.2092C4.80803 17.2092 4.76758 17.1687 4.76758 17.1283C4.76758 17.0878 4.80803 17.0474 4.84848 17.0474H5.61709C5.65754 17.0069 5.698 17.0474 5.698 17.0878C5.698 17.1283 5.65754 17.1687 5.61709 17.1687H4.84848V17.2092Z" fill="#C7E0E2"/>
<path d="M24.3467 24.9762C24.3063 24.9357 24.3063 24.8953 24.3467 24.8548C24.3872 24.8144 24.4277 24.8144 24.4681 24.8548L25.0344 25.4212C25.0749 25.4616 25.0749 25.5021 25.0344 25.5425C24.994 25.583 24.9535 25.583 24.9131 25.5425L24.3467 24.9762Z" fill="#C7E0E2"/>
<path d="M8.20612 8.83538C8.16567 8.79492 8.16567 8.75447 8.20612 8.71402C8.24657 8.67356 8.28703 8.67356 8.32748 8.71402L8.89382 9.28036C8.93427 9.32081 8.93427 9.36126 8.89382 9.40172C8.85337 9.44217 8.81291 9.44217 8.77246 9.40172L8.20612 8.83538Z" fill="#C7E0E2"/>
<path d="M11.1996 7.54083C11.24 7.58128 11.1996 7.66218 11.1591 7.66218C11.1187 7.70264 11.0377 7.66218 11.0377 7.62173L10.6332 6.93403C10.5928 6.89358 10.6332 6.81267 10.6737 6.81267C10.7141 6.77222 10.795 6.81267 10.795 6.85312L11.1996 7.54083Z" fill="#C7E0E2"/>
<path d="M22.6075 27.282C22.648 27.3225 22.6075 27.4034 22.567 27.4034C22.5266 27.4438 22.4457 27.4034 22.4457 27.3629L22.0412 26.6752C22.0007 26.6348 22.0412 26.5539 22.0816 26.5539C22.1221 26.5134 22.203 26.5539 22.203 26.5943L22.6075 27.282Z" fill="#C7E0E2"/>
<path d="M19.5734 6.48909C19.5734 6.52954 19.4925 6.56999 19.452 6.56999C19.4115 6.56999 19.3711 6.48909 19.3711 6.44864L19.5734 5.68003C19.5734 5.63957 19.6543 5.59912 19.6947 5.59912C19.7352 5.59912 19.7756 5.68003 19.7756 5.72048L19.5734 6.48909Z" fill="#C7E0E2"/>
<path d="M13.6674 28.4956C13.6674 28.5361 13.5864 28.5765 13.546 28.5765C13.5055 28.5765 13.4651 28.4956 13.4651 28.4552L13.6674 27.6865C13.6674 27.6461 13.7483 27.6056 13.7887 27.6056C13.8292 27.6056 13.8696 27.6865 13.8696 27.727L13.6674 28.4956Z" fill="#C7E0E2"/>
<path d="M26.2077 11.667C26.1672 11.7075 26.0863 11.667 26.0863 11.6266C26.0459 11.5861 26.0863 11.5052 26.1268 11.5052L26.8145 11.1007C26.855 11.0602 26.9359 11.1007 26.9359 11.1411C26.9763 11.1816 26.9359 11.2625 26.8954 11.2625L26.2077 11.667Z" fill="#C7E0E2"/>
<path d="M6.46648 23.0749C6.42603 23.1153 6.34513 23.0749 6.34513 23.0344C6.30467 22.994 6.34513 22.9131 6.38558 22.9131L7.07328 22.5085C7.11373 22.4681 7.19464 22.5085 7.19464 22.549C7.23509 22.5894 7.19464 22.6703 7.15419 22.6703L6.46648 23.0749Z" fill="#C7E0E2"/>
<path d="M27.2188 20.0408C27.1784 20.0408 27.1379 19.9599 27.1379 19.9194C27.1379 19.879 27.2188 19.8385 27.2593 19.8385L28.0279 20.0408C28.0684 20.0408 28.1088 20.1217 28.1088 20.1622C28.1088 20.2026 28.0279 20.2431 27.9875 20.2431L27.2188 20.0408Z" fill="#C7E0E2"/>
<path d="M5.2125 14.1347C5.17204 14.1347 5.13159 14.0538 5.13159 14.0133C5.13159 13.9729 5.2125 13.9324 5.25295 13.9324L6.02156 14.1347C6.06201 14.1347 6.10247 14.2156 6.10247 14.256C6.10247 14.2965 6.02156 14.3369 5.98111 14.3369L5.2125 14.1347Z" fill="#C7E0E2"/>
<path d="M7.15419 11.5052C7.19464 11.5457 7.23509 11.5861 7.19464 11.6266C7.15419 11.667 7.11373 11.7075 7.07328 11.667L6.38558 11.2625C6.34513 11.222 6.30467 11.1816 6.34513 11.1411C6.38558 11.1007 6.42603 11.0602 6.46648 11.1007L7.15419 11.5052Z" fill="#C7E0E2"/>
<path d="M26.8954 22.9131C26.9359 22.9535 26.9763 22.994 26.9359 23.0344C26.8954 23.0749 26.855 23.1153 26.8145 23.0749L26.1268 22.6703C26.0863 22.6299 26.0459 22.5894 26.0863 22.549C26.1268 22.5085 26.1672 22.4681 26.2077 22.5085L26.8954 22.9131Z" fill="#C7E0E2"/>
<path d="M13.8696 6.44864C13.8696 6.48909 13.8696 6.56999 13.7887 6.56999C13.7483 6.56999 13.6674 6.56999 13.6674 6.48909L13.4651 5.72048C13.4651 5.68003 13.4651 5.59912 13.546 5.59912C13.5864 5.59912 13.6674 5.59912 13.6674 5.68003L13.8696 6.44864Z" fill="#C7E0E2"/>
<path d="M19.7756 28.4552C19.7756 28.4956 19.7756 28.5765 19.6947 28.5765C19.6543 28.5765 19.5734 28.5765 19.5734 28.4956L19.3711 27.727C19.3711 27.6865 19.3711 27.6056 19.452 27.6056C19.4925 27.6056 19.5734 27.6056 19.5734 27.6865L19.7756 28.4552Z" fill="#C7E0E2"/>
<path d="M22.203 7.62173C22.1625 7.66218 22.1221 7.70264 22.0816 7.66218C22.0412 7.62173 22.0007 7.58128 22.0412 7.54083L22.4457 6.85312C22.4861 6.81267 22.5266 6.77222 22.567 6.81267C22.6075 6.85312 22.648 6.89358 22.6075 6.93403L22.203 7.62173Z" fill="#C7E0E2"/>
<path d="M10.795 27.3629C10.7546 27.4034 10.7141 27.4438 10.6737 27.4034C10.6332 27.3629 10.5928 27.3225 10.6332 27.282L11.0377 26.5943C11.0782 26.5539 11.1187 26.5134 11.1591 26.5539C11.1996 26.5943 11.24 26.6348 11.1996 26.6752L10.795 27.3629Z" fill="#C7E0E2"/>
<path d="M27.2593 14.3369C27.2188 14.3369 27.1379 14.3369 27.1379 14.256C27.1379 14.2156 27.1379 14.1347 27.2188 14.1347L27.9875 13.9324C28.0279 13.9324 28.1088 13.9324 28.1088 14.0133C28.1088 14.0538 28.1088 14.1347 28.0279 14.1347L27.2593 14.3369Z" fill="#C7E0E2"/>
<path d="M5.25295 20.2431C5.2125 20.2431 5.13159 20.2431 5.13159 20.1622C5.13159 20.1217 5.13159 20.0408 5.2125 20.0408L5.98111 19.8385C6.02156 19.8385 6.10247 19.8385 6.10247 19.9194C6.10247 19.9599 6.10247 20.0408 6.02156 20.0408L5.25295 20.2431Z" fill="#C7E0E2"/>
<path d="M19.6543 20.8903H17.2676C18.9666 19.1913 20.2206 17.654 20.2206 15.7528C20.2206 14.0133 19.0475 12.1524 16.499 12.1524C15.2854 12.1524 14.1527 12.557 13.2627 13.3256C12.9795 13.5683 12.8986 13.9324 13.0604 14.256L13.465 15.1864C13.5459 15.3887 13.7481 15.5909 13.9909 15.6314C14.2336 15.6718 14.4763 15.6314 14.6786 15.4696C14.9617 15.2269 15.5281 14.8223 16.2158 14.8223C17.0248 14.8223 17.3485 15.146 17.3485 15.9146C17.3485 17.0472 16.3371 18.1799 13.9909 20.4049L12.9795 21.4162C12.8177 21.578 12.7368 21.7803 12.7368 21.9825V22.7916C12.7368 23.2366 13.1009 23.5602 13.5054 23.5602H19.6543C20.0993 23.5602 20.4229 23.1961 20.4229 22.7916V21.6994C20.4229 21.2139 20.0588 20.8903 19.6543 20.8903Z" fill="#C7E0E2"/>
<path d="M13.9503 20.3646L12.939 21.3759C12.7772 21.5377 12.6963 21.74 12.6963 21.9422V22.7513C12.6963 23.1963 13.0604 23.5199 13.4649 23.5199H19.6138C20.0587 23.5199 20.3824 23.1558 20.3824 22.7513V21.6591C20.3824 21.2141 20.0183 20.8905 19.6138 20.8905H17.227C18.9261 19.1914 20.1801 17.6542 20.1801 15.7529C20.1801 15.1461 20.0183 14.5393 19.7351 14.0134L17.1866 16.562C16.9034 17.4519 15.8921 18.5442 13.9503 20.3646Z" fill="#B6CBCE"/>
<path d="M15.8922 9.44222C15.8922 9.8063 15.5686 10.4131 15.2045 10.4131C14.8405 10.4131 14.5168 9.8063 14.5168 9.44222C14.5168 9.07814 14.8405 8.75452 15.2045 8.75452C15.5686 8.75452 15.8922 9.07814 15.8922 9.44222Z" fill="#688389"/>
<path d="M15.2045 10.1299C15.5844 10.1299 15.8922 9.82203 15.8922 9.44222C15.8922 9.06241 15.5844 8.75452 15.2045 8.75452C14.8247 8.75452 14.5168 9.06241 14.5168 9.44222C14.5168 9.82203 14.8247 10.1299 15.2045 10.1299Z" fill="#B6CBCE"/>
<path d="M15.6899 8.95679C15.973 9.23996 15.973 9.64449 15.6899 9.92766C15.4067 10.2108 15.0022 10.2108 14.719 9.92766" fill="#A3BFC1"/>
<path d="M18.7238 9.44222C18.7238 9.8063 18.4002 10.4131 18.0361 10.4131C17.672 10.4131 17.3484 9.8063 17.3484 9.44222C17.3484 9.07814 17.672 8.75452 18.0361 8.75452C18.4002 8.75452 18.7238 9.07814 18.7238 9.44222Z" fill="#688389"/>
<path d="M18.0361 10.1299C18.4159 10.1299 18.7238 9.82203 18.7238 9.44222C18.7238 9.06241 18.4159 8.75452 18.0361 8.75452C17.6563 8.75452 17.3484 9.06241 17.3484 9.44222C17.3484 9.82203 17.6563 10.1299 18.0361 10.1299Z" fill="#B6CBCE"/>
<path d="M18.5216 8.95679C18.8048 9.23996 18.8048 9.64449 18.5216 9.92766C18.2385 10.2108 17.834 10.2108 17.5508 9.92766" fill="#A3BFC1"/>
</g>
<defs>
<filter id="filter0_d" x="0.120361" y="0.951904" width="33" height="33" filterUnits="userSpaceOnUse" color-interpolation-filters="sRGB">
<feFlood flood-opacity="0" result="BackgroundImageFix"/>
<feColorMatrix in="SourceAlpha" type="matrix" values="0 0 0 0 0 0 0 0 0 0 0 0 0 0 0 0 0 0 127 0"/>
<feOffset/>
<feGaussianBlur stdDeviation="2"/>
<feColorMatrix type="matrix" values="0 0 0 0 0 0 0 0 0 0 0 0 0 0 0 0 0 0 0.25 0"/>
<feBlend mode="normal" in2="BackgroundImageFix" result="effect1_dropShadow"/>
<feBlend mode="normal" in="SourceGraphic" in2="effect1_dropShadow" result="shape"/>
</filter>
<clipPath id="clip0">
<rect width="25" height="25" fill="white" transform="translate(4.12036 4.9519)"/>
</clipPath>
</defs>
</svg>
