<svg width="33" height="34" viewBox="0 0 33 34" fill="none" xmlns="http://www.w3.org/2000/svg">
<g clip-path="url(#clip0)" filter="url(#filter0_d)">
<path d="M16.6203 29.1631C9.94554 29.1631 4.48438 23.702 4.48438 17.0272C4.48438 10.3525 9.94554 4.89129 16.6203 4.89129C23.2951 4.89129 28.7562 10.3525 28.7562 17.0272C28.7562 23.702 23.2951 29.1631 16.6203 29.1631Z" fill="#DBAB56"/>
<path d="M16.6205 27.6663C22.8985 27.6663 27.9878 22.577 27.9878 16.299C27.9878 10.021 22.8985 4.93172 16.6205 4.93172C10.3425 4.93172 5.25317 10.021 5.25317 16.299C5.25317 22.577 10.3425 27.6663 16.6205 27.6663Z" fill="#EFB30C"/>
<path d="M6.58812 17.6744C6.58812 11.4042 11.6852 6.30712 17.9554 6.30712C20.7467 6.30712 23.2952 7.31845 25.2774 8.97702C23.2143 6.50939 20.0995 4.93172 16.6205 4.93172C10.3503 4.93172 5.25317 10.0288 5.25317 16.299C5.25317 19.778 6.83084 22.8929 9.29848 24.9964C7.59945 23.0142 6.58812 20.4657 6.58812 17.6744Z" fill="#E5A300"/>
<path d="M24.6706 8.28938C29.1205 12.7392 29.1205 19.9399 24.6706 24.3897C20.2208 28.8395 13.0202 28.8395 8.57031 24.3897" fill="#E5A300"/>
<path d="M16.6203 28.4349C9.94554 28.4349 4.48438 22.9738 4.48438 16.299C4.48438 9.62425 9.94554 4.16309 16.6203 4.16309C23.2951 4.16309 28.7562 9.62425 28.7562 16.299C28.7562 22.9738 23.2951 28.4349 16.6203 28.4349ZM16.6203 5.7003C10.7546 5.7003 6.02159 10.4738 6.02159 16.299C6.02159 22.1647 10.7951 26.8977 16.6203 26.8977C22.4455 26.8977 27.219 22.1243 27.219 16.299C27.219 10.4738 22.486 5.7003 16.6203 5.7003Z" fill="#F7D27F"/>
<path d="M28.7563 16.299C28.7563 13.2246 27.6236 10.4333 25.7627 8.32975C23.6187 6.46891 20.8275 5.33622 17.753 5.33622C15.6899 5.33622 13.7886 5.86211 12.0896 6.75208C13.465 6.06438 15.0022 5.7003 16.6203 5.7003C19.8161 5.7003 22.7288 7.15661 24.6705 9.42198C26.9359 11.3637 28.3517 14.2359 28.3517 17.4721C28.3517 19.0903 27.9877 20.6275 27.3404 22.0029C28.2304 20.3039 28.7563 18.3621 28.7563 16.299Z" fill="#EFC273"/>
<path d="M5.61694 17.4721C5.61694 20.5465 6.74963 23.3378 8.61047 25.4413C10.7545 27.3022 13.5457 28.4349 16.5797 28.4349C18.6428 28.4349 20.5441 27.909 22.2432 27.019C20.8678 27.6663 19.3305 28.0303 17.7124 28.0303C14.5166 28.0303 11.604 26.574 9.66225 24.3087C7.39688 22.3669 5.94057 19.4947 5.94057 16.2585C5.94057 14.6404 6.30465 13.1032 6.95189 11.7278C6.14283 13.4672 5.61694 15.409 5.61694 17.4721Z" fill="#EAC06C"/>
<path d="M17.308 8.65338C17.308 9.01745 16.9844 9.62425 16.6203 9.62425C16.2562 9.62425 15.9326 9.01745 15.9326 8.65338C15.9326 8.2893 16.2562 7.96567 16.6203 7.96567C16.9844 7.96567 17.308 8.2893 17.308 8.65338Z" fill="#E5A300"/>
<path d="M16.6203 9.34108C17.0001 9.34108 17.308 9.03318 17.308 8.65338C17.308 8.27357 17.0001 7.96567 16.6203 7.96567C16.2405 7.96567 15.9326 8.27357 15.9326 8.65338C15.9326 9.03318 16.2405 9.34108 16.6203 9.34108Z" fill="#F7D27F"/>
<path d="M17.1056 8.16797C17.3888 8.45114 17.3888 8.85567 17.1056 9.13884C16.8225 9.42201 16.4179 9.42201 16.1348 9.13884" fill="#EFC273"/>
<path d="M16.7011 5.29574C16.7011 5.33619 16.6607 5.37664 16.6202 5.37664C16.5798 5.37664 16.5393 5.33619 16.5393 5.29574V4.52713C16.5393 4.48668 16.5798 4.44622 16.6202 4.44622C16.6607 4.44622 16.7011 4.48668 16.7011 4.52713V5.29574Z" fill="#FFE0A1"/>
<path d="M16.7011 28.1113C16.7011 28.1518 16.6607 28.1922 16.6202 28.1922C16.5798 28.1922 16.5393 28.1518 16.5393 28.1113V27.3427C16.5393 27.3023 16.5798 27.2618 16.6202 27.2618C16.6607 27.2618 16.7011 27.3023 16.7011 27.3427V28.1113Z" fill="#FFE0A1"/>
<path d="M24.4681 8.61293C24.4277 8.65338 24.3872 8.65338 24.3467 8.61293C24.3063 8.57247 24.3063 8.53202 24.3467 8.49157L24.9131 7.92523C24.9535 7.88477 24.994 7.88477 25.0344 7.92523C25.0749 7.96568 25.0749 8.00613 25.0344 8.04658L24.4681 8.61293Z" fill="#FFE0A1"/>
<path d="M8.36801 24.7131C8.32755 24.7536 8.2871 24.7536 8.24665 24.7131C8.2062 24.6727 8.2062 24.6322 8.24665 24.5918L8.81299 24.0254C8.85344 23.985 8.8939 23.985 8.93435 24.0254C8.9748 24.0659 8.9748 24.1063 8.93435 24.1468L8.36801 24.7131Z" fill="#FFE0A1"/>
<path d="M27.6234 16.4203C27.5829 16.4203 27.5425 16.3798 27.5425 16.3394C27.5425 16.2989 27.5829 16.2585 27.6234 16.2585H28.392C28.4324 16.2585 28.4729 16.2989 28.4729 16.3394C28.4729 16.3798 28.4324 16.4203 28.392 16.4203H27.6234Z" fill="#FFE0A1"/>
<path d="M4.84848 16.4204C4.80803 16.4204 4.76758 16.3799 4.76758 16.3395C4.76758 16.299 4.80803 16.2586 4.84848 16.2586H5.61709C5.65754 16.2181 5.698 16.2586 5.698 16.299C5.698 16.3395 5.65754 16.3799 5.61709 16.3799H4.84848V16.4204Z" fill="#FFE0A1"/>
<path d="M24.3467 24.1874C24.3063 24.1469 24.3063 24.1065 24.3467 24.066C24.3872 24.0256 24.4277 24.0256 24.4681 24.066L25.0344 24.6324C25.0749 24.6728 25.0749 24.7133 25.0344 24.7537C24.994 24.7942 24.9535 24.7942 24.9131 24.7537L24.3467 24.1874Z" fill="#FFE0A1"/>
<path d="M8.20612 8.04658C8.16567 8.00613 8.16567 7.96568 8.20612 7.92523C8.24657 7.88477 8.28703 7.88477 8.32748 7.92523L8.89382 8.49157C8.93427 8.53202 8.93427 8.57247 8.89382 8.61293C8.85337 8.65338 8.81291 8.65338 8.77246 8.61293L8.20612 8.04658Z" fill="#FFE0A1"/>
<path d="M11.1996 6.75206C11.24 6.79251 11.1996 6.87342 11.1591 6.87342C11.1187 6.91387 11.0377 6.87342 11.0377 6.83297L10.6332 6.14526C10.5928 6.10481 10.6332 6.0239 10.6737 6.0239C10.7141 5.98345 10.795 6.0239 10.795 6.06436L11.1996 6.75206Z" fill="#FFE0A1"/>
<path d="M22.6075 26.4932C22.648 26.5336 22.6075 26.6145 22.5671 26.6145C22.5266 26.655 22.4457 26.6145 22.4457 26.5741L22.0412 25.8864C22.0007 25.8459 22.0412 25.765 22.0816 25.765C22.1221 25.7246 22.203 25.765 22.203 25.8055L22.6075 26.4932Z" fill="#FFE0A1"/>
<path d="M19.5734 5.70032C19.5734 5.74077 19.4925 5.78122 19.452 5.78122C19.4115 5.78122 19.3711 5.70032 19.3711 5.65986L19.5734 4.89126C19.5734 4.8508 19.6543 4.81035 19.6947 4.81035C19.7352 4.81035 19.7756 4.89126 19.7756 4.93171L19.5734 5.70032Z" fill="#FFE0A1"/>
<path d="M13.6674 27.7068C13.6674 27.7472 13.5864 27.7877 13.546 27.7877C13.5055 27.7877 13.4651 27.7068 13.4651 27.6663L13.6674 26.8977C13.6674 26.8573 13.7483 26.8168 13.7887 26.8168C13.8292 26.8168 13.8696 26.8977 13.8696 26.9382L13.6674 27.7068Z" fill="#FFE0A1"/>
<path d="M26.2077 10.8782C26.1672 10.9187 26.0863 10.8782 26.0863 10.8378C26.0459 10.7973 26.0863 10.7164 26.1268 10.7164L26.8145 10.3119C26.8549 10.2714 26.9359 10.3119 26.9359 10.3523C26.9763 10.3928 26.9359 10.4737 26.8954 10.4737L26.2077 10.8782Z" fill="#FFE0A1"/>
<path d="M6.46673 22.2861C6.42628 22.3265 6.34537 22.2861 6.34537 22.2456C6.30492 22.2052 6.34537 22.1242 6.38582 22.1242L7.07352 21.7197C7.11398 21.6793 7.19488 21.7197 7.19488 21.7602C7.23534 21.8006 7.19488 21.8815 7.15443 21.8815L6.46673 22.2861Z" fill="#FFE0A1"/>
<path d="M27.2191 19.252C27.1786 19.252 27.1382 19.1711 27.1382 19.1307C27.1382 19.0902 27.2191 19.0498 27.2595 19.0498L28.0282 19.252C28.0686 19.252 28.1091 19.3329 28.1091 19.3734C28.1091 19.4138 28.0282 19.4543 27.9877 19.4543L27.2191 19.252Z" fill="#FFE0A1"/>
<path d="M5.2125 13.3459C5.17204 13.3459 5.13159 13.265 5.13159 13.2245C5.13159 13.1841 5.2125 13.1436 5.25295 13.1436L6.02156 13.3459C6.06201 13.3459 6.10247 13.4268 6.10247 13.4673C6.10247 13.5077 6.02156 13.5482 5.98111 13.5482L5.2125 13.3459Z" fill="#FFE0A1"/>
<path d="M7.15443 10.7164C7.19488 10.7569 7.23534 10.7973 7.19488 10.8378C7.15443 10.8782 7.11398 10.9187 7.07352 10.8782L6.38582 10.4737C6.34537 10.4333 6.30492 10.3928 6.34537 10.3523C6.38582 10.3119 6.42628 10.2714 6.46673 10.3119L7.15443 10.7164Z" fill="#FFE0A1"/>
<path d="M26.8954 22.1242C26.9359 22.1647 26.9763 22.2052 26.9359 22.2456C26.8954 22.2861 26.8549 22.3265 26.8145 22.2861L26.1268 21.8815C26.0863 21.8411 26.0459 21.8006 26.0863 21.7602C26.1268 21.7197 26.1672 21.6793 26.2077 21.7197L26.8954 22.1242Z" fill="#FFE0A1"/>
<path d="M13.8696 5.65986C13.8696 5.70032 13.8696 5.78122 13.7887 5.78122C13.7483 5.78122 13.6674 5.78122 13.6674 5.70032L13.4651 4.93171C13.4651 4.89126 13.4651 4.81035 13.546 4.81035C13.5864 4.81035 13.6674 4.81035 13.6674 4.89126L13.8696 5.65986Z" fill="#FFE0A1"/>
<path d="M19.7756 27.6663C19.7756 27.7068 19.7756 27.7877 19.6947 27.7877C19.6543 27.7877 19.5734 27.7877 19.5734 27.7068L19.3711 26.9382C19.3711 26.8977 19.3711 26.8168 19.452 26.8168C19.4925 26.8168 19.5734 26.8168 19.5734 26.8977L19.7756 27.6663Z" fill="#FFE0A1"/>
<path d="M22.203 6.83297C22.1625 6.87342 22.1221 6.91387 22.0816 6.87342C22.0412 6.83297 22.0007 6.79251 22.0412 6.75206L22.4457 6.06436C22.4861 6.0239 22.5266 5.98345 22.5671 6.0239C22.6075 6.06436 22.648 6.10481 22.6075 6.14526L22.203 6.83297Z" fill="#FFE0A1"/>
<path d="M10.795 26.5741C10.7546 26.6145 10.7141 26.655 10.6737 26.6145C10.6332 26.5741 10.5928 26.5336 10.6332 26.4932L11.0377 25.8055C11.0782 25.765 11.1187 25.7246 11.1591 25.765C11.1996 25.8055 11.24 25.8459 11.1996 25.8864L10.795 26.5741Z" fill="#FFE0A1"/>
<path d="M27.2595 13.5482C27.2191 13.5482 27.1382 13.5482 27.1382 13.4673C27.1382 13.4268 27.1382 13.3459 27.2191 13.3459L27.9877 13.1436C28.0282 13.1436 28.1091 13.1436 28.1091 13.2245C28.1091 13.265 28.1091 13.3459 28.0282 13.3459L27.2595 13.5482Z" fill="#FFE0A1"/>
<path d="M5.25295 19.4543C5.2125 19.4543 5.13159 19.4543 5.13159 19.3734C5.13159 19.3329 5.13159 19.252 5.2125 19.252L5.98111 19.0498C6.02156 19.0498 6.10247 19.0498 6.10247 19.1307C6.10247 19.1711 6.10247 19.252 6.02156 19.252L5.25295 19.4543Z" fill="#FFE0A1"/>
<path d="M17.5912 11.5255H16.499C16.3776 11.5255 16.2563 11.566 16.1349 11.6064L14.0313 12.7391C13.7077 12.9009 13.5459 13.265 13.6268 13.6291L13.8695 14.6404C13.91 14.8831 14.0718 15.0854 14.3145 15.1663C14.5168 15.2472 14.8 15.2472 15.0022 15.1259L15.5686 14.8427V21.9624C15.5686 22.4074 15.9326 22.731 16.3372 22.731H17.5912C18.0362 22.731 18.3598 22.367 18.3598 21.9624V12.2941C18.3598 11.8896 17.9957 11.5255 17.5912 11.5255Z" fill="#FFE0A1"/>
<path d="M15.5281 17.3912V21.9219C15.5281 22.3669 15.8922 22.6905 16.2967 22.6905H17.5507C17.9957 22.6905 18.3193 22.3264 18.3193 21.9219V14.5595L15.5281 17.3912Z" fill="#F7D27F"/>
</g>
<defs>
<filter id="filter0_d" x="0.120361" y="0.163086" width="33" height="33" filterUnits="userSpaceOnUse" color-interpolation-filters="sRGB">
<feFlood flood-opacity="0" result="BackgroundImageFix"/>
<feColorMatrix in="SourceAlpha" type="matrix" values="0 0 0 0 0 0 0 0 0 0 0 0 0 0 0 0 0 0 127 0"/>
<feOffset/>
<feGaussianBlur stdDeviation="2"/>
<feColorMatrix type="matrix" values="0 0 0 0 0.807843 0 0 0 0 0.827451 0 0 0 0 0.913725 0 0 0 1 0"/>
<feBlend mode="normal" in2="BackgroundImageFix" result="effect1_dropShadow"/>
<feBlend mode="normal" in="SourceGraphic" in2="effect1_dropShadow" result="shape"/>
</filter>
<clipPath id="clip0">
<rect width="25" height="25" fill="white" transform="translate(4.12036 4.16309)"/>
</clipPath>
</defs>
</svg>
