<svg width="33" height="34" viewBox="0 0 33 34" fill="none" xmlns="http://www.w3.org/2000/svg">
<g clip-path="url(#clip0)" filter="url(#filter0_d)">
<path d="M16.6203 29.7057C9.94554 29.7057 4.48438 24.2445 4.48438 17.5697C4.48438 10.895 9.94554 5.43381 16.6203 5.43381C23.2951 5.43381 28.7562 10.895 28.7562 17.5697C28.7562 24.2445 23.2951 29.7057 16.6203 29.7057Z" fill="#D89E77"/>
<path d="M16.6205 28.2088C22.8985 28.2088 27.9878 23.1195 27.9878 16.8415C27.9878 10.5635 22.8985 5.47421 16.6205 5.47421C10.3425 5.47421 5.25317 10.5635 5.25317 16.8415C5.25317 23.1195 10.3425 28.2088 16.6205 28.2088Z" fill="#D88B56"/>
<path d="M6.58813 18.2169C6.58813 11.9467 11.6852 6.84962 17.9554 6.84962C20.7467 6.84962 23.2952 7.86094 25.2774 9.51952C23.2143 7.05188 20.0995 5.47421 16.6205 5.47421C10.3503 5.47421 5.25317 10.5713 5.25317 16.8415C5.25317 20.3205 6.83084 23.4354 9.29848 25.5389C7.59945 23.5567 6.58813 21.0082 6.58813 18.2169Z" fill="#CC7E48"/>
<path d="M24.6706 8.83188C29.1205 13.2817 29.1205 20.4824 24.6706 24.9322C20.2208 29.382 13.0202 29.382 8.57031 24.9322" fill="#CC7E48"/>
<path d="M16.6203 28.9774C9.94554 28.9774 4.48438 23.5162 4.48438 16.8415C4.48438 10.1667 9.94554 4.70557 16.6203 4.70557C23.2951 4.70557 28.7562 10.1667 28.7562 16.8415C28.7562 23.5162 23.2951 28.9774 16.6203 28.9774ZM16.6203 6.24278C10.7546 6.24278 6.02159 11.0162 6.02159 16.8415C6.02159 22.7072 10.7951 27.4402 16.6203 27.4402C22.4455 27.4402 27.219 22.6667 27.219 16.8415C27.219 11.0162 22.486 6.24278 16.6203 6.24278Z" fill="#F7C6A4"/>
<path d="M28.756 16.8415C28.756 13.7671 27.6233 10.9758 25.7625 8.87228C23.6185 7.01144 20.8272 5.87875 17.7528 5.87875C15.6897 5.87875 13.7884 6.40464 12.0894 7.29461C13.4648 6.60691 15.002 6.24283 16.6201 6.24283C19.8159 6.24283 22.7285 7.69914 24.6703 9.96451C26.9356 11.9063 28.3515 14.7784 28.3515 18.0147C28.3515 19.6328 27.9874 21.17 27.3402 22.5454C28.2301 20.8464 28.756 18.9046 28.756 16.8415Z" fill="#E8B18B"/>
<path d="M5.61694 18.0148C5.61694 21.0892 6.74963 23.8805 8.61047 25.984C10.7545 27.8449 13.5457 28.9776 16.5797 28.9776C18.6428 28.9776 20.5441 28.4517 22.2432 27.5617C20.8678 28.2089 19.3305 28.573 17.7124 28.573C14.5166 28.573 11.604 27.1167 9.66225 24.8513C7.39688 22.9096 5.94057 20.0374 5.94057 16.8012C5.94057 15.1831 6.30465 13.6458 6.95189 12.2704C6.14283 14.0099 5.61694 15.9517 5.61694 18.0148Z" fill="#E8B18B"/>
<path d="M16.7011 5.83819C16.7011 5.87865 16.6607 5.9191 16.6202 5.9191C16.5798 5.9191 16.5393 5.87865 16.5393 5.83819V5.06958C16.5393 5.02913 16.5798 4.98868 16.6202 4.98868C16.6607 4.98868 16.7011 5.02913 16.7011 5.06958V5.83819Z" fill="#FFDCC5"/>
<path d="M16.7011 28.6537C16.7011 28.6942 16.6607 28.7347 16.6202 28.7347C16.5798 28.7347 16.5393 28.6942 16.5393 28.6537V27.8851C16.5393 27.8447 16.5798 27.8042 16.6202 27.8042C16.6607 27.8042 16.7011 27.8447 16.7011 27.8851V28.6537Z" fill="#FFDCC5"/>
<path d="M24.4681 9.15539C24.4277 9.19584 24.3872 9.19584 24.3467 9.15539C24.3063 9.11493 24.3063 9.07448 24.3467 9.03403L24.9131 8.46769C24.9535 8.42723 24.994 8.42723 25.0344 8.46769C25.0749 8.50814 25.0749 8.54859 25.0344 8.58905L24.4681 9.15539Z" fill="#FFDCC5"/>
<path d="M8.36801 25.2555C8.32755 25.296 8.2871 25.296 8.24665 25.2555C8.2062 25.2151 8.2062 25.1746 8.24665 25.1342L8.81299 24.5678C8.85344 24.5274 8.89389 24.5274 8.93435 24.5678C8.9748 24.6083 8.9748 24.6488 8.93435 24.6892L8.36801 25.2555Z" fill="#FFDCC5"/>
<path d="M27.6234 16.9627C27.5829 16.9627 27.5425 16.9223 27.5425 16.8818C27.5425 16.8414 27.5829 16.8009 27.6234 16.8009H28.392C28.4324 16.8009 28.4729 16.8414 28.4729 16.8818C28.4729 16.9223 28.4324 16.9627 28.392 16.9627H27.6234Z" fill="#FFDCC5"/>
<path d="M4.84848 16.9628C4.80803 16.9628 4.76758 16.9224 4.76758 16.8819C4.76758 16.8415 4.80803 16.801 4.84848 16.801H5.61709C5.65754 16.7606 5.698 16.801 5.698 16.8415C5.698 16.8819 5.65754 16.9224 5.61709 16.9224H4.84848V16.9628Z" fill="#FFDCC5"/>
<path d="M24.3467 24.7299C24.3063 24.6894 24.3063 24.6489 24.3467 24.6085C24.3872 24.568 24.4277 24.568 24.4681 24.6085L25.0344 25.1748C25.0749 25.2153 25.0749 25.2557 25.0344 25.2962C24.994 25.3366 24.9535 25.3366 24.9131 25.2962L24.3467 24.7299Z" fill="#FFDCC5"/>
<path d="M8.20612 8.58905C8.16567 8.54859 8.16567 8.50814 8.20612 8.46769C8.24657 8.42723 8.28703 8.42723 8.32748 8.46769L8.89382 9.03403C8.93427 9.07448 8.93427 9.11493 8.89382 9.15539C8.85337 9.19584 8.81291 9.19584 8.77246 9.15539L8.20612 8.58905Z" fill="#FFDCC5"/>
<path d="M11.1996 7.29449C11.24 7.33494 11.1996 7.41585 11.1591 7.41585C11.1187 7.4563 11.0377 7.41585 11.0377 7.37539L10.6332 6.68769C10.5928 6.64724 10.6332 6.56633 10.6737 6.56633C10.7141 6.52588 10.795 6.56633 10.795 6.60679L11.1996 7.29449Z" fill="#FFDCC5"/>
<path d="M22.6075 27.0357C22.648 27.0761 22.6075 27.157 22.567 27.157C22.5266 27.1975 22.4457 27.157 22.4457 27.1166L22.0412 26.4289C22.0007 26.3884 22.0412 26.3075 22.0816 26.3075C22.1221 26.2671 22.203 26.3075 22.203 26.348L22.6075 27.0357Z" fill="#FFDCC5"/>
<path d="M19.5734 6.24275C19.5734 6.2832 19.4925 6.32366 19.452 6.32366C19.4115 6.32366 19.3711 6.24275 19.3711 6.2023L19.5734 5.43369C19.5734 5.39324 19.6543 5.35278 19.6947 5.35278C19.7352 5.35278 19.7756 5.43369 19.7756 5.47414L19.5734 6.24275Z" fill="#FFDCC5"/>
<path d="M13.6674 28.2493C13.6674 28.2897 13.5864 28.3302 13.546 28.3302C13.5055 28.3302 13.4651 28.2493 13.4651 28.2088L13.6674 27.4402C13.6674 27.3998 13.7483 27.3593 13.7887 27.3593C13.8292 27.3593 13.8696 27.4402 13.8696 27.4807L13.6674 28.2493Z" fill="#FFDCC5"/>
<path d="M26.2077 11.4207C26.1672 11.4611 26.0863 11.4207 26.0863 11.3802C26.0459 11.3398 26.0863 11.2589 26.1268 11.2589L26.8145 10.8543C26.855 10.8139 26.9359 10.8543 26.9359 10.8948C26.9763 10.9352 26.9359 11.0162 26.8954 11.0162L26.2077 11.4207Z" fill="#FFDCC5"/>
<path d="M6.46648 22.8285C6.42603 22.869 6.34513 22.8285 6.34513 22.7881C6.30467 22.7476 6.34513 22.6667 6.38558 22.6667L7.07328 22.2622C7.11373 22.2217 7.19464 22.2622 7.19464 22.3026C7.23509 22.3431 7.19464 22.424 7.15419 22.424L6.46648 22.8285Z" fill="#FFDCC5"/>
<path d="M27.2188 19.7945C27.1784 19.7945 27.1379 19.7136 27.1379 19.6731C27.1379 19.6326 27.2188 19.5922 27.2593 19.5922L28.0279 19.7945C28.0684 19.7945 28.1088 19.8754 28.1088 19.9158C28.1088 19.9563 28.0279 19.9967 27.9875 19.9967L27.2188 19.7945Z" fill="#FFDCC5"/>
<path d="M5.2125 13.8883C5.17204 13.8883 5.13159 13.8074 5.13159 13.767C5.13159 13.7265 5.2125 13.6861 5.25295 13.6861L6.02156 13.8883C6.06201 13.8883 6.10247 13.9692 6.10247 14.0097C6.10247 14.0501 6.02156 14.0906 5.98111 14.0906L5.2125 13.8883Z" fill="#FFDCC5"/>
<path d="M7.15419 11.2589C7.19464 11.2993 7.23509 11.3398 7.19464 11.3802C7.15419 11.4207 7.11373 11.4611 7.07328 11.4207L6.38558 11.0162C6.34513 10.9757 6.30467 10.9352 6.34513 10.8948C6.38558 10.8543 6.42603 10.8139 6.46648 10.8543L7.15419 11.2589Z" fill="#FFDCC5"/>
<path d="M26.8954 22.6667C26.9359 22.7072 26.9763 22.7476 26.9359 22.7881C26.8954 22.8285 26.855 22.869 26.8145 22.8285L26.1268 22.424C26.0863 22.3836 26.0459 22.3431 26.0863 22.3026C26.1268 22.2622 26.1672 22.2217 26.2077 22.2622L26.8954 22.6667Z" fill="#FFDCC5"/>
<path d="M13.8696 6.2023C13.8696 6.24275 13.8696 6.32366 13.7887 6.32366C13.7483 6.32366 13.6674 6.32366 13.6674 6.24275L13.4651 5.47414C13.4651 5.43369 13.4651 5.35278 13.546 5.35278C13.5864 5.35278 13.6674 5.35278 13.6674 5.43369L13.8696 6.2023Z" fill="#FFDCC5"/>
<path d="M19.7756 28.2088C19.7756 28.2493 19.7756 28.3302 19.6947 28.3302C19.6543 28.3302 19.5734 28.3302 19.5734 28.2493L19.3711 27.4807C19.3711 27.4402 19.3711 27.3593 19.452 27.3593C19.4925 27.3593 19.5734 27.3593 19.5734 27.4402L19.7756 28.2088Z" fill="#FFDCC5"/>
<path d="M22.203 7.37539C22.1625 7.41585 22.1221 7.4563 22.0816 7.41585C22.0412 7.37539 22.0007 7.33494 22.0412 7.29449L22.4457 6.60679C22.4861 6.56633 22.5266 6.52588 22.567 6.56633C22.6075 6.60679 22.648 6.64724 22.6075 6.68769L22.203 7.37539Z" fill="#FFDCC5"/>
<path d="M10.795 27.1166C10.7546 27.157 10.7141 27.1975 10.6737 27.157C10.6332 27.1166 10.5928 27.0761 10.6332 27.0357L11.0377 26.348C11.0782 26.3075 11.1187 26.2671 11.1591 26.3075C11.1996 26.348 11.24 26.3884 11.1996 26.4289L10.795 27.1166Z" fill="#FFDCC5"/>
<path d="M27.2593 14.0906C27.2188 14.0906 27.1379 14.0906 27.1379 14.0097C27.1379 13.9692 27.1379 13.8883 27.2188 13.8883L27.9875 13.6861C28.0279 13.6861 28.1088 13.6861 28.1088 13.767C28.1088 13.8074 28.1088 13.8883 28.0279 13.8883L27.2593 14.0906Z" fill="#FFDCC5"/>
<path d="M5.25295 19.9967C5.2125 19.9967 5.13159 19.9967 5.13159 19.9158C5.13159 19.8754 5.13159 19.7945 5.2125 19.7945L5.98111 19.5922C6.02156 19.5922 6.10247 19.5922 6.10247 19.6731C6.10247 19.7136 6.10247 19.7945 6.02156 19.7945L5.25295 19.9967Z" fill="#FFDCC5"/>
<path d="M18.9261 17.165C19.5329 16.5986 19.8565 15.83 19.8565 14.9805C19.8565 13.4838 18.7643 11.9061 16.3371 11.9061C15.0426 11.9061 13.9099 12.3915 13.3436 12.7961C13.0604 12.9983 12.939 13.3624 13.0604 13.686L13.384 14.6164C13.4649 14.8592 13.6672 15.021 13.8695 15.1019C14.1122 15.1828 14.3549 15.1423 14.5572 14.9805C14.8808 14.7378 15.4876 14.4951 16.0135 14.4951C16.9034 14.4951 16.9034 14.9805 16.9034 15.1828C16.9034 15.8705 15.8921 16.0323 15.528 16.0323H14.7999C14.3549 16.0323 14.0313 16.3964 14.0313 16.8009V17.7718C14.0313 18.2168 14.3954 18.5404 14.7999 18.5404H15.528C15.9326 18.5404 17.2271 18.6213 17.2271 19.7135C17.2271 19.8349 17.2271 20.1585 16.9439 20.4417C16.6607 20.7249 16.1753 20.8058 15.8112 20.8058C15.1235 20.8058 14.3954 20.5226 14.1122 20.3203C13.9099 20.199 13.6672 20.1585 13.4245 20.2394C13.1818 20.3203 13.02 20.4821 12.939 20.7249L12.575 21.7362C12.4536 22.0598 12.575 22.4643 12.8986 22.6666C13.4649 23.0307 14.5572 23.4352 15.8112 23.4352C18.7643 23.4352 20.0992 21.5339 20.0992 19.754C20.2206 18.7022 19.7352 17.7718 18.9261 17.165Z" fill="#FFDCC5"/>
<path d="M14.8807 18.5809H15.6089C16.0134 18.5809 17.3079 18.6618 17.3079 19.754C17.3079 19.8754 17.3079 20.199 17.0247 20.4822C16.7415 20.7654 16.2561 20.8463 15.892 20.8463C15.2043 20.8463 14.4762 20.5631 14.193 20.3608C13.9907 20.2395 13.748 20.199 13.5053 20.2799C13.2626 20.3608 13.1008 20.5227 13.0199 20.7654L12.6558 21.7767C12.5344 22.1003 12.6558 22.5049 12.9794 22.7071C13.5457 23.0712 14.638 23.4757 15.892 23.4757C18.8451 23.4757 20.18 21.5744 20.18 19.7945C20.18 18.7427 19.6946 17.8123 18.8855 17.2055C19.4923 16.6392 19.816 15.8706 19.816 15.021C19.816 14.6165 19.7351 14.2524 19.5732 13.8884L14.8807 18.5809Z" fill="#F7C6A4"/>
<path d="M15.164 9.19588C15.164 9.55996 14.8404 10.1668 14.4763 10.1668C14.1122 10.1668 13.7886 9.55996 13.7886 9.19588C13.7886 8.8318 14.1122 8.50818 14.4763 8.50818C14.8404 8.50818 15.164 8.8318 15.164 9.19588Z" fill="#CC7E48"/>
<path d="M14.4763 9.88358C14.8561 9.88358 15.164 9.57569 15.164 9.19588C15.164 8.81607 14.8561 8.50818 14.4763 8.50818C14.0965 8.50818 13.7886 8.81607 13.7886 9.19588C13.7886 9.57569 14.0965 9.88358 14.4763 9.88358Z" fill="#F7C6A4"/>
<path d="M14.9618 8.71045C15.245 8.99362 15.245 9.39815 14.9618 9.68133C14.6787 9.9645 14.2741 9.9645 13.991 9.68133" fill="#E8B18B"/>
<path d="M17.308 9.19588C17.308 9.55996 16.9844 10.1668 16.6203 10.1668C16.2562 10.1668 15.9326 9.55996 15.9326 9.19588C15.9326 8.8318 16.2562 8.50818 16.6203 8.50818C16.9844 8.50818 17.308 8.8318 17.308 9.19588Z" fill="#CC7E48"/>
<path d="M16.6203 9.88358C17.0001 9.88358 17.308 9.57569 17.308 9.19588C17.308 8.81607 17.0001 8.50818 16.6203 8.50818C16.2405 8.50818 15.9326 8.81607 15.9326 9.19588C15.9326 9.57569 16.2405 9.88358 16.6203 9.88358Z" fill="#F7C6A4"/>
<path d="M17.1056 8.71045C17.3888 8.99362 17.3888 9.39815 17.1056 9.68133C16.8225 9.9645 16.4179 9.9645 16.1348 9.68133" fill="#E8B18B"/>
<path d="M19.4521 9.19588C19.4521 9.55996 19.1284 10.1668 18.7644 10.1668C18.4003 10.1668 18.0767 9.55996 18.0767 9.19588C18.0767 8.8318 18.4003 8.50818 18.7644 8.50818C19.1284 8.50818 19.4521 8.8318 19.4521 9.19588Z" fill="#CC7E48"/>
<path d="M18.7644 9.88358C19.1442 9.88358 19.4521 9.57569 19.4521 9.19588C19.4521 8.81607 19.1442 8.50818 18.7644 8.50818C18.3846 8.50818 18.0767 8.81607 18.0767 9.19588C18.0767 9.57569 18.3846 9.88358 18.7644 9.88358Z" fill="#F7C6A4"/>
<path d="M19.2499 8.71045C19.5331 8.99362 19.5331 9.39815 19.2499 9.68133C18.9668 9.9645 18.5622 9.9645 18.2791 9.68133" fill="#E8B18B"/>
</g>
<defs>
<filter id="filter0_d" x="0.120361" y="0.705566" width="33" height="33" filterUnits="userSpaceOnUse" color-interpolation-filters="sRGB">
<feFlood flood-opacity="0" result="BackgroundImageFix"/>
<feColorMatrix in="SourceAlpha" type="matrix" values="0 0 0 0 0 0 0 0 0 0 0 0 0 0 0 0 0 0 127 0"/>
<feOffset/>
<feGaussianBlur stdDeviation="2"/>
<feColorMatrix type="matrix" values="0 0 0 0 0.807843 0 0 0 0 0.827451 0 0 0 0 0.913725 0 0 0 1 0"/>
<feBlend mode="normal" in2="BackgroundImageFix" result="effect1_dropShadow"/>
<feBlend mode="normal" in="SourceGraphic" in2="effect1_dropShadow" result="shape"/>
</filter>
<clipPath id="clip0">
<rect width="25" height="25" fill="white" transform="translate(4.12036 4.70557)"/>
</clipPath>
</defs>
</svg>
