<svg xmlns="http://www.w3.org/2000/svg" xmlns:xlink="http://www.w3.org/1999/xlink"><defs>
<clipPath id="clip0">
<rect width="100" height="100" fill="white" transform="translate(0.95459 0.444336)"/>
</clipPath>

<clipPath id="clip0">
<rect width="100" height="100" fill="white" transform="translate(0.239502 0.444336)"/>
</clipPath>

<clipPath id="clip0">
<rect width="100" height="100" fill="white" transform="translate(0.95459 0.290039)"/>
</clipPath>

<clipPath>
<rect width="30" height="30" fill="white"/>
</clipPath>

<clipPath id="clip0">
<rect width="30" height="30" fill="white" transform="translate(0.613281 0.716797)"/>
</clipPath>

<clipPath id="clip0">
<rect width="30" height="30" fill="white" transform="translate(0.613281 0.177734)"/>
</clipPath>

<clipPath id="clip0">
<rect width="30" height="30" fill="white" transform="translate(0.613281 0.619385)"/>
</clipPath>

<clipPath id="clip0">
<rect width="100" height="100" fill="white" transform="matrix(-1 0 0 1 100.09 0.594727)"/>
</clipPath>

<clipPath id="clip0">
<rect width="28" height="27" fill="white" transform="translate(21.875 25.6133)"/>
</clipPath>

<clipPath id="clip0">
<rect width="97" height="97" fill="white" transform="translate(0.910156 0.594727)"/>
</clipPath>

<clipPath id="clip0">
<rect width="100" height="100" fill="white" transform="translate(0.808594 0.594727)"/>
</clipPath>
</defs><symbol id="icon-advantages-1" viewBox="0 0 101 101">
<g clip-path="url(#clip0)">
<path d="M79.3175 62.1922C76.1869 57.9994 71.2608 55.5331 66.0286 55.5396H59.3759L51.0602 62.1922H79.3175Z" fill="#7DB8FE" fill-opacity="0.7"/>
<path d="M42.7444 55.5396H36.0918C31.6805 55.5347 27.4487 57.288 24.3336 60.4121C23.7797 60.9667 23.2681 61.5612 22.8036 62.1922H51.0602L42.7444 55.5396Z" fill="#7DB8FE" fill-opacity="0.7"/>
<path d="M66.8438 28.679L68.7393 28.0472C70.1011 27.5957 71.0196 26.3215 71.018 24.8874V15.991L51.1316 22.3009L31.1023 15.9747V24.8874C31.1015 26.3215 32.02 27.5957 33.381 28.0472L34.4286 28.3964L35.2772 28.679C45.5201 32.1052 56.6002 32.1052 66.8438 28.679Z" fill="#7DB8FE" fill-opacity="0.7"/>
<path d="M22.8036 62.1921H9.48132L19.4602 98.7815H82.6601L92.639 62.1921H22.8036ZM57.7128 80.4868C57.7128 84.1607 54.7348 87.1394 51.0602 87.1394C47.3863 87.1394 44.4075 84.1607 44.4075 80.4868C44.4075 76.8121 47.3863 73.8342 51.0602 73.8342C54.7348 73.8342 57.7128 76.8121 57.7128 80.4868Z" fill="#7DB8FE" fill-opacity="0.7"/>
<path d="M71.018 15.9909V15.9893V15.9909L82.66 12.2976L51.1316 2.10669L19.4602 12.2976L31.1023 15.9747V15.9731V15.9747L51.1316 22.3008L71.018 15.9909Z" fill="#7DB8FE" fill-opacity="0.7"/>
<path d="M80.9968 43.8974L76.0074 35.5817L71.0179 43.8974H80.9968Z" fill="#7DB8FE" fill-opacity="0.7"/>
<path d="M51.0602 88.8025C46.4678 88.8025 42.7444 85.0791 42.7444 80.4868C42.7444 75.8936 46.4678 72.171 51.0602 72.171C55.6533 72.171 59.3759 75.8936 59.3759 80.4868C59.3702 85.0767 55.6509 88.7969 51.0602 88.8025ZM51.0602 75.4973C48.3047 75.4973 46.0707 77.7306 46.0707 80.4868C46.0707 83.2422 48.3047 85.4762 51.0602 85.4762C53.8156 85.4762 56.0496 83.2422 56.0496 80.4868C56.0496 77.7306 53.8156 75.4973 51.0602 75.4973Z" fill="#1E81CE"/>
<path d="M93.97 61.1819C93.6533 60.7677 93.1603 60.5257 92.639 60.529H80.0873C76.6433 56.3061 71.4776 53.8617 66.0285 53.8764H61.039V47.5397C66.2055 44.1679 69.3304 38.424 69.3548 32.2554V29.5942C71.3509 28.8941 72.6852 27.0085 72.6811 24.8938V17.2082L74.3443 16.6796V35.1204L69.5928 43.0407C69.2842 43.5539 69.276 44.1947 69.5708 44.716C69.8656 45.2374 70.4186 45.5598 71.018 45.5606H80.9969C81.5962 45.5598 82.1492 45.2374 82.444 44.716C82.7396 44.1947 82.7307 43.5539 82.4221 43.0407L77.6706 35.1204V15.6238L83.1595 13.8819C83.8424 13.6602 84.3053 13.0243 84.3078 12.3057C84.3102 11.587 83.8506 10.9487 83.1692 10.7221L51.644 0.525525C51.3119 0.417517 50.9546 0.417517 50.6232 0.525525L18.9518 10.714C18.2689 10.9381 17.8076 11.5756 17.8076 12.2935C17.8076 13.0122 18.2689 13.6497 18.9518 13.8738L29.4294 17.1839V24.8873C29.4221 27.0077 30.7628 28.8982 32.7654 29.5942V32.2554C32.789 38.4248 35.9139 44.1695 41.0812 47.5413V53.8764H36.0917C31.2379 53.8642 26.5806 55.7945 23.1576 59.2361C22.7581 59.6357 22.4073 60.088 22.0467 60.529H9.48129C8.96318 60.5282 8.47431 60.7702 8.15922 61.1819C7.84494 61.5936 7.74018 62.1288 7.87661 62.629L17.8555 99.2184C18.0529 99.942 18.7098 100.445 19.4602 100.445H82.66C83.4104 100.445 84.0682 99.942 84.2655 99.2184L94.2445 62.629C94.3825 62.1304 94.281 61.5952 93.97 61.1819ZM78.0596 42.2343H73.9553L76.0074 38.813L78.0596 42.2343ZM66.0285 57.2027C69.4498 57.1921 72.7696 58.3672 75.4219 60.529H55.797L59.9549 57.2027H66.0285ZM51.0601 60.0628L44.4075 54.7412V49.2759C48.6799 50.974 53.4403 50.974 57.7127 49.2759V54.7412L51.0601 60.0628ZM51.13 3.84858L77.2069 12.2821L51.13 20.5565L24.9353 12.2821L51.13 3.84858ZM33.8999 26.4676C33.221 26.2394 32.7646 25.6028 32.7654 24.8873V18.2347L50.6313 23.8779C50.9562 23.981 51.3046 23.981 51.6294 23.8779L69.3548 18.2631V24.8873C69.3556 25.606 68.8952 26.2443 68.2122 26.4693L66.3168 27.1011C56.4118 30.3924 45.7077 30.3924 35.8026 27.1011L33.8999 26.4676ZM36.0917 32.2554V30.6434C40.9431 32.1271 45.987 32.8856 51.0601 32.8953C56.1332 32.8856 61.1771 32.1271 66.0285 30.6434V32.2554C66.0163 37.5997 63.1667 42.5348 58.5443 45.2179C53.9 47.8409 48.2211 47.8409 43.5759 45.2179C38.9543 42.5348 36.1047 37.5989 36.0917 32.2554ZM36.0917 57.2027H42.1605L46.3184 60.529H26.6935C29.3498 58.3704 32.6696 57.1954 36.0917 57.2027ZM81.3899 97.1183H20.7311L11.6585 63.8553H90.4618L81.3899 97.1183Z" fill="#2696FE"/>
</g>

</symbol><symbol id="icon-advantages-2" viewBox="0 0 101 101">
<g clip-path="url(#clip0)">
<path d="M58.5729 34.5884C58.5729 48.3953 47.3807 59.5884 33.5729 59.5884C19.7659 59.5884 8.57288 48.3953 8.57288 34.5884C8.57288 20.7806 19.7659 9.58838 33.5729 9.58838C47.3807 9.58838 58.5729 20.7806 58.5729 34.5884Z" fill="#7DB8FE" fill-opacity="0.7"/>
<path d="M58.5729 37.9218C58.5729 30.5577 64.543 24.5884 71.9063 24.5884C79.2704 24.5884 85.2396 30.5577 85.2396 37.9218V47.9218H91.9063V37.9218C91.9063 26.876 82.952 17.9218 71.9063 17.9218C60.8613 17.9218 51.9062 26.876 51.9062 37.9218V47.9218H58.5729V37.9218Z" fill="#7DB8FE" fill-opacity="0.7"/>
<path d="M91.9062 47.9218H51.9062C48.2245 47.9218 45.2395 50.906 45.2395 54.5884V91.2551C45.2395 94.9367 48.2245 97.9218 51.9062 97.9218H91.9062C95.5886 97.9218 98.5728 94.9367 98.5728 91.2551V54.5884C98.5728 50.906 95.5886 47.9218 91.9062 47.9218ZM75.2395 72.0217V82.9218C75.2395 84.7626 73.7478 86.2551 71.9062 86.2551C70.0653 86.2551 68.5728 84.7626 68.5728 82.9218V72.0217C65.9597 70.5129 64.6861 67.4367 65.4674 64.5225C66.2478 61.6083 68.8894 59.5811 71.9062 59.5811C74.9237 59.5811 77.5653 61.6083 78.3458 64.5225C79.127 67.4367 77.8526 70.5129 75.2395 72.0217Z" fill="#7DB8FE" fill-opacity="0.7"/>
<path d="M33.5727 22.9217C38.0901 22.9217 41.906 25.2118 41.906 27.9217H45.2393C45.2393 23.6549 40.9612 20.241 35.2393 19.6779V14.5884H31.906V19.6779C26.185 20.241 21.906 23.6549 21.906 27.9217C21.906 32.5881 27.0313 36.255 33.5727 36.255C38.0901 36.255 41.906 38.5451 41.906 41.255C41.906 43.965 38.0901 46.255 33.5727 46.255C29.0561 46.255 25.2393 43.965 25.2393 41.255H21.906C21.906 45.521 26.185 48.9349 31.906 49.498V54.5884H35.2393V49.498C40.9612 48.9349 45.2393 45.521 45.2393 41.255C45.2393 36.5879 40.1148 32.9217 33.5727 32.9217C29.0561 32.9217 25.2393 30.6317 25.2393 27.9217C25.2393 25.2118 29.0561 22.9217 33.5727 22.9217Z" fill="#2696FE"/>
<path d="M93.5725 46.4209V37.9216C93.5913 30.4932 89.7933 23.5759 83.5156 19.6038C77.2388 15.6316 69.362 15.1612 62.6563 18.3578C54.7438 4.1839 37.7695 -2.22639 22.4628 3.18049C7.15686 8.58656 -2.02605 24.2367 0.719712 40.2352C3.46547 56.2345 17.3399 67.9271 33.5728 67.9215C36.9671 67.919 40.3403 67.3917 43.5727 66.3598V91.2547C43.5784 95.8543 47.3064 99.5823 51.906 99.588H91.9059C96.5063 99.5823 100.234 95.8543 100.239 91.2547V54.5882C100.234 50.629 97.4503 47.2184 93.5725 46.4209ZM90.2392 37.9216V46.2549H86.9059V37.9216C86.9059 29.6371 80.1904 22.9216 71.906 22.9216C63.6223 22.9216 56.906 29.6371 56.906 37.9216V46.2549H53.5727V37.9216C53.5727 27.7963 61.7815 19.5883 71.906 19.5883C82.0312 19.5883 90.2392 27.7963 90.2392 37.9216ZM63.23 30.1498C63.4547 31.6187 63.5694 33.1022 63.5727 34.5882C63.5751 38.6011 62.7515 42.5724 61.1549 46.2549H60.2393V37.9216C60.241 35.0497 61.3062 32.2811 63.23 30.1498ZM66.1833 27.7662C69.7925 25.7227 74.2163 25.752 77.7979 27.8435C81.3794 29.9349 83.5791 33.7736 83.5726 37.9216V46.2549H64.7795C67.0118 40.354 67.4992 33.9356 66.1833 27.7662ZM33.5728 64.5881C18.9521 64.602 6.44967 54.0738 3.97572 39.6631C1.50259 25.2523 9.77811 11.1582 23.5671 6.29571C37.3561 1.43326 52.6425 7.22019 59.7551 19.9944C58.8282 20.6324 57.9534 21.3412 57.1363 22.1143C50.4176 9.39303 34.822 4.2897 21.8826 10.5779C8.94315 16.867 3.3198 32.2828 9.17101 45.4256C15.023 58.5693 30.2411 64.7053 43.5727 59.2976V62.8377C40.3656 63.9924 36.9826 64.5841 33.5728 64.5881ZM43.5727 54.5882V55.6331C40.4534 57.1345 37.0355 57.9166 33.5728 57.9215C21.9851 57.9272 12.1487 49.4279 10.4731 37.9623C8.79748 26.4958 15.7905 15.5372 26.8956 12.2267C38.0007 8.91696 49.852 14.2579 54.7283 24.7698C51.8198 28.5368 50.2418 33.1617 50.2394 37.9216V46.4209C46.3624 47.2184 43.5784 50.629 43.5727 54.5882ZM96.9059 91.2547C96.9059 94.0159 94.6679 96.2547 91.9059 96.2547H51.906C49.1448 96.2547 46.9061 94.0159 46.9061 91.2547V54.5882C46.9061 51.8261 49.1448 49.5882 51.906 49.5882H91.9059C94.6679 49.5882 96.9059 51.8261 96.9059 54.5882V91.2547Z" fill="#2696FE"/>
<path d="M73.9298 58.1632C71.4225 57.5472 68.7719 58.1185 66.7415 59.7127C64.7111 61.3159 63.54 63.7711 63.5726 66.3574C63.6043 68.9445 64.8364 71.3696 66.9059 72.9215V82.9215C66.9059 85.6827 69.1447 87.9215 71.9059 87.9215C74.6679 87.9215 76.9059 85.6827 76.9059 82.9215V72.9215C79.6037 70.8984 80.8187 67.4519 79.9878 64.1845C79.248 61.2052 76.9132 58.8842 73.9298 58.1632ZM74.41 70.5761C73.8932 70.874 73.5758 71.4249 73.5766 72.0214V82.9215C73.5766 83.8419 72.8304 84.5882 71.91 84.5882C70.9887 84.5882 70.2433 83.8419 70.2433 82.9215V72.0214C70.2433 71.4249 69.9259 70.874 69.41 70.5761C67.9777 69.7461 67.0491 68.2609 66.9303 66.6105C66.8107 64.9593 67.5171 63.3569 68.8143 62.3299C69.6891 61.6308 70.7755 61.2516 71.8945 61.2548C72.3209 61.2557 72.7449 61.3061 73.16 61.4062C74.9186 61.8457 76.2955 63.212 76.748 64.9682C77.3136 67.1508 76.3558 69.4433 74.4059 70.5761H74.41Z" fill="#2696FE"/>
</g>

</symbol><symbol id="icon-advantages-3" viewBox="0 0 101 101">
<g clip-path="url(#clip0)">
<path d="M41.5763 86.4797L50.9545 91.1697L60.3336 86.4797C75.0537 79.1832 84.344 64.1506 84.2879 47.7216V8.62329H17.6212V47.7216C17.5659 64.1506 26.8562 79.1832 41.5763 86.4797ZM34.1699 39.0766L45.9545 50.8612L69.5247 27.2903L74.2399 32.003L45.9545 60.29L29.4547 43.7901L34.1699 39.0766Z" fill="#7DB8FE" fill-opacity="0.7"/>
<path d="M50.9546 100.29C50.6974 100.293 50.4419 100.236 50.21 100.123L37.8499 93.9432C20.2962 85.2412 9.21875 67.314 9.28792 47.7217V1.95671C9.28792 1.0363 10.0342 0.290039 10.9546 0.290039H90.9546C91.8758 0.290039 92.6213 1.0363 92.6213 1.95671V47.7217C92.688 67.3107 81.6105 85.2339 64.0601 93.9351L51.7 100.123C51.4681 100.236 51.2126 100.293 50.9546 100.29ZM12.6213 3.62337V47.7217C12.5578 66.0485 22.9207 82.8169 39.34 90.9566L50.9546 96.7598L62.57 90.9566C78.9893 82.8169 89.3522 66.0485 89.2879 47.7217V3.62337H12.6213Z" fill="#2696FE"/>
<path d="M50.9546 92.8364C50.6958 92.8372 50.4411 92.7762 50.21 92.6598L40.8317 87.9715C25.5461 80.3933 15.8976 64.783 15.9546 47.7216V8.62333C15.9546 7.70292 16.7009 6.95667 17.6213 6.95667H84.2879C85.2092 6.95667 85.9546 7.70292 85.9546 8.62333V47.7216C86.0124 64.783 76.3639 80.3933 61.0783 87.9715L51.7 92.6598C51.4689 92.7762 51.2134 92.8372 50.9546 92.8364ZM19.2879 10.29V47.7216C19.235 63.5192 28.1681 77.9731 42.3218 84.9897L50.9546 89.3069L59.5882 84.9897C73.7419 77.9731 82.675 63.5192 82.6213 47.7216V10.29H19.2879Z" fill="#2696FE"/>
<path d="M45.9546 61.9567C45.5127 61.9567 45.0895 61.781 44.777 61.4685L28.2764 44.9686C27.6261 44.3176 27.6261 43.2629 28.2764 42.6119L32.9899 37.8967C33.6507 37.2717 34.6859 37.2717 35.3467 37.8967L45.9546 48.5054L68.348 26.1136C68.999 25.4626 70.0545 25.4626 70.7048 26.1136L75.4183 30.8264C76.0693 31.4774 76.0693 32.5329 75.4183 33.1831L47.133 61.4685C46.8205 61.781 46.3973 61.9567 45.9546 61.9567ZM31.8132 43.7902L45.9546 57.9333L71.8831 32.0048L69.5264 29.6488L47.133 52.0397C46.4827 52.6908 45.4272 52.6908 44.777 52.0397L34.1699 41.4335L31.8132 43.7902Z" fill="#2696FE"/>
</g>

</symbol><symbol id="icon-advantages-4" viewBox="0 0 100 92">
  <g>
    <path d="M5.39179 44.4624H10.7904C11.6362 44.4624 12.322 45.1481 12.322 45.9939V88.8777C12.322 89.7235 13.0077 90.4092 13.8535 90.4092H35.2954C36.1412 90.4092 36.8269 89.7235 36.8269 88.8777V64.3727C36.8269 63.5269 37.5127 62.8411 38.3585 62.8411H53.6741C54.5199 62.8411 55.2057 63.5269 55.2057 64.3727V88.8777C55.2057 89.7235 55.8914 90.4092 56.7372 90.4092H78.1791C79.0249 90.4092 79.7107 89.7235 79.7107 88.8777V45.9939C79.7107 45.1481 80.3964 44.4624 81.2422 44.4624H86.6408C87.2668 44.4661 87.8314 44.0885 88.0669 43.5089C88.3033 42.9293 88.1627 42.2645 87.7132 41.83L47.0887 2.60543C46.4949 2.0311 45.5534 2.0311 44.9596 2.60543L4.32688 41.83C3.87818 42.2638 3.73759 42.9263 3.97166 43.5052C4.20573 44.084 4.76735 44.4624 5.39179 44.4624Z" fill="#7DB8FE" fill-opacity="0.7"/>
    <path d="M78.1791 91.9409H56.7373C55.0457 91.9409 53.6742 90.5701 53.6742 88.8778V64.3728H38.3585V88.8778C38.3585 90.5701 36.987 91.9409 35.2954 91.9409H13.8536C12.162 91.9409 10.7904 90.5701 10.7904 88.8778V45.994H5.39184C4.14296 45.994 3.01897 45.2365 2.55157 44.0781C2.08343 42.9205 2.36611 41.5945 3.26426 40.7271L43.8888 1.50398C45.0726 0.350073 46.9601 0.350073 48.1439 1.50398L88.77 40.7286C89.6673 41.5968 89.9485 42.922 89.4804 44.0796C89.013 45.2365 87.889 45.994 86.6409 45.994H81.2423V88.8778C81.2423 90.5701 79.8707 91.9409 78.1791 91.9409ZM38.3585 61.3097H53.6742C55.3658 61.3097 56.7373 62.6812 56.7373 64.3728V88.8778H78.1791V45.994C78.1791 44.3025 79.5507 42.9309 81.2423 42.9309H86.6566L46.0164 3.70784L5.39184 42.9309H10.7904C12.482 42.9309 13.8536 44.3025 13.8536 45.994V88.8778H35.2954V64.3728C35.2954 62.6812 36.6669 61.3097 38.3585 61.3097Z" fill="#2696FE"/>
  </g>
  <g>
    <circle cx="76.0955" cy="26.2591" r="21.7462" stroke="#2696FE" stroke-width="3"/>
    <path d="M75.9553 3.71716C63.5283 3.71716 53.4492 13.7962 53.4492 26.2232C53.4492 38.6502 63.5283 48.7293 75.9553 48.7293C88.3823 48.7293 98.4613 38.6502 98.4613 26.2232C98.4613 13.7962 88.3823 3.71716 75.9553 3.71716Z" fill="white"/>
    <path d="M75.9554 16.1343C70.3967 16.1245 65.0612 18.3269 61.1422 22.275C60.8319 22.5755 60.822 23.0606 61.1229 23.3713C61.4234 23.6817 61.9084 23.6911 62.2188 23.3906C62.2286 23.3808 62.2286 23.3808 62.2385 23.3713C69.8146 15.7948 82.0863 15.7948 89.6628 23.3615C89.6628 23.3615 89.6628 23.3615 89.6723 23.3713C89.983 23.6718 90.468 23.6623 90.7685 23.3516C91.0596 23.0511 91.0596 22.5755 90.7685 22.275C86.8495 18.3269 81.5141 16.1245 75.9554 16.1343Z" fill="#2696FE"/>
    <path d="M75.9551 20.7907C71.6283 20.7808 67.4861 22.4982 64.4303 25.5634C64.1298 25.8738 64.1393 26.3588 64.4497 26.6597C64.7506 26.9507 65.2257 26.9507 65.5266 26.6597C71.2793 20.8976 80.6115 20.8976 86.3642 26.6498L86.3737 26.6597C86.6844 26.9606 87.1694 26.9507 87.4699 26.6404C87.761 26.3395 87.761 25.8643 87.4699 25.5634C84.424 22.4982 80.2818 20.7808 75.9551 20.7907Z" fill="#2696FE"/>
    <path d="M75.9555 30.1035C74.1025 30.1035 72.3275 30.8311 71.0179 32.1407C70.717 32.4511 70.7269 32.9361 71.0372 33.237C71.3377 33.528 71.8133 33.528 72.1138 33.237C74.2385 31.1123 77.6823 31.1123 79.8067 33.237C80.1075 33.5474 80.5926 33.5474 80.9029 33.2563C81.2133 32.9554 81.2133 32.4704 80.9223 32.16C80.9128 32.1506 80.9128 32.1506 80.9029 32.1407C79.5835 30.8311 77.8085 30.1035 75.9555 30.1035Z" fill="#2696FE"/>
    <path d="M82.0666 27.1933C78.322 24.8651 73.5784 24.8651 69.8337 27.1933C69.0675 27.6685 68.3592 28.2217 67.7192 28.8523C67.4183 29.1528 67.4183 29.6477 67.7192 29.9482C68.0197 30.2491 68.5146 30.2491 68.8151 29.9482C69.3198 29.4438 69.8822 28.9978 70.4839 28.6098C73.811 26.4559 78.0893 26.4559 81.4168 28.6098C82.0181 28.9978 82.5809 29.4438 83.0852 29.9581C83.3861 30.2589 83.8806 30.2589 84.1815 29.9581C84.482 29.6572 84.482 29.1627 84.1815 28.8618C83.5411 28.2217 82.8329 27.6685 82.0666 27.1933Z" fill="#2696FE"/>
    <path d="M75.9552 35.536C75.1015 35.536 74.4031 36.2344 74.4031 37.0882C74.4031 37.9419 75.1015 38.6403 75.9552 38.6403C76.809 38.6403 77.5074 37.9419 77.5074 37.0882C77.5074 36.2344 76.809 35.536 75.9552 35.536Z" fill="#2696FE"/>
    <path d="M75.9552 2.94104C63.1015 2.94104 52.6731 13.3695 52.6731 26.2232C52.6731 39.0768 63.1015 49.5053 75.9552 49.5053C88.8089 49.5053 99.2373 39.0768 99.2373 26.2232C99.2275 13.3695 88.8089 2.95089 75.9552 2.94104ZM75.9552 47.9531C63.9553 47.9531 54.2252 38.2231 54.2252 26.2232C54.2252 14.2232 63.9553 4.49318 75.9552 4.49318C87.9551 4.49318 97.6852 14.2232 97.6852 26.2232C97.6753 38.2231 87.9551 47.9433 75.9552 47.9531Z" fill="#1E81CE"/>
  </g>
</symbol><symbol id="icon-arrow-left" viewBox="0 0 25 48">
  <path d="M22.6689 45.9185L2.66894 24.6403L22.6689 2.30981" fill="none" stroke="#FECE26" stroke-width="4" stroke-linecap="round" stroke-linejoin="round"/>
</symbol><symbol id="icon-arrow-right" viewBox="0 0 24 48">
<path d="M2 45.9185L22 24.6403L2 2.30981" fill="none" stroke="#FECE26" stroke-width="4" stroke-linecap="round" stroke-linejoin="round"/>
</symbol><symbol id="icon-checked-green" viewBox="0 0 29 25">
<path d="M2.83325 13.7987L10.1666 22.4653L26.1666 2.46533" stroke="#00B612" stroke-width="4" fill="#f5f6fa" stroke-linecap="round" stroke-linejoin="round"/>
</symbol><symbol id="icon-google-plus" viewBox="0 0 31 31">
<g>
<path d="M15.6133 30.6194C23.8976 30.6194 30.6133 23.9037 30.6133 15.6194C30.6133 7.33511 23.8976 0.619385 15.6133 0.619385C7.32901 0.619385 0.613281 7.33511 0.613281 15.6194C0.613281 23.9037 7.32901 30.6194 15.6133 30.6194Z" fill="#CF4C3C"/>
<path d="M22.467 13.2468L20.3271 15.8214L16.298 11.6309H10.7311L8.47803 14.0705V19.3388L19.2959 30.1633C24.194 28.9269 28.1328 25.2814 29.7793 20.5605L22.467 13.2468Z" fill="#AD3228"/>
<path d="M13.0519 16.7529H15.7349C15.264 18.0842 13.9884 19.0388 12.4954 19.0279C10.6837 19.0145 9.18538 17.5651 9.11518 15.7547C9.03983 13.814 10.5967 12.211 12.5208 12.211C13.4007 12.211 14.2036 12.5464 14.8089 13.0957C14.9524 13.2257 15.1704 13.2267 15.3115 13.0939L16.297 12.1666C16.4511 12.0215 16.4516 11.7765 16.2979 11.6311C15.338 10.7215 14.0503 10.1546 12.6302 10.127C9.60151 10.0677 7.04852 12.551 7.02748 15.5803C7.00609 18.6325 9.47377 21.1133 12.5208 21.1133C15.4513 21.1133 17.8452 18.8188 18.0055 15.9286C18.0097 15.8923 18.0126 14.6677 18.0126 14.6677H13.052C12.8487 14.6677 12.6839 14.8325 12.6839 15.0358V16.3848C12.6838 16.5881 12.8487 16.7529 13.0519 16.7529Z" fill="white"/>
<path d="M22.5586 14.7901V13.4719C22.5586 13.2937 22.4143 13.1494 22.2361 13.1494H21.1267C20.9485 13.1494 20.8041 13.2937 20.8041 13.4719V14.7901H19.4862C19.308 14.7901 19.1633 14.9344 19.1633 15.1127V16.222C19.1633 16.4001 19.3079 16.5446 19.4862 16.5446H20.8041V17.8626C20.8041 18.0408 20.9484 18.1852 21.1267 18.1852H22.2361C22.4143 18.1852 22.5586 18.0408 22.5586 17.8626V16.5446H23.8768C24.0549 16.5446 24.1994 16.4001 24.1994 16.222V15.1127C24.1994 14.9345 24.0549 14.7901 23.8768 14.7901H22.5586Z" fill="#D1D1D1"/>
</g>

</symbol><symbol id="icon-telegram" viewBox="0 0 31 31">
<g clip-path="url(#clip0)">
<path d="M15.6133 30.7168C23.8976 30.7168 30.6133 24.0011 30.6133 15.7168C30.6133 7.43253 23.8976 0.716797 15.6133 0.716797C7.32901 0.716797 0.613281 7.43253 0.613281 15.7168C0.613281 24.0011 7.32901 30.7168 15.6133 30.7168Z" fill="#7AA5DA"/>
<path d="M30.6133 15.7168C30.6133 15.494 30.5208 15.2819 30.3632 15.1245L28.8318 13.5957C26.2163 10.9845 21.9192 11.1977 19.575 14.0551L17.1946 16.9566C14.8732 19.7862 15.0764 23.9151 17.6643 26.503C19.6423 28.481 22.7015 29.2306 24.8975 27.4979C28.3786 24.7513 30.6133 20.4952 30.6133 15.7168Z" fill="#5786B5"/>
<path d="M23.0968 8.54027C23.6948 8.30695 24.313 8.83019 24.1817 9.45844L21.4998 22.2776C21.3746 22.8786 20.6685 23.1493 20.1736 22.7857L18.5026 21.5592C17.1385 20.5578 15.2455 20.7121 14.0615 21.9211C13.6989 22.2908 13.0736 22.1403 12.918 21.6473L12.6795 20.8902C11.8979 18.4089 9.93309 16.4792 7.43823 15.7423C6.91399 15.5877 6.88369 14.8584 7.39176 14.6595L23.0968 8.54027ZM21.1281 11.3847C21.3029 11.2301 21.0998 10.9574 20.9018 11.0807L12.2877 16.4231C12.1362 16.517 12.0665 16.7019 12.12 16.8725L13.2947 22.0311C13.318 22.1099 13.4311 22.0988 13.4412 22.017L13.7038 18.0857C13.7139 17.9887 13.7604 17.8999 13.8331 17.8352L21.1281 11.3847Z" fill="white"/>
<path d="M20.9017 11.0806C21.0997 10.9574 21.3028 11.2301 21.128 11.3847L13.8331 17.8352C13.7604 17.8998 13.7139 17.9887 13.7038 18.0857L13.4412 22.017C13.4311 22.0988 13.318 22.1099 13.2947 22.0311L12.1199 16.8725C12.0664 16.7018 12.1361 16.517 12.2876 16.423L20.9017 11.0806Z" fill="#9EC2E5"/>
<path d="M13.3372 22.0846C13.3372 22.0846 13.3372 22.0846 13.3372 22.0846C13.1473 22.0169 12.9867 21.8654 12.918 21.6472L12.6795 20.89C11.8979 18.4088 9.93309 16.4791 7.43823 15.7422C6.91399 15.5876 6.88369 14.8583 7.39176 14.6593L23.0968 8.54021C23.4826 8.38969 23.8776 8.55434 24.0725 8.85943C24.0099 8.76378 23.8781 8.76092 23.7895 8.83323L13.3472 17.3579C13.3108 17.3876 13.2897 17.4321 13.2897 17.4791V17.75C13.2897 17.7649 13.2729 17.7735 13.2608 17.7648C13.2486 17.756 13.2316 17.7649 13.232 17.78L13.2897 20.1413V22.0409C13.2897 22.0553 13.298 22.0685 13.3114 22.0737C13.3196 22.0769 13.328 22.0798 13.3363 22.0824C13.3368 22.0825 13.3372 22.083 13.3372 22.0835V22.0846C13.3372 22.0846 13.3372 22.0846 13.3372 22.0846Z" fill="white"/>
<path d="M24.1986 9.24315C24.2017 9.31183 24.1966 9.38454 24.1815 9.45831L21.4996 22.2775C21.3744 22.8785 20.6683 23.1492 20.1734 22.7856L16.1249 19.8139L13.4506 17.9008C13.3495 17.8285 13.2896 17.7119 13.2896 17.5876C13.2896 17.4719 13.3415 17.3624 13.4311 17.2892L23.7894 8.83311C23.878 8.76079 24.0098 8.76361 24.0724 8.85931C24.0795 8.87144 24.0865 8.88251 24.0936 8.89364C24.0996 8.90577 24.1067 8.9179 24.1128 8.92898C24.1188 8.9411 24.1249 8.95323 24.13 8.96536C24.136 8.97849 24.1411 8.99062 24.1461 9.00374C24.1502 9.01487 24.1552 9.02694 24.1593 9.04013C24.1724 9.0795 24.1825 9.11993 24.1896 9.16235C24.1936 9.1886 24.1966 9.21491 24.1986 9.24315Z" fill="#D1D1D1"/>
<path d="M15.0614 19.0532C15.6203 19.4529 15.6908 20.2571 15.21 20.748L14.0612 21.921C14.0441 21.9381 14.0259 21.9553 14.0077 21.9705C13.9895 21.9856 13.9713 21.9988 13.9521 22.0119C13.9521 22.0119 13.9521 22.0119 13.9521 22.0119C13.952 22.012 13.9501 22.0136 13.95 22.0137C13.912 22.0386 13.873 22.0595 13.832 22.0765C13.8107 22.0846 13.7905 22.0927 13.7693 22.0977C13.6814 22.124 13.5915 22.1311 13.5027 22.122C13.4826 22.1203 13.4626 22.117 13.4432 22.1136C13.4371 22.1125 13.4308 22.1118 13.4249 22.1099C13.4027 22.1039 13.3804 22.0978 13.3582 22.0907C13.3446 22.0869 13.3368 22.074 13.3365 22.0599L13.2896 20.1412V19.9642C13.2896 19.0527 14.3201 18.5229 15.0614 19.0532Z" fill="#D1D1D1"/>
<path d="M14.0079 21.9705C13.99 21.9855 13.972 21.9994 13.953 22.0124C13.9528 22.0126 13.9524 22.0124 13.9524 22.0121C13.9524 22.012 13.9525 22.0118 13.9526 22.0118C13.9717 21.9987 13.9898 21.9856 14.0079 21.9705Z" fill="#DADDE0"/>
<path d="M13.9529 22.012C13.9529 22.012 13.9529 22.012 13.9529 22.012C13.9529 22.012 13.9519 22.013 13.9519 22.013C13.9518 22.0131 13.9516 22.0133 13.9514 22.0135C13.9514 22.0135 13.9514 22.0135 13.9514 22.0135C13.9514 22.0135 13.9514 22.0135 13.9529 22.012Z" fill="#DADDE0"/>
<path d="M13.8323 22.0766C13.8737 22.0594 13.9131 22.0382 13.9515 22.0129C13.9131 22.0381 13.8726 22.0593 13.8323 22.0766Z" fill="#DADDE0"/>
<path d="M13.5151 22.1239C13.5125 22.1239 13.5128 22.1229 13.5153 22.1231C13.6001 22.1303 13.6858 22.1227 13.7696 22.0977C13.706 22.1179 13.6403 22.127 13.5746 22.127C13.5544 22.127 13.5342 22.126 13.5151 22.1239Z" fill="#DADDE0"/>
<path d="M13.5745 22.1271C13.5543 22.1271 13.5341 22.1261 13.5149 22.124C13.5341 22.1261 13.5543 22.1271 13.5745 22.1271Z" fill="white"/>
<path d="M13.4904 22.1211C13.4986 22.1219 13.5067 22.1241 13.5149 22.1241C13.4937 22.1231 13.4745 22.12 13.4543 22.116C13.4663 22.1183 13.4784 22.12 13.4904 22.1211Z" fill="white"/>
<path d="M13.5028 22.1221C13.4866 22.1211 13.4704 22.1191 13.4543 22.1161C13.4525 22.1158 13.4526 22.1154 13.4544 22.1157C13.4703 22.1184 13.4865 22.1207 13.5028 22.1221Z" fill="#DADDE0"/>
<path d="M13.3584 22.0908C13.3806 22.0979 13.4029 22.1039 13.4251 22.11C13.416 22.108 13.4069 22.106 13.3978 22.104C13.3902 22.1021 13.3827 22.0992 13.3752 22.097C13.3695 22.0953 13.3638 22.0932 13.3584 22.0908Z" fill="#DADDE0"/>
<path d="M13.3977 22.1038C13.4068 22.1058 13.4159 22.1078 13.425 22.1098C13.4159 22.1088 13.4068 22.1068 13.3977 22.1038Z" fill="white"/>
<path d="M13.3413 22.0857C13.3526 22.0894 13.3639 22.0935 13.3753 22.0969C13.3792 22.098 13.3831 22.099 13.3868 22.0998C13.3716 22.0968 13.3565 22.0917 13.3413 22.0857Z" fill="white"/>
<path d="M13.3584 22.0908C13.3532 22.0899 13.3487 22.0883 13.3438 22.0866C13.3422 22.0861 13.3402 22.0865 13.3387 22.0858C13.3382 22.0856 13.3378 22.0853 13.3374 22.085C13.3373 22.0849 13.3372 22.0846 13.3372 22.0844C13.3372 22.0837 13.3379 22.0832 13.3386 22.0835C13.3451 22.087 13.3518 22.0889 13.3584 22.0908Z" fill="#DADDE0"/>
<path d="M13.2896 20.1414L13.3362 22.0479C13.3366 22.065 13.3199 22.0774 13.3041 22.0709C13.2951 22.0672 13.2896 22.0584 13.2896 22.0486V20.1414Z" fill="#D1D1D1"/>
<path d="M13.2777 17.777C13.2852 17.7824 13.2896 17.791 13.2896 17.8002V20.1412L13.2324 17.8009C13.2318 17.7772 13.2586 17.7631 13.2777 17.777Z" fill="#DADDE0"/>
<path d="M21.128 11.3846L13.8331 17.8352C13.7604 17.8998 13.7139 17.9887 13.7038 18.0857L13.4416 22.0173C13.4316 22.0991 13.3184 22.1102 13.2942 22.0314L12.1199 16.8725C12.0664 16.7019 12.1361 16.517 12.2876 16.4231L20.9018 11.0807C21.0998 10.9574 21.3028 11.2301 21.128 11.3846Z" fill="#ADBCC9"/>
</g>

</symbol><symbol id="icon-viber" viewBox="0 0 31 31">
<g clip-path="url(#clip0)">
<path d="M15.6133 30.1777C23.8976 30.1777 30.6133 23.462 30.6133 15.1777C30.6133 6.89346 23.8976 0.177734 15.6133 0.177734C7.32901 0.177734 0.613281 6.89346 0.613281 15.1777C0.613281 23.462 7.32901 30.1777 15.6133 30.1777Z" fill="#6F3FAA"/>
<path d="M25.1044 11.3905C23.1533 9.43931 20.7226 7.95968 18.0047 7.48282C15.7133 7.08076 13.4075 6.98524 11.0679 7.80411C8.64366 8.71319 8.64366 11.3395 8.74468 13.5617C8.74468 14.1677 8.03763 14.9759 8.34062 15.6829C8.94351 17.6926 9.44649 19.7024 11.5401 20.7176C11.5617 20.7281 11.5834 20.7396 11.602 20.7549C11.7556 20.8808 11.7152 21.0721 11.7026 21.2685C11.6919 21.4341 11.4719 21.6785 11.4719 21.8445C11.4719 22.8994 12.0106 24.0122 12.7566 24.7579L15.0262 27.0265C16.8884 28.8879 19.6007 29.8804 21.9837 28.7609C24.4696 27.593 26.5825 25.763 28.0952 23.498C30.6179 19.7209 28.6568 14.9428 25.4451 11.7311L25.1044 11.3905Z" fill="#512D84"/>
<path d="M23.5484 10.72L23.5435 10.7002C23.1427 9.07995 21.3358 7.34136 19.6764 6.97966L19.6577 6.97579C16.9738 6.4638 14.2524 6.4638 11.569 6.97579L11.5498 6.97966C9.89098 7.34136 8.084 9.08007 7.6827 10.7002L7.67824 10.72C7.18277 12.9828 7.18277 15.2775 7.67824 17.5402L7.6827 17.56C7.9367 18.5853 8.7535 19.6577 9.73947 20.3987C10.5953 21.0418 11.3367 21.9642 11.3367 23.0348C11.3367 23.6894 12.1345 24.0109 12.5881 23.5385L13.5933 22.4937C14.1185 21.9477 14.8558 21.6683 15.6134 21.6683C16.9644 21.6683 18.316 21.5405 19.6577 21.2846L19.6764 21.2807C21.3357 20.919 23.1427 19.1803 23.5434 17.5601L23.5484 17.5403C24.0438 15.2775 24.0438 12.9829 23.5484 10.72ZM22.0982 17.2122C21.8306 18.2693 20.4587 19.5834 19.3686 19.8262C17.9415 20.0976 16.5031 20.2136 15.0662 20.1738C15.0376 20.173 15.0101 20.1841 14.9902 20.2046C14.7878 20.4123 13.6693 21.5606 13.6524 21.578C13.6519 21.5785 13.652 21.5784 13.6514 21.579L12.2291 23.0388C12.125 23.1473 11.9422 23.0734 11.9422 22.9237V19.9275C11.9422 19.8782 11.9073 19.8364 11.8591 19.8265C11.8585 19.8264 11.858 19.8263 11.8574 19.8262C10.7674 19.5833 9.39592 18.2692 9.12785 17.2121C8.68189 15.1668 8.68189 13.0934 9.12785 11.0482C9.39592 9.99108 10.7674 8.67694 11.8574 8.43413C14.3498 7.96011 16.8768 7.96011 19.3686 8.43413C20.4592 8.67694 21.8306 9.99108 22.0982 11.0482C22.5447 13.0935 22.5447 15.1669 22.0982 17.2122Z" fill="white"/>
<path d="M17.9844 18.5953C17.8168 18.5444 17.6572 18.5103 17.5088 18.4488C15.9718 17.8111 14.5573 16.9885 13.437 15.7275C12.7998 15.0104 12.3011 14.2008 11.8796 13.344C11.6797 12.9378 11.5112 12.5156 11.3395 12.0961C11.1829 11.7136 11.4135 11.3184 11.6564 11.0301C11.8842 10.7596 12.1775 10.5526 12.4951 10.4C12.7429 10.2809 12.9874 10.3496 13.1684 10.5597C13.5597 11.0139 13.9192 11.4913 14.2102 12.0178C14.3892 12.3417 14.3401 12.7375 14.0157 12.9579C13.9368 13.0115 13.865 13.0744 13.7916 13.1349C13.7271 13.1879 13.6665 13.2414 13.6224 13.3132C13.5417 13.4445 13.5378 13.5995 13.5897 13.7423C13.9897 14.8416 14.664 15.6965 15.7705 16.157C15.9476 16.2306 16.1254 16.3163 16.3294 16.2926C16.671 16.2527 16.7816 15.8779 17.021 15.6822C17.255 15.4909 17.5541 15.4883 17.8061 15.6478C18.0582 15.8074 18.3025 15.9787 18.5455 16.1518C18.7839 16.3217 19.0213 16.4878 19.2412 16.6816C19.4527 16.8679 19.5256 17.1122 19.4064 17.3649C19.1885 17.8279 18.8712 18.2129 18.4136 18.4588C18.2844 18.528 18.1301 18.5505 17.9844 18.5953C17.8168 18.5444 18.1301 18.5505 17.9844 18.5953Z" fill="white"/>
<path d="M15.6174 9.87067C17.6277 9.92703 19.2789 11.2612 19.6328 13.2487C19.6931 13.5873 19.7145 13.9335 19.7414 14.2773C19.7527 14.4218 19.6708 14.5592 19.5148 14.5611C19.3537 14.563 19.2812 14.4282 19.2706 14.2837C19.2499 13.9977 19.2356 13.7103 19.1962 13.4267C18.9881 11.9291 17.7939 10.6901 16.3033 10.4243C16.079 10.3842 15.8495 10.3738 15.6222 10.3499C15.4786 10.3348 15.2905 10.3262 15.2587 10.1476C15.232 9.99787 15.3584 9.8787 15.5009 9.87102C15.5395 9.86873 15.5785 9.87055 15.6174 9.87067C17.6278 9.92703 15.5785 9.87055 15.6174 9.87067Z" fill="white"/>
<path d="M18.6726 13.831C18.6692 13.8562 18.6675 13.9152 18.6528 13.9707C18.5994 14.1725 18.2933 14.1978 18.223 13.9942C18.202 13.9337 18.1989 13.865 18.1988 13.7999C18.1981 13.3742 18.1056 12.9488 17.8909 12.5783C17.6701 12.1975 17.3329 11.8775 16.9374 11.6837C16.6982 11.5667 16.4397 11.4938 16.1775 11.4505C16.063 11.4316 15.9472 11.4201 15.832 11.4041C15.6925 11.3847 15.618 11.2958 15.6247 11.1583C15.6308 11.0295 15.725 10.9368 15.8654 10.9448C16.3267 10.971 16.7724 11.0708 17.1826 11.2879C18.0166 11.7297 18.4931 12.4268 18.6322 13.3578C18.6385 13.4001 18.6485 13.4418 18.6518 13.4841C18.6596 13.5885 18.6646 13.6931 18.6726 13.831C18.6692 13.856 18.6646 13.6931 18.6726 13.831Z" fill="white"/>
<path d="M17.4222 13.7824C17.254 13.7855 17.164 13.6923 17.1466 13.5382C17.1346 13.4307 17.125 13.3218 17.0993 13.2171C17.0488 13.011 16.9393 12.8201 16.766 12.6939C16.6842 12.6343 16.5914 12.5909 16.4943 12.5627C16.371 12.5271 16.2428 12.5369 16.1198 12.5068C15.9861 12.474 15.9122 12.3657 15.9332 12.2404C15.9523 12.1263 16.0633 12.0372 16.1881 12.0463C16.9675 12.1025 17.5245 12.5055 17.604 13.4231C17.6097 13.4878 17.6163 13.5562 17.6019 13.6182C17.5772 13.7241 17.4987 13.7773 17.4222 13.7824C17.2539 13.7854 17.4987 13.7773 17.4222 13.7824Z" fill="white"/>
<path d="M23.5485 10.7202L23.5436 10.7004C23.3623 9.96739 22.8931 9.21027 22.2801 8.56729C22.0277 8.3026 21.6133 8.3084 21.3397 8.55095C21 8.85193 21.0178 9.38556 21.3202 9.72393C21.6996 10.1485 21.9898 10.6194 22.0984 11.0482C22.5449 13.0936 22.5449 15.1669 22.0984 17.2123C21.8308 18.2694 20.4588 19.5835 19.3688 19.8263C17.9417 20.0977 16.5033 20.2137 15.0664 20.1739C15.0378 20.1731 15.0103 20.1842 14.9904 20.2047C14.788 20.4124 13.6695 21.5608 13.6526 21.5781C13.6521 21.5786 13.6522 21.5785 13.6516 21.5791L12.2293 23.0389C12.1252 23.1474 11.9424 23.0737 11.9424 22.9238V19.9276C11.9424 19.8782 11.9073 19.8363 11.8589 19.8265C11.8586 19.8265 11.8583 19.8264 11.8581 19.8264C11.8578 19.8263 11.8575 19.8263 11.8572 19.8262C11.4248 19.7298 10.9482 19.4647 10.5138 19.1141C10.1984 18.8595 9.73915 18.8324 9.43577 19.1012C9.12277 19.3786 9.0958 19.8625 9.41278 20.1353C9.65717 20.3456 9.9159 20.5365 10.1821 20.7015C10.8223 21.0981 11.3367 21.7455 11.3367 22.4986V23.035C11.3367 23.6896 12.1345 24.0111 12.5881 23.5387L13.5933 22.4939C14.1185 21.9479 14.8558 21.6685 15.6134 21.6685C16.9644 21.6685 18.316 21.5407 19.6577 21.2848L19.6764 21.281C21.3358 20.9193 23.1427 19.1807 23.5435 17.5604L23.5484 17.5406C24.0439 15.2776 24.0439 12.983 23.5485 10.7202Z" fill="#D1D1D1"/>
<path d="M19.2414 16.6814C19.0215 16.4878 18.784 16.3215 18.5457 16.1516C18.3027 15.9785 18.0584 15.8073 17.8063 15.6477C17.5543 15.4882 17.2553 15.4907 17.0212 15.682C16.7818 15.8778 16.6713 16.2525 16.3296 16.2924C16.1256 16.3162 15.9478 16.2304 15.7707 16.1568C15.2892 15.9564 14.8898 15.6811 14.5591 15.3435C14.3395 15.1194 13.9784 15.0748 13.7436 15.2829L13.45 15.5432C13.3964 15.5907 13.3894 15.6738 13.437 15.7273C14.5574 16.9883 15.9719 17.8109 17.5088 18.4486C17.6571 18.5101 17.8169 18.5444 17.9845 18.5952C17.8169 18.5442 18.1302 18.5503 17.9845 18.5952C18.1302 18.5503 18.2845 18.5278 18.4138 18.4585C18.8715 18.2127 19.1886 17.8276 19.4066 17.3647C19.5258 17.112 19.4529 16.8677 19.2414 16.6814Z" fill="#D1D1D1"/>
<path d="M15.6235 9.87085C15.6216 9.87085 15.6197 9.87066 15.6178 9.87066C15.616 9.87053 15.6183 9.87066 15.6235 9.87085Z" fill="white"/>
<path d="M15.6179 9.87061C15.6196 9.87061 15.6213 9.87078 15.623 9.87078C15.7345 9.87477 17.5491 9.92474 15.6179 9.87061Z" fill="white"/>
<path d="M18.6529 11.2255C18.5699 11.1338 18.429 11.1304 18.3364 11.2125C18.2343 11.303 18.2312 11.4609 18.3222 11.5626C18.7832 12.0776 19.0983 12.7235 19.196 13.4266C19.2354 13.7103 19.2498 13.9976 19.2705 14.2836C19.281 14.4282 19.3534 14.563 19.5147 14.5611C19.6707 14.5592 19.7526 14.4219 19.7413 14.2773C19.7144 13.9336 19.693 13.5873 19.6327 13.2487C19.4919 12.4577 19.1455 11.7702 18.6529 11.2255Z" fill="#D1D1D1"/>
<path d="M18.6321 13.3579C18.5421 12.7549 18.3098 12.2506 17.931 11.8497C17.8495 11.7635 17.7148 11.7636 17.6259 11.8424C17.5213 11.9351 17.5221 12.0979 17.6157 12.2017C17.7203 12.3177 17.8131 12.4441 17.8909 12.5784C18.1057 12.9489 18.1982 13.3743 18.1989 13.8001C18.199 13.8651 18.2021 13.9339 18.223 13.9944C18.2935 14.1981 18.5995 14.1729 18.6528 13.971C18.6676 13.9153 18.6693 13.8563 18.6726 13.8313C18.6693 13.8564 18.6645 13.6934 18.6726 13.8313C18.6645 13.6934 18.6596 13.5888 18.6517 13.4842C18.6486 13.4418 18.6385 13.4 18.6321 13.3579Z" fill="#D1D1D1"/>
<path d="M17.4221 13.7826C17.4248 13.7824 17.4273 13.7811 17.4298 13.7808C17.4227 13.7808 17.4118 13.7809 17.4006 13.7814C17.4079 13.7815 17.4145 13.7826 17.4221 13.7826Z" fill="white"/>
<path d="M17.4222 13.7825C17.4146 13.7826 17.408 13.7815 17.4007 13.7812C17.3643 13.7822 17.3267 13.7842 17.4222 13.7825Z" fill="white"/>
<path d="M17.4298 13.7808C17.4272 13.7811 17.4246 13.7824 17.4221 13.7826C17.4418 13.7812 17.4401 13.7808 17.4298 13.7808Z" fill="white"/>
<path d="M17.2032 12.4543C17.1292 12.3804 17.0113 12.387 16.933 12.4564L16.7602 12.6096C16.7344 12.6325 16.7383 12.6736 16.7663 12.6939C16.9396 12.8202 17.0491 13.0111 17.0996 13.2171C17.1253 13.3218 17.1348 13.4306 17.1469 13.5382C17.1635 13.6855 17.2471 13.776 17.401 13.7813C17.4121 13.781 17.4232 13.7807 17.4301 13.7807C17.5042 13.7725 17.5784 13.7206 17.6022 13.6181C17.6165 13.5562 17.61 13.4877 17.6043 13.423C17.5668 12.9926 17.4243 12.6756 17.2032 12.4543Z" fill="#D1D1D1"/>
</g>

</symbol><symbol id="icon-whatsapp" viewBox="0 0 31 31">
<g clip-path="url(#clip0)">
<path d="M15.6133 30.6194C23.8976 30.6194 30.6133 23.9037 30.6133 15.6194C30.6133 7.33511 23.8976 0.619385 15.6133 0.619385C7.32901 0.619385 0.613281 7.33511 0.613281 15.6194C0.613281 23.9037 7.32901 30.6194 15.6133 30.6194Z" fill="#75B73B"/>
<path d="M24.0118 11.8063C22.5128 10.3073 20.7367 8.97024 18.7444 8.24561C15.5528 7.24824 11.2779 8.0235 10.0038 11.6411C9.97183 11.7319 9.91723 11.8259 9.82496 11.8534C9.65447 11.9041 9.48377 11.9593 9.37462 12.0997C7.2095 14.8854 8.73922 18.2245 8.54234 21.2759C8.42757 23.113 8.16871 25.2031 9.47092 26.504L11.8836 28.9141C12.889 29.9185 14.192 30.6193 15.6131 30.6193C20.2683 30.6193 24.4279 28.4986 27.1789 25.1706C30.2847 21.4136 28.3433 16.138 24.8965 12.6911L24.0118 11.8063Z" fill="#52891D"/>
<path d="M15.1935 6.97364C10.6215 7.19114 7.01361 10.9988 7.02738 15.5758C7.03526 18.1785 7.6758 20.8376 7.15065 23.3867L7.05041 23.8732C7.00113 24.1127 7.21699 24.3223 7.45477 24.2659L8.06532 24.1212C10.4722 23.551 13.0063 24.0965 15.4796 24.1343C20.1526 24.2057 24.049 20.4953 24.1948 15.824C24.3508 10.8167 20.2182 6.73428 15.1935 6.97364ZM20.367 20.3031C19.0973 21.5727 17.409 22.2721 15.6132 22.2721C14.5618 22.2721 13.5551 22.0361 12.6211 21.5709L12.4761 21.4987C12.1798 21.351 11.841 21.3119 11.5188 21.3882C10.5121 21.6267 9.59812 20.7393 9.80687 19.7259L9.81628 19.6803C9.88249 19.3588 9.83728 19.0244 9.68807 18.732L9.62121 18.601C9.13629 17.6515 8.89043 16.6248 8.89043 15.5492C8.89043 13.7535 9.58975 12.0653 10.8594 10.7955C12.1178 9.53706 13.8336 8.82655 15.6134 8.82655C17.4089 8.82655 19.0972 9.52587 20.3669 10.7955C21.6366 12.0652 22.3359 13.7535 22.3359 15.5491C22.336 17.3289 21.6254 19.0447 20.367 20.3031Z" fill="white"/>
<path d="M19.7801 17.4113L18.1169 16.9338C17.8984 16.8711 17.6629 16.9332 17.5036 17.0955L17.0968 17.5098C16.9254 17.6846 16.6652 17.7407 16.4382 17.6489C15.6515 17.3305 13.9965 15.8589 13.5741 15.1231C13.452 14.9108 13.4722 14.6455 13.622 14.4515L13.9769 13.9922C14.116 13.8123 14.1453 13.5705 14.0534 13.3625L13.3537 11.78C13.1862 11.401 12.7018 11.2906 12.3854 11.5583C11.9212 11.9509 11.3705 12.5473 11.3037 13.2083C11.1856 14.3735 11.6854 15.8423 13.5749 17.606C15.7579 19.6438 17.5062 19.9128 18.6446 19.6371C19.2902 19.4808 19.8062 18.854 20.1316 18.3407C20.3538 17.9905 20.1782 17.5257 19.7801 17.4113Z" fill="white"/>
<path d="M22.1035 9.92887C21.7724 9.5469 21.1906 9.56338 20.8376 9.92519L20.3599 10.4147C20.2562 10.5211 20.2619 10.6907 20.3669 10.7958C21.6367 12.0655 22.3359 13.7538 22.3359 15.5493C22.3359 17.3291 21.6253 19.0448 20.3669 20.3033C19.0973 21.5729 17.4089 22.2723 15.6132 22.2723C14.5618 22.2723 13.5551 22.0363 12.6211 21.5711L12.4761 21.4989C12.1797 21.3512 11.841 21.3121 11.5188 21.3884L9.4425 21.8802C9.40359 21.8895 9.36828 21.8552 9.37635 21.816C9.38737 21.7625 9.32181 21.7277 9.28367 21.7668L7.40652 23.6906C7.19373 23.9087 7.15814 24.336 7.45463 24.2659L8.06519 24.1212C10.4721 23.551 13.0062 24.0965 15.4795 24.1342C20.1525 24.2057 24.049 20.4953 24.1947 15.824C24.265 13.5674 23.4643 11.4988 22.1035 9.92887Z" fill="#D1D1D1"/>
<path d="M19.7801 17.4113L18.117 16.9338C17.8985 16.8712 17.6629 16.9332 17.5036 17.0956L17.0968 17.5098C16.9254 17.6847 16.6652 17.7407 16.4382 17.6489C16.1264 17.5227 15.6781 17.2152 15.2243 16.8442C14.8736 16.5575 14.3579 16.5664 14.0415 16.8906L13.5705 17.3733C13.5068 17.4387 13.5083 17.5437 13.575 17.6061C15.758 19.6438 17.5062 19.9129 18.6447 19.6372C19.2903 19.4809 19.8063 18.8541 20.1317 18.3407C20.3538 17.9905 20.1782 17.5257 19.7801 17.4113Z" fill="#D1D1D1"/>
</g>

</symbol><symbol id="icon-work-step-1" viewBox="0 0 101 101">
<g clip-path="url(#clip0)">
<path d="M37.2092 85.305C37.2546 82.9854 37.9204 80.7195 39.1382 78.7441H61.8761C62.8593 80.3346 63.4836 82.12 63.7053 83.9768C63.7808 84.5224 63.8206 85.072 63.823 85.6233C63.81 92.6932 58.2794 98.5226 51.2192 98.9083C50.9967 98.9196 50.7491 98.9318 50.5145 98.9318C50.2798 98.9318 50.0322 98.9196 49.7959 98.8969C23.7196 98.5502 2.66316 77.4971 2.31323 51.4199C2.28969 51.1836 2.27832 50.9376 2.27832 50.7014C2.27832 50.4659 2.28969 50.2215 2.30105 49.9966C2.68833 42.9372 8.51852 37.4074 15.5885 37.3928C16.1389 37.3961 16.6878 37.435 17.2326 37.5114C18.642 37.6762 20.0141 38.0781 21.2896 38.6983V62.7068C19.6073 63.5171 17.7708 63.9579 15.9043 64.0002C19.4344 73.9491 27.2611 81.7757 37.2092 85.305Z" fill="#7DB8FE" fill-opacity="0.7"/>
<path d="M64.5213 68.7678H31.2662V35.5127C31.2662 17.146 46.1554 2.25757 64.5213 2.25757C82.8879 2.25757 97.7764 17.146 97.7764 35.5127C97.7764 53.8793 82.8879 68.7678 64.5213 68.7678ZM64.5213 18.8851C55.3388 18.8851 47.8937 26.3294 47.8937 35.5127C47.8937 44.696 55.3388 52.1402 64.5213 52.1402C73.7046 52.1402 81.1488 44.696 81.1488 35.5127C81.1391 26.3334 73.7005 18.8949 64.5213 18.8851Z" fill="#7DB8FE" fill-opacity="0.7"/>
<path d="M50.5063 100.595C50.7686 100.595 51.0462 100.581 51.2979 100.568C59.2374 100.131 65.4581 93.5768 65.4792 85.6251C65.476 84.987 65.4305 84.3505 65.3412 83.7196C65.092 81.642 64.3913 79.6447 63.2896 77.8667C62.9859 77.3779 62.4509 77.0808 61.8761 77.0816H39.1382C38.5618 77.0816 38.0275 77.3804 37.7247 77.8699C36.761 79.4304 36.1001 81.1581 35.7762 82.9629C27.883 79.6074 21.5989 73.3225 18.2458 65.4293C19.5513 65.1931 20.8187 64.7814 22.013 64.205C22.5878 63.9281 22.9523 63.3468 22.9523 62.7087V38.6986C22.954 38.0629 22.5927 37.4815 22.0219 37.2023C20.5792 36.5008 19.0285 36.0453 17.4355 35.857C16.8355 35.7741 16.2307 35.7311 15.625 35.7271C7.66196 35.7327 1.08807 41.9518 0.641533 49.9019V49.9108C0.62854 50.1601 0.617172 50.4361 0.617172 50.6983C0.617172 50.9882 0.63179 51.2886 0.660202 51.5768C0.937057 78.5625 22.7818 100.352 49.7683 100.56C50.0135 100.585 50.2595 100.596 50.5063 100.595ZM60.9067 80.4071C61.7096 82.0414 62.1359 83.8357 62.1537 85.6568C62.1204 91.8304 57.2848 96.9104 51.1201 97.2474C50.732 97.2758 50.3431 97.2758 49.9559 97.2474C24.6768 97.0915 4.2033 76.6748 3.97597 51.3974C3.94918 51.0775 3.94106 50.8851 3.94106 50.7016C3.94106 50.5189 3.95081 50.2794 3.96217 50.0837C4.30641 43.9085 9.40591 39.0729 15.5901 39.0558C16.0545 39.0591 16.5181 39.0915 16.9784 39.154C17.8837 39.2596 18.7727 39.4731 19.6268 39.7914V61.6183C18.4228 62.0705 17.1505 62.3157 15.8645 62.3449C15.3319 62.3579 14.8383 62.625 14.5363 63.0635C14.2342 63.5027 14.1604 64.0588 14.3382 64.5614C18.0095 74.9975 26.2169 83.2041 36.6538 86.8738C37.158 87.0524 37.7166 86.9777 38.1566 86.6733C38.5959 86.3688 38.8622 85.8719 38.8719 85.3369C38.906 83.6214 39.3282 81.9359 40.1076 80.4071H60.9067Z" fill="#2696FE"/>
<path d="M31.266 70.4305H64.5211C83.806 70.4305 99.439 54.7975 99.439 35.5126C99.439 16.2277 83.806 0.594727 64.5211 0.594727C45.237 0.594727 29.6033 16.2277 29.6033 35.5126V68.7677C29.6033 69.6859 30.3478 70.4305 31.266 70.4305ZM64.5211 3.92024C81.9695 3.92024 96.1135 18.0642 96.1135 35.5126C96.1135 52.961 81.9695 67.1049 64.5211 67.1049H32.9288V35.5126C32.9482 18.0723 47.0817 3.93972 64.5211 3.92024Z" fill="#2696FE"/>
<path d="M64.5212 53.803C74.6228 53.803 82.8115 45.6143 82.8115 35.5127C82.8115 25.4112 74.6228 17.2224 64.5212 17.2224C54.4205 17.2224 46.2309 25.4112 46.2309 35.5127C46.2431 45.6094 54.4253 53.7909 64.5212 53.803ZM64.5212 20.5479C72.7863 20.5479 79.486 27.2477 79.486 35.5127C79.486 43.7778 72.7863 50.4775 64.5212 50.4775C56.257 50.4775 49.5564 43.7778 49.5564 35.5127C49.5662 27.2517 56.2602 20.5569 64.5212 20.5479Z" fill="#2696FE"/>
<path d="M54.5446 33.8498H62.8584V25.536C62.8584 24.6178 63.6029 23.8733 64.5211 23.8733C65.4402 23.8733 66.1839 24.6178 66.1839 25.536V33.8498H74.4976C75.4167 33.8498 76.1604 34.5943 76.1604 35.5126C76.1604 36.4308 75.4167 37.1753 74.4976 37.1753H66.1839V45.4891C66.1839 46.4074 65.4402 47.1519 64.5211 47.1519C63.6029 47.1519 62.8584 46.4074 62.8584 45.4891V37.1753H54.5446C53.6263 37.1753 52.8818 36.4308 52.8818 35.5126C52.8818 34.5943 53.6263 33.8498 54.5446 33.8498Z" fill="#2696FE"/>
</g>

</symbol><symbol id="icon-work-step-2" viewBox="0 0 100 101">
<path d="M89.0625 11.5322H82.8125V17.7822H89.0625V64.6572H10.9375V17.7822H17.1875V11.5322H10.9375C9.2799 11.5322 7.69018 12.1907 6.51808 13.3628C5.34598 14.5349 4.6875 16.1246 4.6875 17.7822V67.7822C4.6875 69.4398 5.34598 71.0295 6.51808 72.2016C7.69018 73.3737 9.2799 74.0322 10.9375 74.0322H89.0625C90.7201 74.0322 92.3098 73.3737 93.4819 72.2016C94.654 71.0295 95.3125 69.4398 95.3125 67.7822V17.7822C95.3125 16.1246 94.654 14.5349 93.4819 13.3628C92.3098 12.1907 90.7201 11.5322 89.0625 11.5322Z" fill="#7DB8FE" fill-opacity="0.7"/>
<path d="M79.6875 5.28223H20.3125C19.4837 5.28223 18.6888 5.61147 18.1028 6.19752C17.5167 6.78357 17.1875 7.57842 17.1875 8.40723V14.6572H82.8125V8.40723C82.8125 7.57842 82.4833 6.78357 81.8972 6.19752C81.3112 5.61147 80.5163 5.28223 79.6875 5.28223Z" fill="#7DB8FE" fill-opacity="0.7"/>
<path d="M39.0625 74.0322H60.9375V86.5322H39.0625V74.0322Z" fill="#7DB8FE" fill-opacity="0.7"/>
<path d="M21.875 86.5322C20.6318 86.5322 19.4395 87.0261 18.5604 87.9052C17.6814 88.7842 17.1875 89.9765 17.1875 91.2197C17.1875 92.4629 17.6814 93.6552 18.5604 94.5343C19.4395 95.4134 20.6318 95.9072 21.875 95.9072H78.125C79.3682 95.9072 80.5605 95.4134 81.4396 94.5343C82.3186 93.6552 82.8125 92.4629 82.8125 91.2197C82.8125 89.9765 82.3186 88.7842 81.4396 87.9052C80.5605 87.0261 79.3682 86.5322 78.125 86.5322H21.875Z" fill="#7DB8FE" fill-opacity="0.7"/>
<path d="M21.875 9.96973C21.875 9.10678 22.5746 8.40723 23.4375 8.40723C24.3004 8.40723 25 9.10678 25 9.96973C25 10.8327 24.3004 11.5322 23.4375 11.5322C22.5746 11.5322 21.875 10.8327 21.875 9.96973Z" fill="#2696FE"/>
<path d="M28.125 9.96973C28.125 9.10678 28.8246 8.40723 29.6875 8.40723C30.5504 8.40723 31.25 9.10678 31.25 9.96973C31.25 10.8327 30.5504 11.5322 29.6875 11.5322C28.8246 11.5322 28.125 10.8327 28.125 9.96973Z" fill="#2696FE"/>
<path d="M34.375 9.96973C34.375 9.10678 35.0746 8.40723 35.9375 8.40723C36.8004 8.40723 37.5 9.10678 37.5 9.96973C37.5 10.8327 36.8004 11.5322 35.9375 11.5322C35.0746 11.5322 34.375 10.8327 34.375 9.96973Z" fill="#2696FE"/>
<path d="M89.0625 9.96973H84.375V8.40723C84.375 7.16402 83.8811 5.97174 83.0021 5.09266C82.123 4.21359 80.9307 3.71973 79.6875 3.71973H20.3125C19.0693 3.71973 17.877 4.21359 16.9979 5.09266C16.1189 5.97174 15.625 7.16402 15.625 8.40723V9.96973H10.9375C8.86626 9.97221 6.88056 10.7961 5.41597 12.2607C3.95138 13.7253 3.12748 15.711 3.125 17.7822V67.7822C3.12748 69.8535 3.95138 71.8392 5.41597 73.3038C6.88056 74.7683 8.86626 75.5922 10.9375 75.5947H37.5V84.9697H21.875C20.2174 84.9697 18.6277 85.6282 17.4556 86.8003C16.2835 87.9724 15.625 89.5621 15.625 91.2197C15.625 92.8773 16.2835 94.467 17.4556 95.6391C18.6277 96.8112 20.2174 97.4697 21.875 97.4697H78.125C79.7826 97.4697 81.3723 96.8112 82.5444 95.6391C83.7165 94.467 84.375 92.8773 84.375 91.2197C84.375 89.5621 83.7165 87.9724 82.5444 86.8003C81.3723 85.6282 79.7826 84.9697 78.125 84.9697H62.5V75.5947H89.0625C91.1337 75.5922 93.1194 74.7683 94.584 73.3038C96.0486 71.8392 96.8725 69.8535 96.875 67.7822V17.7822C96.8725 15.711 96.0486 13.7253 94.584 12.2607C93.1194 10.7961 91.1337 9.97221 89.0625 9.96973ZM84.375 19.3447H87.5V63.0947H84.375V19.3447ZM18.75 8.40723C18.75 7.99283 18.9146 7.5954 19.2076 7.30237C19.5007 7.00935 19.8981 6.84473 20.3125 6.84473H79.6875C80.1019 6.84473 80.4993 7.00935 80.7924 7.30237C81.0854 7.5954 81.25 7.99283 81.25 8.40723V13.0947H18.75V8.40723ZM18.75 16.2197H81.25V63.0947H18.75V16.2197ZM81.25 91.2197C81.25 92.0485 80.9208 92.8434 80.3347 93.4294C79.7487 94.0155 78.9538 94.3447 78.125 94.3447H21.875C21.0462 94.3447 20.2513 94.0155 19.6653 93.4294C19.0792 92.8434 18.75 92.0485 18.75 91.2197C18.75 90.3909 19.0792 89.5961 19.6653 89.01C20.2513 88.424 21.0462 88.0947 21.875 88.0947H78.125C78.9538 88.0947 79.7487 88.424 80.3347 89.01C80.9208 89.5961 81.25 90.3909 81.25 91.2197ZM59.375 84.9697H40.625V75.5947H59.375V84.9697ZM93.75 67.7822C93.75 69.0254 93.2561 70.2177 92.3771 71.0968C91.498 71.9759 90.3057 72.4697 89.0625 72.4697H10.9375C9.6943 72.4697 8.50201 71.9759 7.62294 71.0968C6.74386 70.2177 6.25 69.0254 6.25 67.7822V17.7822C6.25 16.539 6.74386 15.3467 7.62294 14.4677C8.50201 13.5886 9.6943 13.0947 10.9375 13.0947H15.625V16.2197H10.9375C10.5231 16.2197 10.1257 16.3843 9.83265 16.6774C9.53962 16.9704 9.375 17.3678 9.375 17.7822V64.6572C9.375 65.0716 9.53962 65.4691 9.83265 65.7621C10.1257 66.0551 10.5231 66.2197 10.9375 66.2197H89.0625C89.4769 66.2197 89.8743 66.0551 90.1674 65.7621C90.4604 65.4691 90.625 65.0716 90.625 64.6572V17.7822C90.625 17.3678 90.4604 16.9704 90.1674 16.6774C89.8743 16.3843 89.4769 16.2197 89.0625 16.2197H84.375V13.0947H89.0625C90.3057 13.0947 91.498 13.5886 92.3771 14.4677C93.2561 15.3467 93.75 16.539 93.75 17.7822V67.7822ZM15.625 19.3447V63.0947H12.5V19.3447H15.625Z" fill="#2696FE"/>
<g clip-path="url(#clip0)">
<path d="M35.875 52.1635C36.9058 52.1635 37.7417 51.3576 37.7417 50.3635H34.0083C34.0083 51.3576 34.8439 52.1635 35.875 52.1635Z" fill="#7DB8FE" fill-opacity="0.7"/>
<path d="M35.875 35.9633V44.9634H38.675C39.1897 44.9619 39.6067 44.5598 39.6083 44.0634V43.0599C39.6008 42.5196 39.8464 42.005 40.2764 41.6585C41.9337 40.3711 42.8905 38.4245 42.875 36.3725C42.8632 32.6443 39.7197 29.6314 35.8535 29.6429C31.9876 29.6541 28.8631 32.6854 28.8749 36.4133C28.8719 38.4355 29.813 40.3515 31.4373 41.6308C31.875 41.9643 32.1334 42.4701 32.1416 43.008V44.0634C32.143 44.5598 32.56 44.9619 33.0749 44.9634H35.875V35.9633Z" fill="#7DB8FE" fill-opacity="0.7"/>
<path d="M35.875 28.3133C35.6171 28.3133 35.4083 28.1118 35.4083 27.8633V26.0633C35.4083 25.8148 35.6171 25.6133 35.875 25.6133C36.1327 25.6133 36.3417 25.8148 36.3417 26.0633V27.8633C36.3417 28.1118 36.1327 28.3133 35.875 28.3133Z" fill="#2696FE"/>
<path d="M31.4416 29.4585C31.2745 29.4587 31.1203 29.3728 31.0369 29.2335L30.1035 27.6752C30.0188 27.5359 30.0181 27.3634 30.1015 27.2234C30.1849 27.0835 30.3396 26.9973 30.5071 26.9976C30.6746 26.998 30.829 27.0848 30.9118 27.2252L31.8451 28.7835C31.9285 28.9226 31.9285 29.0942 31.8453 29.2333C31.7619 29.3726 31.6081 29.4583 31.4416 29.4585Z" fill="#2696FE"/>
<path d="M28.196 32.5884C28.1139 32.5886 28.0335 32.5678 27.9626 32.5282L26.3455 31.6282C26.1242 31.503 26.0492 31.2292 26.1775 31.0149C26.3056 30.8007 26.5893 30.7264 26.8121 30.8486L28.4293 31.7486C28.612 31.8506 28.7014 32.0582 28.6467 32.2549C28.592 32.4515 28.4072 32.5884 28.196 32.5884Z" fill="#2696FE"/>
<path d="M27.0083 36.8634H25.1416C24.8837 36.8634 24.6749 36.6619 24.6749 36.4134C24.6749 36.1649 24.8837 35.9634 25.1416 35.9634H27.0083C27.266 35.9634 27.4749 36.1649 27.4749 36.4134C27.4749 36.6619 27.266 36.8634 27.0083 36.8634Z" fill="#2696FE"/>
<path d="M26.5797 42.0384C26.3687 42.0384 26.1837 41.9015 26.129 41.7048C26.0743 41.5081 26.1636 41.3005 26.3464 41.1985L27.9635 40.2985C28.108 40.217 28.2866 40.2161 28.432 40.2966C28.5772 40.377 28.6665 40.5264 28.6663 40.6879C28.6658 40.8494 28.5758 40.9982 28.4302 41.0781L26.813 41.9781C26.7422 42.0177 26.6617 42.0386 26.5797 42.0384Z" fill="#2696FE"/>
<path d="M45.1702 42.0384C45.0882 42.0386 45.0077 42.0177 44.9369 41.9781L43.3197 41.0781C43.1741 40.9982 43.0841 40.8494 43.0839 40.6879C43.0834 40.5264 43.1727 40.377 43.3179 40.2966C43.4633 40.2161 43.6419 40.217 43.7864 40.2985L45.4035 41.1985C45.5863 41.3005 45.6756 41.5081 45.6209 41.7048C45.5662 41.9015 45.3812 42.0384 45.1702 42.0384Z" fill="#2696FE"/>
<path d="M46.6084 36.8634H44.7417C44.4838 36.8634 44.275 36.6619 44.275 36.4134C44.275 36.1649 44.4838 35.9634 44.7417 35.9634H46.6084C46.8661 35.9634 47.075 36.1649 47.075 36.4134C47.075 36.6619 46.8661 36.8634 46.6084 36.8634Z" fill="#2696FE"/>
<path d="M43.5539 32.5884C43.3427 32.5884 43.1579 32.4515 43.1032 32.2549C43.0485 32.0582 43.1379 31.8506 43.3206 31.7486L44.9378 30.8486C45.1606 30.7264 45.4443 30.8007 45.5726 31.0149C45.7007 31.2292 45.6257 31.503 45.4045 31.6282L43.7873 32.5282C43.7164 32.5678 43.636 32.5886 43.5539 32.5884Z" fill="#2696FE"/>
<path d="M40.3084 29.4585C40.1416 29.4583 39.9878 29.3726 39.9044 29.2333C39.8212 29.0942 39.8212 28.9226 39.9046 28.7835L40.838 27.2252C40.9207 27.0848 41.0752 26.998 41.2426 26.9976C41.4101 26.9973 41.5649 27.0835 41.6483 27.2234C41.7316 27.3634 41.731 27.5359 41.6462 27.6752L40.7129 29.2335C40.6295 29.3728 40.4752 29.4587 40.3084 29.4585Z" fill="#2696FE"/>
<path d="M35.875 34.6135C35.6171 34.6135 35.4083 34.412 35.4083 34.1635V33.2635C35.4083 33.015 35.6171 32.8135 35.875 32.8135C36.1327 32.8135 36.3417 33.015 36.3417 33.2635V34.1635C36.3417 34.412 36.1327 34.6135 35.875 34.6135Z" fill="#2696FE"/>
<path d="M36.2376 29.222C33.0215 29.073 30.0688 30.9286 28.9114 33.8259C27.7543 36.7231 28.6533 40.0093 31.142 41.9792C31.471 42.2275 31.6668 42.6054 31.675 43.0082V44.0635C31.6773 44.6335 32.051 45.1406 32.6083 45.3307V45.8635C32.6095 46.1966 32.7391 46.5174 32.9722 46.7635C32.4869 47.2722 32.4869 48.0549 32.9722 48.5636C32.6519 48.9006 32.5322 49.3722 32.6553 49.8136C32.7781 50.2552 33.1265 50.6055 33.5788 50.7424C33.7673 51.8226 34.7368 52.6134 35.8725 52.6134C37.0082 52.6134 37.978 51.8226 38.1662 50.7424C38.6194 50.6066 38.969 50.2568 39.0929 49.8149C39.2167 49.3733 39.0977 48.9013 38.7776 48.5636C39.2629 48.0549 39.2629 47.2722 38.7776 46.7635C39.0107 46.5174 39.1403 46.1966 39.1417 45.8635V45.3307C39.6991 45.1406 40.0725 44.6335 40.075 44.0635V43.0605C40.0687 42.6562 40.2503 42.2703 40.57 42.0088C42.34 40.6364 43.3611 38.5584 43.3417 36.3684C43.2741 32.5623 40.1783 29.4481 36.2376 29.222ZM38.2084 45.4135V45.8635C38.2084 46.112 37.9994 46.3135 37.7417 46.3135H34.0083C33.7504 46.3135 33.5417 46.112 33.5417 45.8635V45.4135H38.2084ZM38.2084 47.6635C38.2084 47.9121 37.9994 48.1136 37.7417 48.1136H34.0083C33.7504 48.1136 33.5417 47.9121 33.5417 47.6635C33.5417 47.415 33.7504 47.2135 34.0083 47.2135H37.7417C37.9994 47.2135 38.2084 47.415 38.2084 47.6635ZM35.875 51.7136C35.2819 51.7129 34.7532 51.3526 34.5548 50.8136H37.195C36.9966 51.3526 36.4682 51.7129 35.875 51.7136ZM37.7417 49.9136H34.0083C33.7504 49.9136 33.5417 49.7121 33.5417 49.4636C33.5417 49.215 33.7504 49.0136 34.0083 49.0136H37.7417C37.9994 49.0136 38.2084 49.215 38.2084 49.4636C38.2084 49.7121 37.9994 49.9136 37.7417 49.9136ZM39.9839 41.3086C39.442 41.739 39.1321 42.3835 39.1417 43.0605V44.0635C39.1417 44.312 38.9328 44.5135 38.675 44.5135H36.3417V35.9635C36.3417 35.7149 36.1327 35.5135 35.875 35.5135C35.6171 35.5135 35.4083 35.7149 35.4083 35.9635V44.5135H33.075C32.8171 44.5135 32.6083 44.312 32.6083 44.0635V43.0082C32.6006 42.3354 32.2793 41.7017 31.7333 41.2824C29.6016 39.5949 28.7986 36.7982 29.7267 34.2937C30.6546 31.7893 33.1137 30.1165 35.8716 30.1134C35.9785 30.1134 36.0858 30.1156 36.1931 30.1211C39.6416 30.3189 42.3503 33.0446 42.4084 36.3752C42.425 38.2906 41.5318 40.1082 39.9839 41.3086Z" fill="#2696FE"/>
</g>
<rect x="52.0494" y="27.9333" width="22.3048" height="5.71266" rx="1" fill="#7DB8FE" fill-opacity="0.7"/>
<rect x="52.5494" y="28.4333" width="21.3048" height="4.71266" rx="0.5" stroke="#2696FE"/>
<rect x="56.0494" y="36.7991" width="18.3048" height="2.13203" rx="1.06601" fill="#2696FE"/>
<rect x="56.0494" y="41.3413" width="18.3048" height="2.13203" rx="1.06601" fill="#2696FE"/>
<rect x="56.0494" y="46.165" width="18.3048" height="2.13203" rx="1.06601" fill="#2696FE"/>
<rect x="56.0494" y="50.4812" width="18.3048" height="2.13203" rx="1.06601" fill="#2696FE"/>
<rect x="52.0494" y="36.7991" width="2.28293" height="2.13203" rx="1.06601" fill="#2696FE"/>
<rect x="52.0494" y="41.3413" width="2.28293" height="2.13203" rx="1.06601" fill="#2696FE"/>
<rect x="52.0494" y="46.165" width="2.28293" height="2.13203" rx="1.06601" fill="#2696FE"/>
<rect x="52.0494" y="50.4812" width="2.28293" height="2.13203" rx="1.06601" fill="#2696FE"/>

</symbol><symbol id="icon-work-step-3" viewBox="0 0 98 98">
<g clip-path="url(#clip0)">
<path d="M89.8269 8.88013H8.99352C5.42233 8.88013 2.52686 11.7756 2.52686 15.3468V25.0468H96.2935V15.3468C96.2935 11.7756 93.3981 8.88013 89.8269 8.88013Z" fill="#7DB8FE" fill-opacity="0.7"/>
<path d="M49.4102 47.6802C39.7694 47.6676 31.0388 53.3725 27.1795 62.2065C23.3202 71.0413 25.0671 81.3231 31.6269 88.3882C32.0445 88.8539 32.4865 89.296 32.9523 89.7135C40.9204 97.088 52.8204 98.2658 62.0791 92.5956C71.3379 86.9254 75.6977 75.7903 72.7501 65.3412C69.8033 54.892 60.2675 47.6762 49.4102 47.6802ZM49.7449 72.7385L56.6047 79.5983L49.7449 72.7385Z" fill="#7DB8FE" fill-opacity="0.7"/>
<path d="M89.8268 7.26354H83.3602V2.41354C83.3602 1.52074 82.6363 0.796875 81.7435 0.796875C80.8507 0.796875 80.1268 1.52074 80.1268 2.41354V7.26354H67.1935V2.41354C67.1935 1.52074 66.4696 0.796875 65.5768 0.796875C64.684 0.796875 63.9602 1.52074 63.9602 2.41354V7.26354H51.0268V2.41354C51.0268 1.52074 50.303 0.796875 49.4102 0.796875C48.5174 0.796875 47.7935 1.52074 47.7935 2.41354V7.26354H34.8602V2.41354C34.8602 1.52074 34.1363 0.796875 33.2435 0.796875C32.3507 0.796875 31.6268 1.52074 31.6268 2.41354V7.26354H18.6935V2.41354C18.6935 1.52074 17.9696 0.796875 17.0768 0.796875C16.184 0.796875 15.4602 1.52074 15.4602 2.41354V7.26354H8.99349C4.53108 7.26907 0.915682 10.8845 0.910156 15.3469V76.7802C0.915682 81.2426 4.53108 84.858 8.99349 84.8635H27.0342C27.9909 86.5197 29.1292 88.0629 30.4285 89.4664C30.8785 89.9685 31.3553 90.4461 31.8581 90.8952C37.6191 96.2386 45.5003 98.6675 53.2695 97.4937C61.0386 96.3199 67.8503 91.6704 71.7751 84.8635H89.8268C94.2892 84.858 97.9046 81.2426 97.9102 76.7802V15.3469C97.9046 10.8845 94.2892 7.26907 89.8268 7.26354ZM4.14349 15.3469C4.14349 12.6685 6.3151 10.4969 8.99349 10.4969H15.4602V15.3469C15.4602 16.2397 16.184 16.9635 17.0768 16.9635C17.9696 16.9635 18.6935 16.2397 18.6935 15.3469V10.4969H31.6268V15.3469C31.6268 16.2397 32.3507 16.9635 33.2435 16.9635C34.1363 16.9635 34.8602 16.2397 34.8602 15.3469V10.4969H47.7935V15.3469C47.7935 16.2397 48.5174 16.9635 49.4102 16.9635C50.303 16.9635 51.0268 16.2397 51.0268 15.3469V10.4969H63.9602V15.3469C63.9602 16.2397 64.684 16.9635 65.5768 16.9635C66.4696 16.9635 67.1935 16.2397 67.1935 15.3469V10.4969H80.1268V15.3469C80.1268 16.2397 80.8507 16.9635 81.7435 16.9635C82.6363 16.9635 83.3602 16.2397 83.3602 15.3469V10.4969H89.8268C92.5052 10.4969 94.6768 12.6685 94.6768 15.3469V23.4302H4.14349V15.3469ZM64.7685 88.5318C56.1018 96.5828 42.6885 96.5733 34.0337 88.5089C33.6058 88.1245 33.1985 87.7172 32.8149 87.2885C25.9306 79.8517 24.831 68.745 30.123 60.1028C35.4159 51.4606 45.809 47.3913 55.5619 50.1431C65.3147 52.8949 72.049 61.796 72.0435 71.9302C72.0545 74.6875 71.5525 77.422 70.5626 79.9954C70.2342 80.8471 69.8529 81.6776 69.4211 82.4819C68.23 84.7514 66.6559 86.7983 64.7685 88.5318ZM94.6768 76.7802C94.6768 79.4586 92.5052 81.6302 89.8268 81.6302H73.3886C73.4083 81.5805 73.4226 81.5284 73.4423 81.4778C73.7083 80.8092 73.9499 80.1264 74.1598 79.4349C74.2001 79.3023 74.234 79.1681 74.2727 79.0339C74.4527 78.4032 74.609 77.7661 74.7416 77.1212C74.7645 77.0131 74.7906 76.9065 74.8111 76.7983C74.9469 76.0879 75.0487 75.3703 75.1245 74.6496C75.1411 74.4878 75.1553 74.326 75.1703 74.1642C75.2334 73.4174 75.2768 72.6754 75.2768 71.9302C75.2768 57.6446 63.6957 46.0635 49.4102 46.0635C35.1246 46.0635 23.5435 57.6446 23.5435 71.9302C23.5435 72.6722 23.5869 73.4127 23.6516 74.1499C23.6666 74.3118 23.6793 74.4736 23.6958 74.6346C23.7732 75.3593 23.875 76.0768 24.0187 76.7912C24.0384 76.8931 24.0637 76.9933 24.085 77.0952C24.2192 77.7535 24.381 78.4047 24.5697 79.0497C24.606 79.1712 24.636 79.2928 24.6723 79.4136C24.8839 80.1122 25.1278 80.8021 25.3978 81.4802C25.4175 81.5299 25.4301 81.5836 25.4514 81.6333H8.99349C6.3151 81.6333 4.14349 79.4617 4.14349 76.7833V26.6635H94.6768V76.7802Z" fill="#2696FE"/>
<path d="M51.0268 71.7345V55.7636C51.0268 54.8708 50.3029 54.147 49.4101 54.147C48.5173 54.147 47.7935 54.8708 47.7935 55.7636V71.9303C47.7998 72.2934 47.9308 72.6431 48.1637 72.921C48.196 73.2817 48.3508 73.6212 48.6018 73.8817L55.4616 80.7399C55.8673 81.1598 56.468 81.328 57.0332 81.1804C57.5984 81.0327 58.0405 80.5907 58.1881 80.0255C58.3357 79.4603 58.1676 78.8596 57.7476 78.4538L51.0268 71.7345Z" fill="#2696FE"/>
</g>

</symbol><symbol id="icon-work-step-4" viewBox="0 0 101 101">
<g clip-path="url(#clip0)">
<path d="M29.142 13.7198C29.142 18.3219 25.4107 22.0531 20.8087 22.0531C16.2066 22.0531 12.4753 18.3219 12.4753 13.7198C12.4753 9.11776 16.2066 5.38647 20.8087 5.38647C25.4107 5.38647 29.142 9.11776 29.142 13.7198Z" fill="#7DB8FE" fill-opacity="0.7"/>
<path d="M29.142 25.3865H12.4753C6.95288 25.3865 2.47534 29.864 2.47534 35.3865V42.0531L6.00073 43.3349C7.57463 43.8948 9.18026 44.3627 10.8087 44.7362C17.3842 46.2979 24.2332 46.2979 30.8087 44.7362C32.4371 44.3627 34.0427 43.8948 35.6166 43.3349L39.142 42.0531V35.3865C39.142 29.864 34.6645 25.3865 29.142 25.3865Z" fill="#7DB8FE" fill-opacity="0.7"/>
<path d="M89.142 13.7198C89.142 18.3219 85.4107 22.0531 80.8087 22.0531C76.2066 22.0531 72.4753 18.3219 72.4753 13.7198C72.4753 9.11776 76.2066 5.38647 80.8087 5.38647C85.4107 5.38647 89.142 9.11776 89.142 13.7198Z" fill="#7DB8FE" fill-opacity="0.7"/>
<path d="M89.142 25.3865H72.4753C66.9529 25.3865 62.4753 29.864 62.4753 35.3865V42.0531L66.0007 43.3349C75.5816 46.7252 86.0357 46.7252 95.6166 43.3349L99.142 42.0531V35.3865C99.142 29.864 94.6645 25.3865 89.142 25.3865Z" fill="#7DB8FE" fill-opacity="0.7"/>
<path d="M50.8086 73.7197C45.2861 73.7197 40.8086 69.2422 40.8086 63.7197C40.8086 58.1973 45.2861 53.7197 50.8086 53.7197C56.3311 53.7197 60.8086 58.1973 60.8086 63.7197C60.8029 69.2406 56.3294 73.714 50.8086 73.7197ZM50.8086 57.0531C47.127 57.0531 44.1419 60.0381 44.1419 63.7197C44.1419 67.4014 47.127 70.3864 50.8086 70.3864C54.4902 70.3864 57.4753 67.4014 57.4753 63.7197C57.4753 60.0381 54.4902 57.0531 50.8086 57.0531Z" fill="#2696FE"/>
<path d="M20.8086 23.7197C15.2861 23.7197 10.8086 19.2422 10.8086 13.7197C10.8086 8.19727 15.2861 3.71973 20.8086 3.71973C26.3311 3.71973 30.8086 8.19727 30.8086 13.7197C30.8029 19.2406 26.3294 23.714 20.8086 23.7197ZM20.8086 7.05306C17.127 7.05306 14.1419 10.0381 14.1419 13.7197C14.1419 17.4014 17.127 20.3864 20.8086 20.3864C24.4902 20.3864 27.4753 17.4014 27.4753 13.7197C27.4753 10.0381 24.4902 7.05306 20.8086 7.05306Z" fill="#2696FE"/>
<path d="M80.8086 23.7197C75.2861 23.7197 70.8086 19.2422 70.8086 13.7197C70.8086 8.19727 75.2861 3.71973 80.8086 3.71973C86.3311 3.71973 90.8086 8.19727 90.8086 13.7197C90.8029 19.2406 86.3294 23.714 80.8086 23.7197ZM80.8086 7.05306C77.127 7.05306 74.1419 10.0381 74.1419 13.7197C74.1419 17.4014 77.127 20.3864 80.8086 20.3864C84.4902 20.3864 87.4753 17.4014 87.4753 13.7197C87.4753 10.0381 84.4902 7.05306 80.8086 7.05306Z" fill="#2696FE"/>
<path d="M26.5785 82.9847C15.6344 75.6442 8.64876 63.7008 7.61523 50.5628L10.9388 50.2959C11.8934 62.4224 18.3411 73.4453 28.4437 80.2194L26.5785 82.9847Z" fill="#2696FE"/>
<path d="M74.2722 83.4893L72.4656 80.6898C82.8839 73.9377 89.6018 62.7552 90.6703 50.3862L93.9939 50.6613C92.8359 64.0605 85.558 76.1748 74.2722 83.4893Z" fill="#2696FE"/>
<path d="M34.8238 10.3748L33.49 7.31983C44.3811 2.58757 56.7346 2.51758 67.6786 7.12615L66.3798 10.1966C56.2789 5.94369 44.8775 6.0088 34.8254 10.3748H34.8238Z" fill="#2696FE"/>
<path d="M29.1419 23.7197H12.4753C6.03483 23.7271 0.815918 28.946 0.808594 35.3864V43.2201L5.42855 44.9014C15.3651 48.5081 26.2521 48.5081 36.1886 44.9014L40.8086 43.2201V35.3864C40.8013 28.946 35.5824 23.7271 29.1419 23.7197ZM37.4753 40.8861L35.0485 41.7682C34.2005 42.0767 33.3371 42.3265 32.4753 42.578V32.0531H29.1419V43.3983C23.6431 44.5189 17.9741 44.5189 12.4753 43.3983V32.0531H9.14193V42.578C8.28011 42.3265 7.41667 42.0783 6.56868 41.7682L4.14193 40.8861V35.3864C4.14762 30.786 7.87484 27.0588 12.4753 27.0531H29.1419C33.7423 27.0588 37.4696 30.786 37.4753 35.3864V40.8861Z" fill="#2696FE"/>
<path d="M89.1419 23.7197H72.4753C66.0348 23.7271 60.8159 28.946 60.8086 35.3864V43.2201L65.4285 44.9014C75.3651 48.5081 86.2521 48.5081 96.1886 44.9014L100.809 43.2201V35.3864C100.801 28.946 95.5824 23.7271 89.1419 23.7197ZM97.4753 40.8861L95.0485 41.7682C94.2005 42.0767 93.3371 42.3265 92.4753 42.578V32.0531H89.1419V43.3983C83.6431 44.5189 77.9741 44.5189 72.4753 43.3983V32.0531H69.1419V42.578C68.2801 42.3265 67.4167 42.0783 66.5687 41.7682L64.1419 40.8861V35.3864C64.1476 30.786 67.8748 27.0588 72.4753 27.0531H89.1419C93.7423 27.0588 97.4696 30.786 97.4753 35.3864V40.8861Z" fill="#2696FE"/>
<path d="M59.1419 73.7197H42.4753C36.0348 73.7271 30.8159 78.946 30.8086 85.3864V93.2201L35.4285 94.9014C45.3651 98.5081 56.2521 98.5081 66.1886 94.9014L70.8086 93.2201V85.3864C70.8013 78.946 65.5824 73.7271 59.1419 73.7197ZM67.4753 90.8861L65.0485 91.7682C64.2005 92.0767 63.3371 92.3265 62.4753 92.578V82.0531H59.1419V93.3983C53.6431 94.5189 47.9741 94.5189 42.4753 93.3983V82.0531H39.1419V92.578C38.2801 92.3265 37.4167 92.0783 36.5687 91.7682L34.1419 90.8861V85.3864C34.1476 80.786 37.8748 77.0588 42.4753 77.0531H59.1419C63.7423 77.0588 67.4696 80.786 67.4753 85.3864V90.8861Z" fill="#2696FE"/>
</g>

</symbol></svg>