<svg xmlns="http://www.w3.org/2000/svg" xmlns:xlink="http://www.w3.org/1999/xlink"><defs>
<clipPath>
<rect width="30" height="30" fill="white"/>
</clipPath>

<clipPath id="clip0">
<rect width="30" height="30" fill="white" transform="translate(0.613281 0.716797)"/>
</clipPath>

<clipPath id="clip0">
<rect width="30" height="30" fill="white" transform="translate(0.613281 0.177734)"/>
</clipPath>

<clipPath id="clip0">
<rect width="30" height="30" fill="white" transform="translate(0.613281 0.619385)"/>
</clipPath>
</defs><symbol id="icon-arrow-left" viewBox="0 0 25 48">
  <path d="M22.6689 45.9185L2.66894 24.6403L22.6689 2.30981" fill="none" stroke="#FECE26" stroke-width="4" stroke-linecap="round" stroke-linejoin="round"/>
</symbol><symbol id="icon-arrow-right" viewBox="0 0 24 48">
<path d="M2 45.9185L22 24.6403L2 2.30981" fill="none" stroke="#FECE26" stroke-width="4" stroke-linecap="round" stroke-linejoin="round"/>
</symbol><symbol id="icon-google-plus" viewBox="0 0 31 31">
<g>
<path d="M15.6133 30.6194C23.8976 30.6194 30.6133 23.9037 30.6133 15.6194C30.6133 7.33511 23.8976 0.619385 15.6133 0.619385C7.32901 0.619385 0.613281 7.33511 0.613281 15.6194C0.613281 23.9037 7.32901 30.6194 15.6133 30.6194Z" fill="#CF4C3C"/>
<path d="M22.467 13.2468L20.3271 15.8214L16.298 11.6309H10.7311L8.47803 14.0705V19.3388L19.2959 30.1633C24.194 28.9269 28.1328 25.2814 29.7793 20.5605L22.467 13.2468Z" fill="#AD3228"/>
<path d="M13.0519 16.7529H15.7349C15.264 18.0842 13.9884 19.0388 12.4954 19.0279C10.6837 19.0145 9.18538 17.5651 9.11518 15.7547C9.03983 13.814 10.5967 12.211 12.5208 12.211C13.4007 12.211 14.2036 12.5464 14.8089 13.0957C14.9524 13.2257 15.1704 13.2267 15.3115 13.0939L16.297 12.1666C16.4511 12.0215 16.4516 11.7765 16.2979 11.6311C15.338 10.7215 14.0503 10.1546 12.6302 10.127C9.60151 10.0677 7.04852 12.551 7.02748 15.5803C7.00609 18.6325 9.47377 21.1133 12.5208 21.1133C15.4513 21.1133 17.8452 18.8188 18.0055 15.9286C18.0097 15.8923 18.0126 14.6677 18.0126 14.6677H13.052C12.8487 14.6677 12.6839 14.8325 12.6839 15.0358V16.3848C12.6838 16.5881 12.8487 16.7529 13.0519 16.7529Z" fill="white"/>
<path d="M22.5586 14.7901V13.4719C22.5586 13.2937 22.4143 13.1494 22.2361 13.1494H21.1267C20.9485 13.1494 20.8041 13.2937 20.8041 13.4719V14.7901H19.4862C19.308 14.7901 19.1633 14.9344 19.1633 15.1127V16.222C19.1633 16.4001 19.3079 16.5446 19.4862 16.5446H20.8041V17.8626C20.8041 18.0408 20.9484 18.1852 21.1267 18.1852H22.2361C22.4143 18.1852 22.5586 18.0408 22.5586 17.8626V16.5446H23.8768C24.0549 16.5446 24.1994 16.4001 24.1994 16.222V15.1127C24.1994 14.9345 24.0549 14.7901 23.8768 14.7901H22.5586Z" fill="#D1D1D1"/>
</g>

</symbol><symbol id="icon-telegram" viewBox="0 0 31 31">
<g clip-path="url(#clip0)">
<path d="M15.6133 30.7168C23.8976 30.7168 30.6133 24.0011 30.6133 15.7168C30.6133 7.43253 23.8976 0.716797 15.6133 0.716797C7.32901 0.716797 0.613281 7.43253 0.613281 15.7168C0.613281 24.0011 7.32901 30.7168 15.6133 30.7168Z" fill="#7AA5DA"/>
<path d="M30.6133 15.7168C30.6133 15.494 30.5208 15.2819 30.3632 15.1245L28.8318 13.5957C26.2163 10.9845 21.9192 11.1977 19.575 14.0551L17.1946 16.9566C14.8732 19.7862 15.0764 23.9151 17.6643 26.503C19.6423 28.481 22.7015 29.2306 24.8975 27.4979C28.3786 24.7513 30.6133 20.4952 30.6133 15.7168Z" fill="#5786B5"/>
<path d="M23.0968 8.54027C23.6948 8.30695 24.313 8.83019 24.1817 9.45844L21.4998 22.2776C21.3746 22.8786 20.6685 23.1493 20.1736 22.7857L18.5026 21.5592C17.1385 20.5578 15.2455 20.7121 14.0615 21.9211C13.6989 22.2908 13.0736 22.1403 12.918 21.6473L12.6795 20.8902C11.8979 18.4089 9.93309 16.4792 7.43823 15.7423C6.91399 15.5877 6.88369 14.8584 7.39176 14.6595L23.0968 8.54027ZM21.1281 11.3847C21.3029 11.2301 21.0998 10.9574 20.9018 11.0807L12.2877 16.4231C12.1362 16.517 12.0665 16.7019 12.12 16.8725L13.2947 22.0311C13.318 22.1099 13.4311 22.0988 13.4412 22.017L13.7038 18.0857C13.7139 17.9887 13.7604 17.8999 13.8331 17.8352L21.1281 11.3847Z" fill="white"/>
<path d="M20.9017 11.0806C21.0997 10.9574 21.3028 11.2301 21.128 11.3847L13.8331 17.8352C13.7604 17.8998 13.7139 17.9887 13.7038 18.0857L13.4412 22.017C13.4311 22.0988 13.318 22.1099 13.2947 22.0311L12.1199 16.8725C12.0664 16.7018 12.1361 16.517 12.2876 16.423L20.9017 11.0806Z" fill="#9EC2E5"/>
<path d="M13.3372 22.0846C13.3372 22.0846 13.3372 22.0846 13.3372 22.0846C13.1473 22.0169 12.9867 21.8654 12.918 21.6472L12.6795 20.89C11.8979 18.4088 9.93309 16.4791 7.43823 15.7422C6.91399 15.5876 6.88369 14.8583 7.39176 14.6593L23.0968 8.54021C23.4826 8.38969 23.8776 8.55434 24.0725 8.85943C24.0099 8.76378 23.8781 8.76092 23.7895 8.83323L13.3472 17.3579C13.3108 17.3876 13.2897 17.4321 13.2897 17.4791V17.75C13.2897 17.7649 13.2729 17.7735 13.2608 17.7648C13.2486 17.756 13.2316 17.7649 13.232 17.78L13.2897 20.1413V22.0409C13.2897 22.0553 13.298 22.0685 13.3114 22.0737C13.3196 22.0769 13.328 22.0798 13.3363 22.0824C13.3368 22.0825 13.3372 22.083 13.3372 22.0835V22.0846C13.3372 22.0846 13.3372 22.0846 13.3372 22.0846Z" fill="white"/>
<path d="M24.1986 9.24315C24.2017 9.31183 24.1966 9.38454 24.1815 9.45831L21.4996 22.2775C21.3744 22.8785 20.6683 23.1492 20.1734 22.7856L16.1249 19.8139L13.4506 17.9008C13.3495 17.8285 13.2896 17.7119 13.2896 17.5876C13.2896 17.4719 13.3415 17.3624 13.4311 17.2892L23.7894 8.83311C23.878 8.76079 24.0098 8.76361 24.0724 8.85931C24.0795 8.87144 24.0865 8.88251 24.0936 8.89364C24.0996 8.90577 24.1067 8.9179 24.1128 8.92898C24.1188 8.9411 24.1249 8.95323 24.13 8.96536C24.136 8.97849 24.1411 8.99062 24.1461 9.00374C24.1502 9.01487 24.1552 9.02694 24.1593 9.04013C24.1724 9.0795 24.1825 9.11993 24.1896 9.16235C24.1936 9.1886 24.1966 9.21491 24.1986 9.24315Z" fill="#D1D1D1"/>
<path d="M15.0614 19.0532C15.6203 19.4529 15.6908 20.2571 15.21 20.748L14.0612 21.921C14.0441 21.9381 14.0259 21.9553 14.0077 21.9705C13.9895 21.9856 13.9713 21.9988 13.9521 22.0119C13.9521 22.0119 13.9521 22.0119 13.9521 22.0119C13.952 22.012 13.9501 22.0136 13.95 22.0137C13.912 22.0386 13.873 22.0595 13.832 22.0765C13.8107 22.0846 13.7905 22.0927 13.7693 22.0977C13.6814 22.124 13.5915 22.1311 13.5027 22.122C13.4826 22.1203 13.4626 22.117 13.4432 22.1136C13.4371 22.1125 13.4308 22.1118 13.4249 22.1099C13.4027 22.1039 13.3804 22.0978 13.3582 22.0907C13.3446 22.0869 13.3368 22.074 13.3365 22.0599L13.2896 20.1412V19.9642C13.2896 19.0527 14.3201 18.5229 15.0614 19.0532Z" fill="#D1D1D1"/>
<path d="M14.0079 21.9705C13.99 21.9855 13.972 21.9994 13.953 22.0124C13.9528 22.0126 13.9524 22.0124 13.9524 22.0121C13.9524 22.012 13.9525 22.0118 13.9526 22.0118C13.9717 21.9987 13.9898 21.9856 14.0079 21.9705Z" fill="#DADDE0"/>
<path d="M13.9529 22.012C13.9529 22.012 13.9529 22.012 13.9529 22.012C13.9529 22.012 13.9519 22.013 13.9519 22.013C13.9518 22.0131 13.9516 22.0133 13.9514 22.0135C13.9514 22.0135 13.9514 22.0135 13.9514 22.0135C13.9514 22.0135 13.9514 22.0135 13.9529 22.012Z" fill="#DADDE0"/>
<path d="M13.8323 22.0766C13.8737 22.0594 13.9131 22.0382 13.9515 22.0129C13.9131 22.0381 13.8726 22.0593 13.8323 22.0766Z" fill="#DADDE0"/>
<path d="M13.5151 22.1239C13.5125 22.1239 13.5128 22.1229 13.5153 22.1231C13.6001 22.1303 13.6858 22.1227 13.7696 22.0977C13.706 22.1179 13.6403 22.127 13.5746 22.127C13.5544 22.127 13.5342 22.126 13.5151 22.1239Z" fill="#DADDE0"/>
<path d="M13.5745 22.1271C13.5543 22.1271 13.5341 22.1261 13.5149 22.124C13.5341 22.1261 13.5543 22.1271 13.5745 22.1271Z" fill="white"/>
<path d="M13.4904 22.1211C13.4986 22.1219 13.5067 22.1241 13.5149 22.1241C13.4937 22.1231 13.4745 22.12 13.4543 22.116C13.4663 22.1183 13.4784 22.12 13.4904 22.1211Z" fill="white"/>
<path d="M13.5028 22.1221C13.4866 22.1211 13.4704 22.1191 13.4543 22.1161C13.4525 22.1158 13.4526 22.1154 13.4544 22.1157C13.4703 22.1184 13.4865 22.1207 13.5028 22.1221Z" fill="#DADDE0"/>
<path d="M13.3584 22.0908C13.3806 22.0979 13.4029 22.1039 13.4251 22.11C13.416 22.108 13.4069 22.106 13.3978 22.104C13.3902 22.1021 13.3827 22.0992 13.3752 22.097C13.3695 22.0953 13.3638 22.0932 13.3584 22.0908Z" fill="#DADDE0"/>
<path d="M13.3977 22.1038C13.4068 22.1058 13.4159 22.1078 13.425 22.1098C13.4159 22.1088 13.4068 22.1068 13.3977 22.1038Z" fill="white"/>
<path d="M13.3413 22.0857C13.3526 22.0894 13.3639 22.0935 13.3753 22.0969C13.3792 22.098 13.3831 22.099 13.3868 22.0998C13.3716 22.0968 13.3565 22.0917 13.3413 22.0857Z" fill="white"/>
<path d="M13.3584 22.0908C13.3532 22.0899 13.3487 22.0883 13.3438 22.0866C13.3422 22.0861 13.3402 22.0865 13.3387 22.0858C13.3382 22.0856 13.3378 22.0853 13.3374 22.085C13.3373 22.0849 13.3372 22.0846 13.3372 22.0844C13.3372 22.0837 13.3379 22.0832 13.3386 22.0835C13.3451 22.087 13.3518 22.0889 13.3584 22.0908Z" fill="#DADDE0"/>
<path d="M13.2896 20.1414L13.3362 22.0479C13.3366 22.065 13.3199 22.0774 13.3041 22.0709C13.2951 22.0672 13.2896 22.0584 13.2896 22.0486V20.1414Z" fill="#D1D1D1"/>
<path d="M13.2777 17.777C13.2852 17.7824 13.2896 17.791 13.2896 17.8002V20.1412L13.2324 17.8009C13.2318 17.7772 13.2586 17.7631 13.2777 17.777Z" fill="#DADDE0"/>
<path d="M21.128 11.3846L13.8331 17.8352C13.7604 17.8998 13.7139 17.9887 13.7038 18.0857L13.4416 22.0173C13.4316 22.0991 13.3184 22.1102 13.2942 22.0314L12.1199 16.8725C12.0664 16.7019 12.1361 16.517 12.2876 16.4231L20.9018 11.0807C21.0998 10.9574 21.3028 11.2301 21.128 11.3846Z" fill="#ADBCC9"/>
</g>

</symbol><symbol id="icon-viber" viewBox="0 0 31 31">
<g clip-path="url(#clip0)">
<path d="M15.6133 30.1777C23.8976 30.1777 30.6133 23.462 30.6133 15.1777C30.6133 6.89346 23.8976 0.177734 15.6133 0.177734C7.32901 0.177734 0.613281 6.89346 0.613281 15.1777C0.613281 23.462 7.32901 30.1777 15.6133 30.1777Z" fill="#6F3FAA"/>
<path d="M25.1044 11.3905C23.1533 9.43931 20.7226 7.95968 18.0047 7.48282C15.7133 7.08076 13.4075 6.98524 11.0679 7.80411C8.64366 8.71319 8.64366 11.3395 8.74468 13.5617C8.74468 14.1677 8.03763 14.9759 8.34062 15.6829C8.94351 17.6926 9.44649 19.7024 11.5401 20.7176C11.5617 20.7281 11.5834 20.7396 11.602 20.7549C11.7556 20.8808 11.7152 21.0721 11.7026 21.2685C11.6919 21.4341 11.4719 21.6785 11.4719 21.8445C11.4719 22.8994 12.0106 24.0122 12.7566 24.7579L15.0262 27.0265C16.8884 28.8879 19.6007 29.8804 21.9837 28.7609C24.4696 27.593 26.5825 25.763 28.0952 23.498C30.6179 19.7209 28.6568 14.9428 25.4451 11.7311L25.1044 11.3905Z" fill="#512D84"/>
<path d="M23.5484 10.72L23.5435 10.7002C23.1427 9.07995 21.3358 7.34136 19.6764 6.97966L19.6577 6.97579C16.9738 6.4638 14.2524 6.4638 11.569 6.97579L11.5498 6.97966C9.89098 7.34136 8.084 9.08007 7.6827 10.7002L7.67824 10.72C7.18277 12.9828 7.18277 15.2775 7.67824 17.5402L7.6827 17.56C7.9367 18.5853 8.7535 19.6577 9.73947 20.3987C10.5953 21.0418 11.3367 21.9642 11.3367 23.0348C11.3367 23.6894 12.1345 24.0109 12.5881 23.5385L13.5933 22.4937C14.1185 21.9477 14.8558 21.6683 15.6134 21.6683C16.9644 21.6683 18.316 21.5405 19.6577 21.2846L19.6764 21.2807C21.3357 20.919 23.1427 19.1803 23.5434 17.5601L23.5484 17.5403C24.0438 15.2775 24.0438 12.9829 23.5484 10.72ZM22.0982 17.2122C21.8306 18.2693 20.4587 19.5834 19.3686 19.8262C17.9415 20.0976 16.5031 20.2136 15.0662 20.1738C15.0376 20.173 15.0101 20.1841 14.9902 20.2046C14.7878 20.4123 13.6693 21.5606 13.6524 21.578C13.6519 21.5785 13.652 21.5784 13.6514 21.579L12.2291 23.0388C12.125 23.1473 11.9422 23.0734 11.9422 22.9237V19.9275C11.9422 19.8782 11.9073 19.8364 11.8591 19.8265C11.8585 19.8264 11.858 19.8263 11.8574 19.8262C10.7674 19.5833 9.39592 18.2692 9.12785 17.2121C8.68189 15.1668 8.68189 13.0934 9.12785 11.0482C9.39592 9.99108 10.7674 8.67694 11.8574 8.43413C14.3498 7.96011 16.8768 7.96011 19.3686 8.43413C20.4592 8.67694 21.8306 9.99108 22.0982 11.0482C22.5447 13.0935 22.5447 15.1669 22.0982 17.2122Z" fill="white"/>
<path d="M17.9844 18.5953C17.8168 18.5444 17.6572 18.5103 17.5088 18.4488C15.9718 17.8111 14.5573 16.9885 13.437 15.7275C12.7998 15.0104 12.3011 14.2008 11.8796 13.344C11.6797 12.9378 11.5112 12.5156 11.3395 12.0961C11.1829 11.7136 11.4135 11.3184 11.6564 11.0301C11.8842 10.7596 12.1775 10.5526 12.4951 10.4C12.7429 10.2809 12.9874 10.3496 13.1684 10.5597C13.5597 11.0139 13.9192 11.4913 14.2102 12.0178C14.3892 12.3417 14.3401 12.7375 14.0157 12.9579C13.9368 13.0115 13.865 13.0744 13.7916 13.1349C13.7271 13.1879 13.6665 13.2414 13.6224 13.3132C13.5417 13.4445 13.5378 13.5995 13.5897 13.7423C13.9897 14.8416 14.664 15.6965 15.7705 16.157C15.9476 16.2306 16.1254 16.3163 16.3294 16.2926C16.671 16.2527 16.7816 15.8779 17.021 15.6822C17.255 15.4909 17.5541 15.4883 17.8061 15.6478C18.0582 15.8074 18.3025 15.9787 18.5455 16.1518C18.7839 16.3217 19.0213 16.4878 19.2412 16.6816C19.4527 16.8679 19.5256 17.1122 19.4064 17.3649C19.1885 17.8279 18.8712 18.2129 18.4136 18.4588C18.2844 18.528 18.1301 18.5505 17.9844 18.5953C17.8168 18.5444 18.1301 18.5505 17.9844 18.5953Z" fill="white"/>
<path d="M15.6174 9.87067C17.6277 9.92703 19.2789 11.2612 19.6328 13.2487C19.6931 13.5873 19.7145 13.9335 19.7414 14.2773C19.7527 14.4218 19.6708 14.5592 19.5148 14.5611C19.3537 14.563 19.2812 14.4282 19.2706 14.2837C19.2499 13.9977 19.2356 13.7103 19.1962 13.4267C18.9881 11.9291 17.7939 10.6901 16.3033 10.4243C16.079 10.3842 15.8495 10.3738 15.6222 10.3499C15.4786 10.3348 15.2905 10.3262 15.2587 10.1476C15.232 9.99787 15.3584 9.8787 15.5009 9.87102C15.5395 9.86873 15.5785 9.87055 15.6174 9.87067C17.6278 9.92703 15.5785 9.87055 15.6174 9.87067Z" fill="white"/>
<path d="M18.6726 13.831C18.6692 13.8562 18.6675 13.9152 18.6528 13.9707C18.5994 14.1725 18.2933 14.1978 18.223 13.9942C18.202 13.9337 18.1989 13.865 18.1988 13.7999C18.1981 13.3742 18.1056 12.9488 17.8909 12.5783C17.6701 12.1975 17.3329 11.8775 16.9374 11.6837C16.6982 11.5667 16.4397 11.4938 16.1775 11.4505C16.063 11.4316 15.9472 11.4201 15.832 11.4041C15.6925 11.3847 15.618 11.2958 15.6247 11.1583C15.6308 11.0295 15.725 10.9368 15.8654 10.9448C16.3267 10.971 16.7724 11.0708 17.1826 11.2879C18.0166 11.7297 18.4931 12.4268 18.6322 13.3578C18.6385 13.4001 18.6485 13.4418 18.6518 13.4841C18.6596 13.5885 18.6646 13.6931 18.6726 13.831C18.6692 13.856 18.6646 13.6931 18.6726 13.831Z" fill="white"/>
<path d="M17.4222 13.7824C17.254 13.7855 17.164 13.6923 17.1466 13.5382C17.1346 13.4307 17.125 13.3218 17.0993 13.2171C17.0488 13.011 16.9393 12.8201 16.766 12.6939C16.6842 12.6343 16.5914 12.5909 16.4943 12.5627C16.371 12.5271 16.2428 12.5369 16.1198 12.5068C15.9861 12.474 15.9122 12.3657 15.9332 12.2404C15.9523 12.1263 16.0633 12.0372 16.1881 12.0463C16.9675 12.1025 17.5245 12.5055 17.604 13.4231C17.6097 13.4878 17.6163 13.5562 17.6019 13.6182C17.5772 13.7241 17.4987 13.7773 17.4222 13.7824C17.2539 13.7854 17.4987 13.7773 17.4222 13.7824Z" fill="white"/>
<path d="M23.5485 10.7202L23.5436 10.7004C23.3623 9.96739 22.8931 9.21027 22.2801 8.56729C22.0277 8.3026 21.6133 8.3084 21.3397 8.55095C21 8.85193 21.0178 9.38556 21.3202 9.72393C21.6996 10.1485 21.9898 10.6194 22.0984 11.0482C22.5449 13.0936 22.5449 15.1669 22.0984 17.2123C21.8308 18.2694 20.4588 19.5835 19.3688 19.8263C17.9417 20.0977 16.5033 20.2137 15.0664 20.1739C15.0378 20.1731 15.0103 20.1842 14.9904 20.2047C14.788 20.4124 13.6695 21.5608 13.6526 21.5781C13.6521 21.5786 13.6522 21.5785 13.6516 21.5791L12.2293 23.0389C12.1252 23.1474 11.9424 23.0737 11.9424 22.9238V19.9276C11.9424 19.8782 11.9073 19.8363 11.8589 19.8265C11.8586 19.8265 11.8583 19.8264 11.8581 19.8264C11.8578 19.8263 11.8575 19.8263 11.8572 19.8262C11.4248 19.7298 10.9482 19.4647 10.5138 19.1141C10.1984 18.8595 9.73915 18.8324 9.43577 19.1012C9.12277 19.3786 9.0958 19.8625 9.41278 20.1353C9.65717 20.3456 9.9159 20.5365 10.1821 20.7015C10.8223 21.0981 11.3367 21.7455 11.3367 22.4986V23.035C11.3367 23.6896 12.1345 24.0111 12.5881 23.5387L13.5933 22.4939C14.1185 21.9479 14.8558 21.6685 15.6134 21.6685C16.9644 21.6685 18.316 21.5407 19.6577 21.2848L19.6764 21.281C21.3358 20.9193 23.1427 19.1807 23.5435 17.5604L23.5484 17.5406C24.0439 15.2776 24.0439 12.983 23.5485 10.7202Z" fill="#D1D1D1"/>
<path d="M19.2414 16.6814C19.0215 16.4878 18.784 16.3215 18.5457 16.1516C18.3027 15.9785 18.0584 15.8073 17.8063 15.6477C17.5543 15.4882 17.2553 15.4907 17.0212 15.682C16.7818 15.8778 16.6713 16.2525 16.3296 16.2924C16.1256 16.3162 15.9478 16.2304 15.7707 16.1568C15.2892 15.9564 14.8898 15.6811 14.5591 15.3435C14.3395 15.1194 13.9784 15.0748 13.7436 15.2829L13.45 15.5432C13.3964 15.5907 13.3894 15.6738 13.437 15.7273C14.5574 16.9883 15.9719 17.8109 17.5088 18.4486C17.6571 18.5101 17.8169 18.5444 17.9845 18.5952C17.8169 18.5442 18.1302 18.5503 17.9845 18.5952C18.1302 18.5503 18.2845 18.5278 18.4138 18.4585C18.8715 18.2127 19.1886 17.8276 19.4066 17.3647C19.5258 17.112 19.4529 16.8677 19.2414 16.6814Z" fill="#D1D1D1"/>
<path d="M15.6235 9.87085C15.6216 9.87085 15.6197 9.87066 15.6178 9.87066C15.616 9.87053 15.6183 9.87066 15.6235 9.87085Z" fill="white"/>
<path d="M15.6179 9.87061C15.6196 9.87061 15.6213 9.87078 15.623 9.87078C15.7345 9.87477 17.5491 9.92474 15.6179 9.87061Z" fill="white"/>
<path d="M18.6529 11.2255C18.5699 11.1338 18.429 11.1304 18.3364 11.2125C18.2343 11.303 18.2312 11.4609 18.3222 11.5626C18.7832 12.0776 19.0983 12.7235 19.196 13.4266C19.2354 13.7103 19.2498 13.9976 19.2705 14.2836C19.281 14.4282 19.3534 14.563 19.5147 14.5611C19.6707 14.5592 19.7526 14.4219 19.7413 14.2773C19.7144 13.9336 19.693 13.5873 19.6327 13.2487C19.4919 12.4577 19.1455 11.7702 18.6529 11.2255Z" fill="#D1D1D1"/>
<path d="M18.6321 13.3579C18.5421 12.7549 18.3098 12.2506 17.931 11.8497C17.8495 11.7635 17.7148 11.7636 17.6259 11.8424C17.5213 11.9351 17.5221 12.0979 17.6157 12.2017C17.7203 12.3177 17.8131 12.4441 17.8909 12.5784C18.1057 12.9489 18.1982 13.3743 18.1989 13.8001C18.199 13.8651 18.2021 13.9339 18.223 13.9944C18.2935 14.1981 18.5995 14.1729 18.6528 13.971C18.6676 13.9153 18.6693 13.8563 18.6726 13.8313C18.6693 13.8564 18.6645 13.6934 18.6726 13.8313C18.6645 13.6934 18.6596 13.5888 18.6517 13.4842C18.6486 13.4418 18.6385 13.4 18.6321 13.3579Z" fill="#D1D1D1"/>
<path d="M17.4221 13.7826C17.4248 13.7824 17.4273 13.7811 17.4298 13.7808C17.4227 13.7808 17.4118 13.7809 17.4006 13.7814C17.4079 13.7815 17.4145 13.7826 17.4221 13.7826Z" fill="white"/>
<path d="M17.4222 13.7825C17.4146 13.7826 17.408 13.7815 17.4007 13.7812C17.3643 13.7822 17.3267 13.7842 17.4222 13.7825Z" fill="white"/>
<path d="M17.4298 13.7808C17.4272 13.7811 17.4246 13.7824 17.4221 13.7826C17.4418 13.7812 17.4401 13.7808 17.4298 13.7808Z" fill="white"/>
<path d="M17.2032 12.4543C17.1292 12.3804 17.0113 12.387 16.933 12.4564L16.7602 12.6096C16.7344 12.6325 16.7383 12.6736 16.7663 12.6939C16.9396 12.8202 17.0491 13.0111 17.0996 13.2171C17.1253 13.3218 17.1348 13.4306 17.1469 13.5382C17.1635 13.6855 17.2471 13.776 17.401 13.7813C17.4121 13.781 17.4232 13.7807 17.4301 13.7807C17.5042 13.7725 17.5784 13.7206 17.6022 13.6181C17.6165 13.5562 17.61 13.4877 17.6043 13.423C17.5668 12.9926 17.4243 12.6756 17.2032 12.4543Z" fill="#D1D1D1"/>
</g>

</symbol><symbol id="icon-whatsapp" viewBox="0 0 31 31">
<g clip-path="url(#clip0)">
<path d="M15.6133 30.6194C23.8976 30.6194 30.6133 23.9037 30.6133 15.6194C30.6133 7.33511 23.8976 0.619385 15.6133 0.619385C7.32901 0.619385 0.613281 7.33511 0.613281 15.6194C0.613281 23.9037 7.32901 30.6194 15.6133 30.6194Z" fill="#75B73B"/>
<path d="M24.0118 11.8063C22.5128 10.3073 20.7367 8.97024 18.7444 8.24561C15.5528 7.24824 11.2779 8.0235 10.0038 11.6411C9.97183 11.7319 9.91723 11.8259 9.82496 11.8534C9.65447 11.9041 9.48377 11.9593 9.37462 12.0997C7.2095 14.8854 8.73922 18.2245 8.54234 21.2759C8.42757 23.113 8.16871 25.2031 9.47092 26.504L11.8836 28.9141C12.889 29.9185 14.192 30.6193 15.6131 30.6193C20.2683 30.6193 24.4279 28.4986 27.1789 25.1706C30.2847 21.4136 28.3433 16.138 24.8965 12.6911L24.0118 11.8063Z" fill="#52891D"/>
<path d="M15.1935 6.97364C10.6215 7.19114 7.01361 10.9988 7.02738 15.5758C7.03526 18.1785 7.6758 20.8376 7.15065 23.3867L7.05041 23.8732C7.00113 24.1127 7.21699 24.3223 7.45477 24.2659L8.06532 24.1212C10.4722 23.551 13.0063 24.0965 15.4796 24.1343C20.1526 24.2057 24.049 20.4953 24.1948 15.824C24.3508 10.8167 20.2182 6.73428 15.1935 6.97364ZM20.367 20.3031C19.0973 21.5727 17.409 22.2721 15.6132 22.2721C14.5618 22.2721 13.5551 22.0361 12.6211 21.5709L12.4761 21.4987C12.1798 21.351 11.841 21.3119 11.5188 21.3882C10.5121 21.6267 9.59812 20.7393 9.80687 19.7259L9.81628 19.6803C9.88249 19.3588 9.83728 19.0244 9.68807 18.732L9.62121 18.601C9.13629 17.6515 8.89043 16.6248 8.89043 15.5492C8.89043 13.7535 9.58975 12.0653 10.8594 10.7955C12.1178 9.53706 13.8336 8.82655 15.6134 8.82655C17.4089 8.82655 19.0972 9.52587 20.3669 10.7955C21.6366 12.0652 22.3359 13.7535 22.3359 15.5491C22.336 17.3289 21.6254 19.0447 20.367 20.3031Z" fill="white"/>
<path d="M19.7801 17.4113L18.1169 16.9338C17.8984 16.8711 17.6629 16.9332 17.5036 17.0955L17.0968 17.5098C16.9254 17.6846 16.6652 17.7407 16.4382 17.6489C15.6515 17.3305 13.9965 15.8589 13.5741 15.1231C13.452 14.9108 13.4722 14.6455 13.622 14.4515L13.9769 13.9922C14.116 13.8123 14.1453 13.5705 14.0534 13.3625L13.3537 11.78C13.1862 11.401 12.7018 11.2906 12.3854 11.5583C11.9212 11.9509 11.3705 12.5473 11.3037 13.2083C11.1856 14.3735 11.6854 15.8423 13.5749 17.606C15.7579 19.6438 17.5062 19.9128 18.6446 19.6371C19.2902 19.4808 19.8062 18.854 20.1316 18.3407C20.3538 17.9905 20.1782 17.5257 19.7801 17.4113Z" fill="white"/>
<path d="M22.1035 9.92887C21.7724 9.5469 21.1906 9.56338 20.8376 9.92519L20.3599 10.4147C20.2562 10.5211 20.2619 10.6907 20.3669 10.7958C21.6367 12.0655 22.3359 13.7538 22.3359 15.5493C22.3359 17.3291 21.6253 19.0448 20.3669 20.3033C19.0973 21.5729 17.4089 22.2723 15.6132 22.2723C14.5618 22.2723 13.5551 22.0363 12.6211 21.5711L12.4761 21.4989C12.1797 21.3512 11.841 21.3121 11.5188 21.3884L9.4425 21.8802C9.40359 21.8895 9.36828 21.8552 9.37635 21.816C9.38737 21.7625 9.32181 21.7277 9.28367 21.7668L7.40652 23.6906C7.19373 23.9087 7.15814 24.336 7.45463 24.2659L8.06519 24.1212C10.4721 23.551 13.0062 24.0965 15.4795 24.1342C20.1525 24.2057 24.049 20.4953 24.1947 15.824C24.265 13.5674 23.4643 11.4988 22.1035 9.92887Z" fill="#D1D1D1"/>
<path d="M19.7801 17.4113L18.117 16.9338C17.8985 16.8712 17.6629 16.9332 17.5036 17.0956L17.0968 17.5098C16.9254 17.6847 16.6652 17.7407 16.4382 17.6489C16.1264 17.5227 15.6781 17.2152 15.2243 16.8442C14.8736 16.5575 14.3579 16.5664 14.0415 16.8906L13.5705 17.3733C13.5068 17.4387 13.5083 17.5437 13.575 17.6061C15.758 19.6438 17.5062 19.9129 18.6447 19.6372C19.2903 19.4809 19.8063 18.8541 20.1317 18.3407C20.3538 17.9905 20.1782 17.5257 19.7801 17.4113Z" fill="#D1D1D1"/>
</g>

</symbol></svg>